{
copyright = "Copyright (c) 2011 by vernon adams. All rights reserved.";
customParameters = (
{
name = glyphOrder;
value = (
    space,
    exclam,
    quotedbl,
    numbersign,
    dollar,
    percent,
    ampersand,
    parenleft,
    parenright,
    asterisk,
    plus,
    comma,
    hyphen,
    period,
    slash,
    zero,
    one,
    two,
    three,
    four,
    five,
    six,
    seven,
    eight,
    nine,
    colon,
    semicolon,
    less,
    equal,
    greater,
    question,
    at,
    A,
    B,
    C,
    D,
    E,
    F,
    G,
    H,
    I,
    J,
    K,
    L,
    M,
    N,
    O,
    P,
    Q,
    R,
    S,
    T,
    U,
    V,
    W,
    X,
    Y,
    Z,
    bracketleft,
    backslash,
    bracketright,
    asciicircum,
    underscore,
    grave,
    a,
    b,
    c,
    d,
    e,
    f,
    g,
    h,
    i,
    j,
    k,
    l,
    m,
    n,
    o,
    p,
    q,
    r,
    s,
    t,
    u,
    v,
    w,
    x,
    y,
    z,
    braceleft,
    bar,
    braceright,
    asciitilde,
    exclamdown,
    cent,
    sterling,
    currency,
    yen,
    brokenbar,
    section,
    dieresis,
    copyright,
    ordfeminine,
    logicalnot,
    registered,
    macron,
    degree,
    plusminus,
    twosuperior,
    threesuperior,
    acute,
    mu,
    paragraph,
    periodcentered,
    cedilla,
    onesuperior,
    ordmasculine,
    onequarter,
    onehalf,
    threequarters,
    questiondown,
    Agrave,
    Aacute,
    Acircumflex,
    Atilde,
    Adieresis,
    Aring,
    AE,
    Ccedilla,
    Egrave,
    Eacute,
    Ecircumflex,
    Edieresis,
    Igrave,
    Iacute,
    Icircumflex,
    Idieresis,
    Eth,
    Ntilde,
    Ograve,
    Oacute,
    Ocircumflex,
    Otilde,
    Odieresis,
    multiply,
    Oslash,
    Ugrave,
    Uacute,
    Ucircumflex,
    Udieresis,
    Yacute,
    Thorn,
    germandbls,
    agrave,
    aacute,
    acircumflex,
    atilde,
    adieresis,
    aring,
    ae,
    ccedilla,
    egrave,
    eacute,
    ecircumflex,

glyphs = (
{
glyphname = exclam;
lastChange = "2013-12-30 03:19:54 -0800";
layers = (
{
components = (
{
name = period;
transform = "{1, 0, 0, 1, 126, -3}";
}
);
layerId = "F10CBA7B-FAF3-4DDE-A14D-E99DB7E222CB";
name = Light;
paths = (
{
closed = 1;
nodes = (
"513 1518 OFFCURVE",
"317 1517 OFFCURVE",
"323 1400 CURVE SMOOTH",
"370 438 LINE SMOOTH",
"373 370 OFFCURVE",
"453 367 OFFCURVE",
"459 438 CURVE SMOOTH",
"507 1400 LINE SMOOTH"
);
}
);
width = 793;
},
{
components = (
{
name = period;
transform = "{1, 0, 0, 1, 78, 0}";
}
);
layerId = "FB5FCFFA-D9F2-48E1-8F42-8D172ED4E960";
name = Bold;
paths = (
{
closed = 1;
nodes = (
"302 579 LINE SMOOTH",
"317 455 OFFCURVE",
"481 455 OFFCURVE",
"496 579 CURVE SMOOTH",
"590 1340 LINE SMOOTH",
"619 1573 OFFCURVE",
"179 1573 OFFCURVE",
"208 1340 CURVE SMOOTH"
);
}
);
width = 776;
}
);
unicode = 0021;
},
{
glyphname = quotedbl;
lastChange = "2013-12-30 03:19:54 -0800";
layers = (
{
layerId = "F10CBA7B-FAF3-4DDE-A14D-E99DB7E222CB";
name = Light;
paths = (
{
closed = 1;
nodes = (
"137 1480 OFFCURVE",
"94 1459 OFFCURVE",
"98 1408 CURVE SMOOTH",
"125 1059 LINE SMOOTH",
"129 1008 OFFCURVE",
"154 994 OFFCURVE",
"179 994 CURVE SMOOTH",
"204 994 OFFCURVE",
"230 1009 OFFCURVE",
"234 1059 CURVE SMOOTH",
"261 1414 LINE SMOOTH",
"264 1458 OFFCURVE",
"221 1480 OFFCURVE",
"180 1480 CURVE SMOOTH"
);
},
{
closed = 1;
nodes = (
"406 1480 OFFCURVE",
"362 1457 OFFCURVE",
"365 1414 CURVE SMOOTH",
"392 1059 LINE SMOOTH",
"396 1010 OFFCURVE",
"419 994 OFFCURVE",
"446 994 CURVE SMOOTH",
"471 994 OFFCURVE",
"497 1007 OFFCURVE",
"501 1059 CURVE SMOOTH",
"528 1414 LINE SMOOTH",
"531 1456 OFFCURVE",
"488 1480 OFFCURVE",
"447 1480 CURVE SMOOTH"
);
}
);
width = 633;
},
{
layerId = "FB5FCFFA-D9F2-48E1-8F42-8D172ED4E960";
name = Bold;
paths = (
{
closed = 1;
nodes = (
"264 925 CURVE SMOOTH",
"313 925 OFFCURVE",
"346 956 OFFCURVE",
"354 1041 CURVE SMOOTH",
"387 1370 LINE SMOOTH",
"395 1445 OFFCURVE",
"326 1476 OFFCURVE",
"265 1476 CURVE SMOOTH",
"198 1476 OFFCURVE",
"136 1437 OFFCURVE",
"142 1376 CURVE SMOOTH",
"176 1022 LINE SMOOTH",
"183 949 OFFCURVE",
"224 925 OFFCURVE"
);
},
{
closed = 1;
nodes = (
"637 925 CURVE SMOOTH",
"688 925 OFFCURVE",
"719 952 OFFCURVE",
"728 1041 CURVE SMOOTH",
"760 1370 LINE SMOOTH",
"767 1442 OFFCURVE",
"699 1476 OFFCURVE",
"639 1476 CURVE SMOOTH",
"572 1476 OFFCURVE",
"510 1437 OFFCURVE",
"516 1376 CURVE SMOOTH",
"550 1022 LINE SMOOTH",
"557 948 OFFCURVE",
"597 925 OFFCURVE"
);
}
);
width = 908;
}
);
unicode = 0022;
},
{
glyphname = numbersign;
lastChange = "2013-12-30 03:19:54 -0800";
layers = (
{
layerId = "F10CBA7B-FAF3-4DDE-A14D-E99DB7E222CB";
name = Light;
paths = (
{
closed = 1;
nodes = (
"864 1460 OFFCURVE",
"831 1440 OFFCURVE",
"824 1399 CURVE SMOOTH",
"765 994 LINE",
"500 994 LINE",
"559 1395 LINE SMOOTH",
"566 1440 OFFCURVE",
"527 1460 OFFCURVE",
"492 1460 CURVE SMOOTH",
"460 1460 OFFCURVE",
"427 1440 OFFCURVE",
"420 1399 CURVE SMOOTH",
"361 994 LINE",
"193 994 LINE SMOOTH",
"149 994 OFFCURVE",
"128 962 OFFCURVE",
"128 929 CURVE SMOOTH",
"128 896 OFFCURVE",
"150 863 OFFCURVE",
"193 863 CURVE SMOOTH",
"342 863 LINE",
"302 589 LINE",
"137 589 LINE SMOOTH",
"93 589 OFFCURVE",
"72 557 OFFCURVE",
"72 524 CURVE SMOOTH",
"72 492 OFFCURVE",
"94 459 OFFCURVE",
"137 459 CURVE SMOOTH",
"284 459 LINE",
"220 21 LINE SMOOTH",
"212 -31 OFFCURVE",
"251 -51 OFFCURVE",
"286 -51 CURVE SMOOTH",
"316 -51 OFFCURVE",
"349 -31 OFFCURVE",
"355 10 CURVE SMOOTH",
"422 459 LINE",
"687 459 LINE",
"624 21 LINE SMOOTH",
"617 -31 OFFCURVE",
"655 -51 OFFCURVE",
"690 -51 CURVE SMOOTH",
"721 -51 OFFCURVE",
"752 -31 OFFCURVE",
"759 10 CURVE SMOOTH",
"825 459 LINE",
"974 459 LINE SMOOTH",
"1018 459 OFFCURVE",
"1040 491 OFFCURVE",
"1040 523 CURVE SMOOTH",
"1040 556 OFFCURVE",
"1017 589 OFFCURVE",
"974 589 CURVE SMOOTH",
"845 589 LINE",
"885 863 LINE",
"1031 863 LINE SMOOTH",
"1075 863 OFFCURVE",
"1096 895 OFFCURVE",
"1096 928 CURVE SMOOTH",
"1096 961 OFFCURVE",
"1074 994 OFFCURVE",
"1031 994 CURVE SMOOTH",
"904 994 LINE",
"963 1395 LINE SMOOTH",
"969 1438 OFFCURVE",
"931 1460 OFFCURVE",
"896 1460 CURVE SMOOTH"
);
},
{
closed = 1;
nodes = (
"706 589 LINE",
"441 589 LINE",
"481 863 LINE",
"746 863 LINE"
);
}
);
width = 1169;
},
{
layerId = "FB5FCFFA-D9F2-48E1-8F42-8D172ED4E960";
name = Bold;
paths = (
{
closed = 1;
nodes = (
"354 -29 CURVE",
"430 -29 OFFCURVE",
"450 22 OFFCURVE",
"461 90 CURVE SMOOTH",
"509 429 LINE",
"715 429 LINE",
"665 72 LINE SMOOTH",
"656 8 OFFCURVE",
"707 -29 OFFCURVE",
"762 -29 CURVE SMOOTH",
"826 -29 OFFCURVE",
"849 21 OFFCURVE",
"857 77 CURVE SMOOTH",
"908 429 LINE",
"988 429 LINE SMOOTH",
"1063 429 OFFCURVE",
"1104 456 OFFCURVE",
"1104 520 CURVE SMOOTH",
"1104 593 OFFCURVE",
"1045 612 OFFCURVE",
"988 612 CURVE SMOOTH",
"933 612 LINE",
"967 852 LINE",
"1046 852 LINE SMOOTH",
"1121 852 OFFCURVE",
"1162 879 OFFCURVE",
"1162 943 CURVE SMOOTH",
"1162 1014 OFFCURVE",
"1104 1035 OFFCURVE",
"1046 1035 CURVE SMOOTH",
"992 1035 LINE",
"1037 1356 LINE SMOOTH",
"1047 1424 OFFCURVE",
"1003 1458 OFFCURVE",
"955 1457 CURVE SMOOTH",
"908 1457 OFFCURVE",
"855 1424 OFFCURVE",
"846 1359 CURVE SMOOTH",
"799 1035 LINE",
"594 1035 LINE",
"638 1337 LINE SMOOTH",
"649 1411 OFFCURVE",
"604 1449 OFFCURVE",
"556 1452 CURVE SMOOTH",
"509 1454 OFFCURVE",
"457 1423 OFFCURVE",
"448 1359 CURVE SMOOTH",
"402 1035 LINE",
"309 1035 LINE SMOOTH",
"233 1035 OFFCURVE",
"195 1003 OFFCURVE",
"195 944 CURVE SMOOTH",
"195 870 OFFCURVE",
"253 852 OFFCURVE",
"309 852 CURVE SMOOTH",
"376 852 LINE",
"342 612 LINE",
"239 612 LINE SMOOTH",
"175 612 OFFCURVE",
"141 580 OFFCURVE",
"138 529 CURVE",
"138 450 OFFCURVE",
"187 429 OFFCURVE",
"251 429 CURVE SMOOTH",
"317 429 LINE",
"270 100 LINE SMOOTH",
"257 14 OFFCURVE",
"303 -26 OFFCURVE"
);
},
{
closed = 1;
nodes = (
"774 852 LINE",
"740 612 LINE",
"535 612 LINE",
"568 852 LINE"
);
}
);
width = 1299;
}
);
unicode = 0023;
userData = {
com.typemytype.robofont.layerData = {
b = {
anchors = (
);
components = (
);
contours = (
);
lib = {
};
name = numbersign;
unicodes = (
);
width = 1169;
};
};
};
},
{
glyphname = dollar;
lastChange = "2013-12-30 03:19:54 -0800";
layers = (
{
components = (
{
name = s;
transform = "{1, 0, 0, 1, 136, 224}";
}
);
layerId = "F10CBA7B-FAF3-4DDE-A14D-E99DB7E222CB";
name = Light;
paths = (
{
closed = 1;
nodes = (
"593 263 LINE",
"593 0 LINE SMOOTH",
"593 -85 OFFCURVE",
"716 -79 OFFCURVE",
"716 0 CURVE SMOOTH",
"716 263 LINE"
);
},
{
closed = 1;
nodes = (
"713 1517 OFFCURVE",
"590 1523 OFFCURVE",
"590 1438 CURVE SMOOTH",
"590 1197 LINE",
"713 1197 LINE",
"713 1438 LINE SMOOTH"
);
}
);
width = 1274;
},
{
components = (
{
name = s;
transform = "{1, 0, 0, 1, -9, 203}";
}
);
layerId = "FB5FCFFA-D9F2-48E1-8F42-8D172ED4E960";
name = Bold;
paths = (
{
closed = 1;
nodes = (
"454 0 LINE SMOOTH",
"454 -95 OFFCURVE",
"593 -89 OFFCURVE",
"593 0 CURVE SMOOTH",
"593 251 LINE",
"454 251 LINE"
);
},
{
closed = 1;
nodes = (
"434 1187 LINE",
"573 1187 LINE",
"573 1438 LINE SMOOTH",
"573 1527 OFFCURVE",
"434 1533 OFFCURVE",
"434 1438 CURVE SMOOTH"
);
}
);
width = 1071;
}
);
unicode = 0024;
userData = {
com.typemytype.robofont.layerData = {
b = {
anchors = (
);
components = (
);
contours = (
);
lib = {
};
name = dollar;
unicodes = (
);
width = 1274;
};
};
};
},
{
glyphname = percent;
lastChange = "2013-12-30 03:19:54 -0800";
layers = (
{
layerId = "F10CBA7B-FAF3-4DDE-A14D-E99DB7E222CB";
name = Light;
paths = (
{
closed = 1;
nodes = (
"1376 1437 OFFCURVE",
"1354 1426 OFFCURVE",
"1339 1399 CURVE SMOOTH",
"549 9 LINE SMOOTH",
"544 0 OFFCURVE",
"541 -9 OFFCURVE",
"541 -17 CURVE SMOOTH",
"541 -48 OFFCURVE",
"570 -71 OFFCURVE",
"601 -71 CURVE SMOOTH",
"620 -71 OFFCURVE",
"637 -63 OFFCURVE",
"649 -42 CURVE SMOOTH",
"1440 1347 LINE SMOOTH",
"1446 1358 OFFCURVE",
"1449 1369 OFFCURVE",
"1449 1380 CURVE SMOOTH",
"1449 1412 OFFCURVE",
"1424 1437 OFFCURVE",
"1395 1437 CURVE SMOOTH"
);
},
{
closed = 1;
nodes = (
"705 1299 OFFCURVE",
"757 1156 OFFCURVE",
"757 1020 CURVE SMOOTH",
"757 883 OFFCURVE",
"705 740 OFFCURVE",
"557 740 CURVE SMOOTH",
"410 740 OFFCURVE",
"358 883 OFFCURVE",
"358 1020 CURVE SMOOTH",
"358 1156 OFFCURVE",
"410 1299 OFFCURVE",
"557 1299 CURVE SMOOTH"
);
},
{
closed = 1;
nodes = (
"346 1403 OFFCURVE",
"223 1228 OFFCURVE",
"223 1020 CURVE SMOOTH",
"223 808 OFFCURVE",
"345 637 OFFCURVE",
"557 637 CURVE SMOOTH",
"768 637 OFFCURVE",
"893 812 OFFCURVE",
"893 1020 CURVE SMOOTH",
"893 1213 OFFCURVE",
"784 1403 OFFCURVE",
"557 1403 CURVE SMOOTH"
);
},
{
closed = 1;
nodes = (
"1292 735 OFFCURVE",
"1167 560 OFFCURVE",
"1167 353 CURVE SMOOTH",
"1167 143 OFFCURVE",
"1289 -31 OFFCURVE",
"1502 -31 CURVE SMOOTH",
"1714 -31 OFFCURVE",
"1837 146 OFFCURVE",
"1837 353 CURVE SMOOTH",
"1837 546 OFFCURVE",
"1729 735 OFFCURVE",
"1502 735 CURVE SMOOTH"
);
},
{
closed = 1;
nodes = (
"1650 632 OFFCURVE",
"1701 489 OFFCURVE",
"1701 353 CURVE SMOOTH",
"1701 216 OFFCURVE",
"1650 73 OFFCURVE",
"1502 73 CURVE SMOOTH",
"1353 73 OFFCURVE",
"1303 216 OFFCURVE",
"1303 353 CURVE SMOOTH",
"1303 489 OFFCURVE",
"1353 632 OFFCURVE",
"1502 632 CURVE SMOOTH"
);
}
);
width = 2060;
},
{
layerId = "FB5FCFFA-D9F2-48E1-8F42-8D172ED4E960";
name = Bold;
paths = (
{
closed = 1;
nodes = (
"661 -62 CURVE SMOOTH",
"701 -62 OFFCURVE",
"728 -13 OFFCURVE",
"752 30 CURVE SMOOTH",
"1453 1313 LINE",
"1469 1345 OFFCURVE",
"1490 1381 OFFCURVE",
"1490 1409 CURVE SMOOTH",
"1490 1448 OFFCURVE",
"1455 1482 OFFCURVE",
"1417 1482 CURVE SMOOTH",
"1390 1482 OFFCURVE",
"1366 1469 OFFCURVE",
"1348 1436 CURVE SMOOTH",
"619 100 LINE",
"603 73 OFFCURVE",
"582 33 OFFCURVE",
"582 13 CURVE SMOOTH",
"582 -27 OFFCURVE",
"618 -62 OFFCURVE"
);
},
{
closed = 1;
nodes = (
"516 761 CURVE SMOOTH",
"415 761 OFFCURVE",
"377 846 OFFCURVE",
"377 1025 CURVE SMOOTH",
"377 1204 OFFCURVE",
"419 1288 OFFCURVE",
"516 1288 CURVE SMOOTH",
"616 1288 OFFCURVE",
"656 1204 OFFCURVE",
"656 1025 CURVE SMOOTH",
"656 845 OFFCURVE",
"616 761 OFFCURVE"
);
},
{
closed = 1;
nodes = (
"516 592 CURVE SMOOTH",
"740 592 OFFCURVE",
"893 764 OFFCURVE",
"893 1025 CURVE SMOOTH",
"893 1212 OFFCURVE",
"817 1457 OFFCURVE",
"516 1457 CURVE SMOOTH",
"285 1457 OFFCURVE",
"140 1278 OFFCURVE",
"140 1025 CURVE SMOOTH",
"140 741 OFFCURVE",
"283 592 OFFCURVE"
);
},
{
closed = 1;
nodes = (
"1592 135 CURVE SMOOTH",
"1489 135 OFFCURVE",
"1453 221 OFFCURVE",
"1453 398 CURVE SMOOTH",
"1453 577 OFFCURVE",
"1492 662 OFFCURVE",
"1592 662 CURVE SMOOTH",
"1695 662 OFFCURVE",
"1731 570 OFFCURVE",
"1731 398 CURVE SMOOTH",
"1731 210 OFFCURVE",
"1684 135 OFFCURVE"
);
},
{
closed = 1;
nodes = (
"1592 -35 CURVE SMOOTH",
"1824 -35 OFFCURVE",
"1968 145 OFFCURVE",
"1968 398 CURVE SMOOTH",
"1968 582 OFFCURVE",
"1895 831 OFFCURVE",
"1592 831 CURVE SMOOTH",
"1361 831 OFFCURVE",
"1216 653 OFFCURVE",
"1216 398 CURVE SMOOTH",
"1216 115 OFFCURVE",
"1358 -35 OFFCURVE"
);
}
);
width = 2109;
}
);
unicode = 0025;
},
{
glyphname = ampersand;
lastChange = "2013-12-30 03:19:54 -0800";
layers = (
{
layerId = "F10CBA7B-FAF3-4DDE-A14D-E99DB7E222CB";
name = Light;
paths = (
{
closed = 1;
nodes = (
"448 1510 OFFCURVE",
"274 1420 OFFCURVE",
"274 1232 CURVE SMOOTH",
"274 1088 OFFCURVE",
"377 969 OFFCURVE",
"473 865 CURVE",
"287 765 OFFCURVE",
"104 634 OFFCURVE",
"104 406 CURVE SMOOTH",
"104 131 OFFCURVE",
"325 -29 OFFCURVE",
"656 -29 CURVE SMOOTH",
"848 -29 OFFCURVE",
"990 49 OFFCURVE",
"1111 186 CURVE",
"1260 22 LINE",
"1278 1 OFFCURVE",
"1299 -8 OFFCURVE",
"1319 -8 CURVE SMOOTH",
"1363 -8 OFFCURVE",
"1408 35 OFFCURVE",
"1408 81 CURVE SMOOTH",
"1408 101 OFFCURVE",
"1399 114 OFFCURVE",
"1382 134 CURVE",
"1223 306 LINE",
"1346 513 OFFCURVE",
"1387 752 OFFCURVE",
"1387 853 CURVE SMOOTH",
"1387 901 OFFCURVE",
"1347 927 OFFCURVE",
"1308 927 CURVE SMOOTH",
"1272 927 OFFCURVE",
"1238 906 OFFCURVE",
"1234 860 CURVE",
"1231 712 OFFCURVE",
"1176 546 OFFCURVE",
"1115 415 CURVE",
"707 849 LINE",
"844 951 OFFCURVE",
"979 1067 OFFCURVE",
"979 1239 CURVE SMOOTH",
"979 1426 OFFCURVE",
"865 1508 OFFCURVE",
"654 1509 CURVE SMOOTH"
);
},
{
closed = 1;
nodes = (
"1017 286 LINE",
"911 177 OFFCURVE",
"802 110 OFFCURVE",
"647 110 CURVE SMOOTH",
"458 110 OFFCURVE",
"282 228 OFFCURVE",
"282 431 CURVE SMOOTH",
"282 553 OFFCURVE",
"402 665 OFFCURVE",
"576 758 CURVE"
);
},
{
closed = 1;
nodes = (
"718 1373 OFFCURVE",
"806 1327 OFFCURVE",
"806 1230 CURVE SMOOTH",
"806 1110 OFFCURVE",
"691 1027 OFFCURVE",
"606 948 CURVE",
"536 1021 OFFCURVE",
"449 1131 OFFCURVE",
"449 1230 CURVE SMOOTH",
"449 1333 OFFCURVE",
"537 1373 OFFCURVE",
"630 1373 CURVE SMOOTH"
);
}
);
width = 1513;
},
{
layerId = "FB5FCFFA-D9F2-48E1-8F42-8D172ED4E960";
name = Bold;
paths = (
{
closed = 1;
nodes = (
"624 -25 CURVE SMOOTH",
"849 -25 OFFCURVE",
"974 54 OFFCURVE",
"1069 144 CURVE",
"1203 8 LINE SMOOTH",
"1224 -13 OFFCURVE",
"1249 -22 OFFCURVE",
"1275 -22 CURVE SMOOTH",
"1355 -22 OFFCURVE",
"1451 64 OFFCURVE",
"1451 139 CURVE SMOOTH",
"1451 153 OFFCURVE",
"1447 178 OFFCURVE",
"1427 198 CURVE SMOOTH",
"1300 329 LINE",
"1396 479 OFFCURVE",
"1436 736 OFFCURVE",
"1445 863 CURVE SMOOTH",
"1450 932 OFFCURVE",
"1379 978 OFFCURVE",
"1311 978 CURVE SMOOTH",
"1260 978 OFFCURVE",
"1189 967 OFFCURVE",
"1173 906 CURVE",
"1162 778 OFFCURVE",
"1153 652 OFFCURVE",
"1092 537 CURVE",
"825 820 LINE",
"977 927 OFFCURVE",
"1062 1062 OFFCURVE",
"1062 1224 CURVE SMOOTH",
"1062 1420 OFFCURVE",
"855 1510 OFFCURVE",
"655 1510 CURVE SMOOTH",
"454 1510 OFFCURVE",
"212 1415 OFFCURVE",
"212 1213 CURVE SMOOTH",
"212 1071 OFFCURVE",
"277 972 OFFCURVE",
"384 868 CURVE",
"185 757 OFFCURVE",
"49 638 OFFCURVE",
"49 407 CURVE SMOOTH",
"49 123 OFFCURVE",
"299 -25 OFFCURVE"
);
},
{
closed = 1;
nodes = (
"649 225 CURVE SMOOTH",
"518 225 OFFCURVE",
"387 285 OFFCURVE",
"387 434 CURVE SMOOTH",
"387 541 OFFCURVE",
"471 601 OFFCURVE",
"571 654 CURVE",
"884 313 LINE",
"857 272 OFFCURVE",
"755 225 OFFCURVE"
);
},
{
closed = 1;
nodes = (
"636 1010 CURVE",
"573 1068 OFFCURVE",
"508 1153 OFFCURVE",
"508 1225 CURVE SMOOTH",
"508 1305 OFFCURVE",
"578 1337 OFFCURVE",
"651 1337 CURVE SMOOTH",
"721 1337 OFFCURVE",
"790 1301 OFFCURVE",
"790 1225 CURVE SMOOTH",
"790 1140 OFFCURVE",
"707 1073 OFFCURVE"
);
}
);
width = 1581;
}
);
unicode = 0026;
},
{
glyphname = parenleft;
lastChange = "2013-12-30 03:19:54 -0800";
layers = (
{
layerId = "F10CBA7B-FAF3-4DDE-A14D-E99DB7E222CB";
name = Light;
paths = (
{
closed = 1;
nodes = (
"400 1493 OFFCURVE",
"375 1479 OFFCURVE",
"362 1447 CURVE SMOOTH",
"253 1185 OFFCURVE",
"155 911 OFFCURVE",
"155 633 CURVE SMOOTH",
"155 356 OFFCURVE",
"252 85 OFFCURVE",
"362 -174 CURVE",
"377 -207 OFFCURVE",
"400 -220 OFFCURVE",
"424 -220 CURVE SMOOTH",
"456 -220 OFFCURVE",
"486 -196 OFFCURVE",
"486 -161 CURVE SMOOTH",
"486 -150 OFFCURVE",
"484 -141 OFFCURVE",
"481 -134 CURVE SMOOTH",
"385 126 OFFCURVE",
"328 386 OFFCURVE",
"328 634 CURVE SMOOTH",
"328 883 OFFCURVE",
"386 1146 OFFCURVE",
"482 1406 CURVE SMOOTH",
"486 1415 OFFCURVE",
"487 1424 OFFCURVE",
"487 1432 CURVE SMOOTH",
"487 1468 OFFCURVE",
"456 1493 OFFCURVE",
"424 1493 CURVE SMOOTH"
);
}
);
width = 592;
},
{
layerId = "FB5FCFFA-D9F2-48E1-8F42-8D172ED4E960";
name = Bold;
paths = (
{
closed = 1;
nodes = (
"464 -259 CURVE SMOOTH",
"532 -259 OFFCURVE",
"583 -209 OFFCURVE",
"583 -134 CURVE SMOOTH",
"583 -106 OFFCURVE",
"572 -75 OFFCURVE",
"562 -42 CURVE",
"490 178 OFFCURVE",
"452 389 OFFCURVE",
"452 604 CURVE SMOOTH",
"452 828 OFFCURVE",
"493 1050 OFFCURVE",
"567 1274 CURVE SMOOTH",
"577 1305 OFFCURVE",
"587 1337 OFFCURVE",
"587 1365 CURVE SMOOTH",
"587 1442 OFFCURVE",
"533 1490 OFFCURVE",
"466 1490 CURVE SMOOTH",
"396 1490 OFFCURVE",
"340 1417 OFFCURVE",
"306 1322 CURVE",
"213 1077 OFFCURVE",
"149 841 OFFCURVE",
"149 601 CURVE SMOOTH",
"149 344 OFFCURVE",
"223 93 OFFCURVE",
"336 -172 CURVE",
"362 -238 OFFCURVE",
"419 -259 OFFCURVE"
);
}
);
width = 689;
}
);
unicode = 0028;
},
{
glyphname = parenright;
lastChange = "2013-12-30 03:19:54 -0800";
layers = (
{
layerId = "F10CBA7B-FAF3-4DDE-A14D-E99DB7E222CB";
name = Light;
paths = (
{
closed = 1;
nodes = (
"138 1492 OFFCURVE",
"106 1467 OFFCURVE",
"106 1432 CURVE SMOOTH",
"106 1423 OFFCURVE",
"108 1415 OFFCURVE",
"112 1406 CURVE SMOOTH",
"208 1145 OFFCURVE",
"266 883 OFFCURVE",
"266 634 CURVE SMOOTH",
"266 386 OFFCURVE",
"209 126 OFFCURVE",
"113 -134 CURVE SMOOTH",
"109 -144 OFFCURVE",
"107 -153 OFFCURVE",
"107 -161 CURVE SMOOTH",
"107 -196 OFFCURVE",
"137 -220 OFFCURVE",
"169 -220 CURVE SMOOTH",
"193 -220 OFFCURVE",
"217 -207 OFFCURVE",
"232 -174 CURVE",
"342 85 OFFCURVE",
"439 356 OFFCURVE",
"439 633 CURVE SMOOTH",
"439 911 OFFCURVE",
"341 1185 OFFCURVE",
"232 1447 CURVE",
"217 1479 OFFCURVE",
"194 1492 OFFCURVE",
"170 1492 CURVE SMOOTH"
);
}
);
width = 592;
},
{
layerId = "FB5FCFFA-D9F2-48E1-8F42-8D172ED4E960";
name = Bold;
paths = (
{
closed = 1;
nodes = (
"228 -260 CURVE SMOOTH",
"273 -260 OFFCURVE",
"333 -239 OFFCURVE",
"360 -172 CURVE",
"472 89 OFFCURVE",
"548 341 OFFCURVE",
"548 600 CURVE SMOOTH",
"548 836 OFFCURVE",
"483 1076 OFFCURVE",
"390 1322 CURVE SMOOTH",
"354 1417 OFFCURVE",
"301 1490 OFFCURVE",
"232 1490 CURVE SMOOTH",
"164 1490 OFFCURVE",
"110 1436 OFFCURVE",
"110 1366 CURVE SMOOTH",
"110 1334 OFFCURVE",
"120 1305 OFFCURVE",
"130 1274 CURVE SMOOTH",
"204 1049 OFFCURVE",
"245 826 OFFCURVE",
"245 606 CURVE SMOOTH",
"245 387 OFFCURVE",
"207 170 OFFCURVE",
"135 -43 CURVE SMOOTH",
"124 -75 OFFCURVE",
"113 -107 OFFCURVE",
"113 -136 CURVE SMOOTH",
"113 -209 OFFCURVE",
"161 -260 OFFCURVE"
);
}
);
width = 689;
}
);
unicode = 0029;
},
{
glyphname = asterisk;
lastChange = "2013-12-30 03:19:54 -0800";
layers = (
{
layerId = "F10CBA7B-FAF3-4DDE-A14D-E99DB7E222CB";
name = Light;
paths = (
{
closed = 1;
nodes = (
"551 1189 LINE",
"432 1405 LINE SMOOTH",
"386 1485 OFFCURVE",
"282 1409 OFFCURVE",
"322 1343 CURVE SMOOTH",
"448 1139 LINE",
"207 1148 LINE SMOOTH",
"121 1148 OFFCURVE",
"122 1025 OFFCURVE",
"207 1025 CURVE SMOOTH",
"451 1034 LINE",
"324 830 LINE SMOOTH",
"284 767 OFFCURVE",
"388 688 OFFCURVE",
"434 768 CURVE SMOOTH",
"551 979 LINE",
"669 768 LINE SMOOTH",
"713 687 OFFCURVE",
"814 765 OFFCURVE",
"778 830 CURVE SMOOTH",
"652 1034 LINE",
"898 1025 LINE SMOOTH",
"984 1025 OFFCURVE",
"984 1148 OFFCURVE",
"898 1148 CURVE SMOOTH",
"654 1139 LINE",
"781 1343 LINE",
"816 1406 OFFCURVE",
"725 1488 OFFCURVE",
"670 1405 CURVE SMOOTH"
);
}
);
width = 1105;
},
{
layerId = "FB5FCFFA-D9F2-48E1-8F42-8D172ED4E960";
name = Bold;
paths = (
{
closed = 1;
nodes = (
"403 848 CURVE SMOOTH",
"477 985 LINE",
"553 848 LINE SMOOTH",
"607 751 OFFCURVE",
"745 811 OFFCURVE",
"666 940 CURVE SMOOTH",
"599 1049 LINE",
"776 1045 LINE",
"872 1045 OFFCURVE",
"872 1188 OFFCURVE",
"776 1188 CURVE",
"600 1183 LINE",
"679 1313 LINE SMOOTH",
"741 1412 OFFCURVE",
"612 1490 OFFCURVE",
"554 1384 CURVE SMOOTH",
"477 1243 LINE",
"396 1394 LINE SMOOTH",
"349 1481 OFFCURVE",
"213 1417 OFFCURVE",
"282 1303 CURVE SMOOTH",
"355 1183 LINE",
"182 1188 LINE",
"85 1188 OFFCURVE",
"86 1045 OFFCURVE",
"182 1045 CURVE",
"357 1049 LINE",
"278 920 LINE SMOOTH",
"215 817 OFFCURVE",
"345 741 OFFCURVE"
);
}
);
width = 958;
}
);
unicode = 002A;
},
{
glyphname = plus;
lastChange = "2013-12-30 03:19:54 -0800";
layers = (
{
layerId = "F10CBA7B-FAF3-4DDE-A14D-E99DB7E222CB";
name = Light;
paths = (
{
closed = 1;
nodes = (
"630 992 OFFCURVE",
"600 963 OFFCURVE",
"600 924 CURVE SMOOTH",
"600 563 LINE",
"227 563 LINE SMOOTH",
"188 563 OFFCURVE",
"157 535 OFFCURVE",
"157 496 CURVE SMOOTH",
"157 460 OFFCURVE",
"188 429 OFFCURVE",
"227 429 CURVE SMOOTH",
"600 429 LINE",
"600 71 LINE SMOOTH",
"600 32 OFFCURVE",
"630 4 OFFCURVE",
"670 4 CURVE SMOOTH",
"707 4 OFFCURVE",
"739 34 OFFCURVE",
"739 71 CURVE SMOOTH",
"739 429 LINE",
"1113 429 LINE SMOOTH",
"1152 429 OFFCURVE",
"1183 460 OFFCURVE",
"1183 496 CURVE SMOOTH",
"1183 535 OFFCURVE",
"1152 563 OFFCURVE",
"1113 563 CURVE SMOOTH",
"739 563 LINE",
"739 924 LINE SMOOTH",
"739 963 OFFCURVE",
"707 992 OFFCURVE",
"670 992 CURVE SMOOTH"
);
}
);
width = 1340;
},
{
layerId = "FB5FCFFA-D9F2-48E1-8F42-8D172ED4E960";
name = Bold;
paths = (
{
closed = 1;
nodes = (
"643 2 CURVE SMOOTH",
"727 2 OFFCURVE",
"746 77 OFFCURVE",
"746 134 CURVE SMOOTH",
"746 405 LINE",
"1026 405 LINE SMOOTH",
"1095 405 OFFCURVE",
"1159 434 OFFCURVE",
"1159 507 CURVE SMOOTH",
"1159 588 OFFCURVE",
"1082 608 OFFCURVE",
"1026 608 CURVE SMOOTH",
"746 608 LINE",
"746 880 LINE SMOOTH",
"746 948 OFFCURVE",
"718 1013 OFFCURVE",
"643 1013 CURVE SMOOTH",
"557 1013 OFFCURVE",
"540 936 OFFCURVE",
"540 880 CURVE SMOOTH",
"540 608 LINE",
"261 608 LINE SMOOTH",
"187 608 OFFCURVE",
"128 576 OFFCURVE",
"128 507 CURVE SMOOTH",
"128 424 OFFCURVE",
"202 405 OFFCURVE",
"261 405 CURVE SMOOTH",
"540 405 LINE",
"540 134 LINE SMOOTH",
"540 57 OFFCURVE",
"571 2 OFFCURVE"
);
}
);
width = 1287;
}
);
unicode = 002B;
},
{
glyphname = comma;
lastChange = "2013-12-30 03:19:54 -0800";
layers = (
{
layerId = "F10CBA7B-FAF3-4DDE-A14D-E99DB7E222CB";
name = Light;
paths = (
{
closed = 1;
nodes = (
"290 229 LINE",
"258 228 OFFCURVE",
"225 220 OFFCURVE",
"217 173 CURVE SMOOTH",
"133 -297 LINE SMOOTH",
"131 -309 OFFCURVE",
"129 -339 OFFCURVE",
"157 -340 CURVE",
"199 -340 LINE",
"228 -341 OFFCURVE",
"244 -329 OFFCURVE",
"255 -297 CURVE SMOOTH",
"416 173 LINE SMOOTH",
"421 187 OFFCURVE",
"424 226 OFFCURVE",
"382 229 CURVE"
);
}
);
width = 584;
},
{
layerId = "FB5FCFFA-D9F2-48E1-8F42-8D172ED4E960";
name = Bold;
paths = (
{
closed = 1;
nodes = (
"137 -303 CURVE",
"259 -303 LINE",
"288 -304 OFFCURVE",
"303 -292 OFFCURVE",
"315 -260 CURVE SMOOTH",
"496 243 LINE SMOOTH",
"501 257 OFFCURVE",
"504 296 OFFCURVE",
"462 299 CURVE",
"270 299 LINE",
"238 298 OFFCURVE",
"205 290 OFFCURVE",
"197 243 CURVE SMOOTH",
"113 -260 LINE SMOOTH",
"111 -272 OFFCURVE",
"109 -302 OFFCURVE"
);
}
);
width = 649;
}
);
unicode = 002C;
userData = {
anchors = (
);
b = {
};
com.typemytype.robofont.layerData = {
b = {
anchors = (
);
components = (
);
contours = (
);
lib = {
};
name = comma;
unicodes = (
);
width = 584;
};
};
components = (
);
contours = (
);
lib = {
};
name = comma;
unicodes = (
);
width = 615;
};
},
{
glyphname = hyphen;
lastChange = "2013-12-30 03:19:54 -0800";
layers = (
{
anchors = (
{
name = _mid;
position = "{343, 523}";
}
);
layerId = "F10CBA7B-FAF3-4DDE-A14D-E99DB7E222CB";
name = Light;
paths = (
{
closed = 1;
nodes = (
"114 588 LINE SMOOTH",
"69 588 OFFCURVE",
"40 564 OFFCURVE",
"40 526 CURVE SMOOTH",
"40 490 OFFCURVE",
"69 467 OFFCURVE",
"114 467 CURVE SMOOTH",
"583 467 LINE SMOOTH",
"628 467 OFFCURVE",
"656 490 OFFCURVE",
"656 526 CURVE SMOOTH",
"656 564 OFFCURVE",
"628 588 OFFCURVE",
"583 588 CURVE SMOOTH"
);
}
);
width = 696;
},
{
anchors = (
{
name = _mid;
position = "{393, 533}";
}
);
layerId = "FB5FCFFA-D9F2-48E1-8F42-8D172ED4E960";
name = Bold;
paths = (
{
closed = 1;
nodes = (
"148 427 CURVE SMOOTH",
"622 427 LINE SMOOTH",
"705 427 OFFCURVE",
"757 469 OFFCURVE",
"757 536 CURVE SMOOTH",
"757 604 OFFCURVE",
"705 646 OFFCURVE",
"622 646 CURVE SMOOTH",
"171 646 LINE SMOOTH",
"88 646 OFFCURVE",
"36 604 OFFCURVE",
"36 536 CURVE SMOOTH",
"36 469 OFFCURVE",
"79 427 OFFCURVE"
);
}
);
width = 793;
}
);
unicode = 002D;
},
{
glyphname = period;
lastChange = "2013-12-30 03:19:54 -0800";
layers = (
{
layerId = "F10CBA7B-FAF3-4DDE-A14D-E99DB7E222CB";
name = Light;
paths = (
{
closed = 1;
nodes = (
"223 194 OFFCURVE",
"184 145 OFFCURVE",
"184 97 CURVE SMOOTH",
"184 47 OFFCURVE",
"223 -1 OFFCURVE",
"292 -1 CURVE SMOOTH",
"360 -1 OFFCURVE",
"399 47 OFFCURVE",
"399 97 CURVE SMOOTH",
"399 145 OFFCURVE",
"360 194 OFFCURVE",
"292 194 CURVE SMOOTH"
);
}
);
width = 584;
},
{
layerId = "FB5FCFFA-D9F2-48E1-8F42-8D172ED4E960";
name = Bold;
paths = (
{
closed = 1;
nodes = (
"324 -6 CURVE SMOOTH",
"420 -6 OFFCURVE",
"493 69 OFFCURVE",
"493 158 CURVE SMOOTH",
"493 256 OFFCURVE",
"412 322 OFFCURVE",
"324 322 CURVE SMOOTH",
"225 322 OFFCURVE",
"155 245 OFFCURVE",
"155 158 CURVE SMOOTH",
"155 65 OFFCURVE",
"232 -6 OFFCURVE"
);
}
);
width = 649;
}
);
unicode = 002E;
},
{
glyphname = slash;
lastChange = "2013-12-30 03:19:54 -0800";
layers = (
{
layerId = "F10CBA7B-FAF3-4DDE-A14D-E99DB7E222CB";
name = Light;
paths = (
{
closed = 1;
nodes = (
"583 1430 OFFCURVE",
"555 1415 OFFCURVE",
"544 1380 CURVE SMOOTH",
"61 -83 LINE SMOOTH",
"58 -94 OFFCURVE",
"56 -103 OFFCURVE",
"56 -110 CURVE SMOOTH",
"56 -151 OFFCURVE",
"90 -175 OFFCURVE",
"125 -175 CURVE SMOOTH",
"153 -175 OFFCURVE",
"180 -160 OFFCURVE",
"192 -125 CURVE SMOOTH",
"679 1337 LINE SMOOTH",
"682 1348 OFFCURVE",
"684 1358 OFFCURVE",
"684 1365 CURVE SMOOTH",
"684 1406 OFFCURVE",
"649 1430 OFFCURVE",
"613 1430 CURVE SMOOTH"
);
}
);
width = 740;
},
{
layerId = "FB5FCFFA-D9F2-48E1-8F42-8D172ED4E960";
name = Bold;
paths = (
{
closed = 1;
nodes = (
"167 -108 CURVE SMOOTH",
"204 -108 OFFCURVE",
"244 -91 OFFCURVE",
"261 -40 CURVE SMOOTH",
"706 1279 LINE",
"717 1308 OFFCURVE",
"729 1343 OFFCURVE",
"729 1370 CURVE SMOOTH",
"729 1437 OFFCURVE",
"679 1469 OFFCURVE",
"626 1469 CURVE SMOOTH",
"565 1469 OFFCURVE",
"533 1411 OFFCURVE",
"511 1344 CURVE",
"87 81 LINE",
"76 48 OFFCURVE",
"62 12 OFFCURVE",
"62 -15 CURVE SMOOTH",
"62 -75 OFFCURVE",
"119 -108 OFFCURVE"
);
}
);
width = 791;
}
);
unicode = 002F;
},
{
glyphname = zero;
lastChange = "2013-12-30 03:19:54 -0800";
layers = (
{
layerId = "F10CBA7B-FAF3-4DDE-A14D-E99DB7E222CB";
name = Light;
paths = (
{
closed = 1;
nodes = (
"198 1438 OFFCURVE",
"93 1105 OFFCURVE",
"93 705 CURVE SMOOTH",
"93 326 OFFCURVE",
"192 -22 OFFCURVE",
"584 -22 CURVE SMOOTH",
"977 -22 OFFCURVE",
"1075 329 OFFCURVE",
"1075 705 CURVE SMOOTH",
"1075 1103 OFFCURVE",
"971 1438 OFFCURVE",
"584 1438 CURVE SMOOTH"
);
},
{
closed = 1;
nodes = (
"858 1296 OFFCURVE",
"892 966 OFFCURVE",
"892 705 CURVE SMOOTH",
"892 464 OFFCURVE",
"861 120 OFFCURVE",
"584 120 CURVE SMOOTH",
"309 120 OFFCURVE",
"278 461 OFFCURVE",
"278 705 CURVE SMOOTH",
"278 969 OFFCURVE",
"312 1296 OFFCURVE",
"584 1296 CURVE SMOOTH"
);
}
);
width = 1169;
},
{
layerId = "FB5FCFFA-D9F2-48E1-8F42-8D172ED4E960";
name = Bold;
paths = (
{
closed = 1;
nodes = (
"649 212 CURVE SMOOTH",
"465 212 OFFCURVE",
"430 414 OFFCURVE",
"430 711 CURVE SMOOTH",
"430 1007 OFFCURVE",
"465 1212 OFFCURVE",
"649 1212 CURVE SMOOTH",
"833 1212 OFFCURVE",
"869 1004 OFFCURVE",
"869 711 CURVE SMOOTH",
"869 411 OFFCURVE",
"830 212 OFFCURVE"
);
},
{
closed = 1;
nodes = (
"649 -35 CURVE SMOOTH",
"1077 -35 OFFCURVE",
"1226 304 OFFCURVE",
"1226 711 CURVE SMOOTH",
"1226 1124 OFFCURVE",
"1070 1457 OFFCURVE",
"649 1457 CURVE SMOOTH",
"214 1457 OFFCURVE",
"72 1111 OFFCURVE",
"72 711 CURVE SMOOTH",
"72 299 OFFCURVE",
"222 -35 OFFCURVE"
);
}
);
width = 1299;
}
);
unicode = 0030;
},
{
glyphname = one;
lastChange = "2013-12-30 03:19:54 -0800";
layers = (
{
layerId = "F10CBA7B-FAF3-4DDE-A14D-E99DB7E222CB";
name = Light;
paths = (
{
closed = 1;
nodes = (
"639 1426 OFFCURVE",
"619 1421 OFFCURVE",
"605 1412 CURVE SMOOTH",
"269 1199 LINE",
"248 1184 OFFCURVE",
"239 1167 OFFCURVE",
"239 1148 CURVE SMOOTH",
"239 1113 OFFCURVE",
"269 1081 OFFCURVE",
"306 1081 CURVE SMOOTH",
"318 1081 OFFCURVE",
"330 1085 OFFCURVE",
"341 1092 CURVE SMOOTH",
"563 1236 LINE",
"563 83 LINE SMOOTH",
"563 27 OFFCURVE",
"607 0 OFFCURVE",
"650 0 CURVE SMOOTH",
"695 0 OFFCURVE",
"739 27 OFFCURVE",
"739 83 CURVE SMOOTH",
"739 1340 LINE SMOOTH",
"739 1399 OFFCURVE",
"698 1426 OFFCURVE",
"655 1426 CURVE SMOOTH"
);
}
);
width = 1160;
},
{
layerId = "FB5FCFFA-D9F2-48E1-8F42-8D172ED4E960";
name = Bold;
paths = (
{
closed = 1;
nodes = (
"724 1 CURVE SMOOTH",
"868 1 OFFCURVE",
"905 110 OFFCURVE",
"905 241 CURVE SMOOTH",
"905 1208 LINE SMOOTH",
"905 1367 OFFCURVE",
"852 1454 OFFCURVE",
"733 1454 CURVE SMOOTH",
"685 1454 OFFCURVE",
"644 1432 OFFCURVE",
"605 1409 CURVE SMOOTH",
"273 1220 LINE",
"217 1185 OFFCURVE",
"192 1154 OFFCURVE",
"192 1106 CURVE SMOOTH",
"192 1042 OFFCURVE",
"243 982 OFFCURVE",
"312 982 CURVE SMOOTH",
"332 982 OFFCURVE",
"353 988 OFFCURVE",
"374 999 CURVE",
"546 1104 LINE",
"546 264 LINE SMOOTH",
"546 89 OFFCURVE",
"599 1 OFFCURVE"
);
}
);
width = 1299;
}
);
unicode = 0031;
userData = {
com.typemytype.robofont.layerData = {
b = {
anchors = (
);
components = (
);
contours = (
);
lib = {
};
name = one;
unicodes = (
);
width = 1160;
};
};
};
},
{
glyphname = two;
lastChange = "2013-12-30 03:19:54 -0800";
layers = (
{
layerId = "F10CBA7B-FAF3-4DDE-A14D-E99DB7E222CB";
name = Light;
paths = (
{
closed = 1;
nodes = (
"402 1438 OFFCURVE",
"299 1380 OFFCURVE",
"194 1315 CURVE SMOOTH",
"114 1266 OFFCURVE",
"188 1157 OFFCURVE",
"258 1194 CURVE SMOOTH",
"335 1235 OFFCURVE",
"394 1298 OFFCURVE",
"592 1298 CURVE SMOOTH",
"742 1298 OFFCURVE",
"867 1191 OFFCURVE",
"867 1021 CURVE SMOOTH",
"867 919 OFFCURVE",
"814 828 OFFCURVE",
"701 713 CURVE SMOOTH",
"180 183 LINE SMOOTH",
"88 90 OFFCURVE",
"148 0 OFFCURVE",
"263 0 CURVE SMOOTH",
"944 0 LINE SMOOTH",
"995 0 OFFCURVE",
"1020 33 OFFCURVE",
"1020 67 CURVE SMOOTH",
"1020 101 OFFCURVE",
"994 134 OFFCURVE",
"944 134 CURVE SMOOTH",
"327 134 LINE",
"795 599 LINE SMOOTH",
"966 760 OFFCURVE",
"1031 886 OFFCURVE",
"1031 1039 CURVE SMOOTH",
"1031 1258 OFFCURVE",
"849 1438 OFFCURVE",
"604 1438 CURVE SMOOTH"
);
}
);
width = 1160;
},
{
layerId = "FB5FCFFA-D9F2-48E1-8F42-8D172ED4E960";
name = Bold;
paths = (
{
closed = 1;
nodes = (
"263 0 CURVE SMOOTH",
"995 0 LINE SMOOTH",
"1058 0 OFFCURVE",
"1090 67 OFFCURVE",
"1090 132 CURVE SMOOTH",
"1090 197 OFFCURVE",
"1059 260 OFFCURVE",
"995 260 CURVE SMOOTH",
"483 260 LINE",
"876 587 LINE SMOOTH",
"1044 727 OFFCURVE",
"1117 886 OFFCURVE",
"1117 1029 CURVE SMOOTH",
"1117 1256 OFFCURVE",
"933 1443 OFFCURVE",
"651 1452 CURVE SMOOTH",
"477 1457 OFFCURVE",
"322 1401 OFFCURVE",
"193 1328 CURVE SMOOTH",
"37.5852 1240.16 OFFCURVE",
"205.982 1039.99 OFFCURVE",
"300 1087 CURVE SMOOTH",
"389 1134 OFFCURVE",
"460 1192 OFFCURVE",
"592 1192 CURVE SMOOTH",
"697 1192 OFFCURVE",
"788 1120 OFFCURVE",
"788 1017 CURVE SMOOTH",
"788 959 OFFCURVE",
"759 891 OFFCURVE",
"687 820 CURVE SMOOTH",
"172 314 LINE SMOOTH",
"64.6667 206.667 OFFCURVE",
"93.7857 0 OFFCURVE"
);
}
);
width = 1299;
}
);
unicode = 0032;
userData = {
com.typemytype.robofont.layerData = {
b = {
anchors = (
);
components = (
);
contours = (
);
lib = {
};
name = two;
unicodes = (
);
width = 1160;
};
};
};
},
{
glyphname = three;
lastChange = "2013-12-30 03:19:54 -0800";
layers = (
{
layerId = "F10CBA7B-FAF3-4DDE-A14D-E99DB7E222CB";
name = Light;
paths = (
{
closed = 1;
nodes = (
"388 1438 OFFCURVE",
"225 1377 OFFCURVE",
"185 1356 CURVE SMOOTH",
"114 1318 OFFCURVE",
"174 1194 OFFCURVE",
"242 1224 CURVE SMOOTH",
"281 1241 OFFCURVE",
"380 1296 OFFCURVE",
"542 1296 CURVE SMOOTH",
"691 1296 OFFCURVE",
"818 1211 OFFCURVE",
"818 1055 CURVE SMOOTH",
"818 882 OFFCURVE",
"690 797 OFFCURVE",
"501 797 CURVE SMOOTH",
"441 797 LINE SMOOTH",
"397 797 OFFCURVE",
"374 764 OFFCURVE",
"374 729 CURVE SMOOTH",
"374 694 OFFCURVE",
"397 665 OFFCURVE",
"441 665 CURVE SMOOTH",
"509 665 LINE SMOOTH",
"707 665 OFFCURVE",
"857 553 OFFCURVE",
"857 367 CURVE SMOOTH",
"857 211 OFFCURVE",
"723 120 OFFCURVE",
"546 120 CURVE SMOOTH",
"429 120 OFFCURVE",
"332 157 OFFCURVE",
"268 187 CURVE SMOOTH",
"190 216 OFFCURVE",
"128 101 OFFCURVE",
"228 50 CURVE",
"314 4 OFFCURVE",
"441 -22 OFFCURVE",
"549 -22 CURVE SMOOTH",
"793 -22 OFFCURVE",
"1032 94 OFFCURVE",
"1032 372 CURVE SMOOTH",
"1032 561 OFFCURVE",
"915 701 OFFCURVE",
"746 738 CURVE",
"884 777 OFFCURVE",
"996 885 OFFCURVE",
"996 1053 CURVE SMOOTH",
"996 1319 OFFCURVE",
"791 1438 OFFCURVE",
"538 1438 CURVE SMOOTH"
);
}
);
width = 1160;
},
{
layerId = "FB5FCFFA-D9F2-48E1-8F42-8D172ED4E960";
name = Bold;
paths = (
{
closed = 1;
nodes = (
"625 -20 CURVE SMOOTH",
"939 -20 OFFCURVE",
"1188 105 OFFCURVE",
"1188 397 CURVE SMOOTH",
"1188 582 OFFCURVE",
"1087 720 OFFCURVE",
"902 749 CURVE",
"902 894.598 OFFCURVE",
"1157 914 OFFCURVE",
"1157 1078 CURVE SMOOTH",
"1157 1314 OFFCURVE",
"961 1473 OFFCURVE",
"614 1473 CURVE SMOOTH",
"464 1473 OFFCURVE",
"353 1454 OFFCURVE",
"279 1421 CURVE SMOOTH",
"118.912 1350.82 OFFCURVE",
"159.132 1168 OFFCURVE",
"297 1168 CURVE SMOOTH",
"373 1168 OFFCURVE",
"514 1209 OFFCURVE",
"581 1208 CURVE",
"705 1208 OFFCURVE",
"808 1151 OFFCURVE",
"808 1035 CURVE SMOOTH",
"808 906 OFFCURVE",
"701 847 OFFCURVE",
"566 847 CURVE SMOOTH",
"492 847 LINE SMOOTH",
"421 847 OFFCURVE",
"384 790 OFFCURVE",
"384 734 CURVE SMOOTH",
"384 674 OFFCURVE",
"423 624 OFFCURVE",
"492 624 CURVE SMOOTH",
"563 624 LINE SMOOTH",
"731 624 OFFCURVE",
"827 550 OFFCURVE",
"827 421 CURVE SMOOTH",
"827 290 OFFCURVE",
"722 243 OFFCURVE",
"587 243 CURVE SMOOTH",
"478 243 OFFCURVE",
"366 282 OFFCURVE",
"309 298 CURVE",
"130.385 298 OFFCURVE",
"138.859 99.4219 OFFCURVE",
"286 45 CURVE SMOOTH",
"394 5 OFFCURVE",
"525 -20 OFFCURVE"
);
}
);
width = 1299;
}
);
unicode = 0033;
userData = {
com.typemytype.robofont.layerData = {
b = {
anchors = (
);
components = (
);
contours = (
);
lib = {
};
name = three;
unicodes = (
);
width = 1160;
};
};
};
},
{
glyphname = four;
lastChange = "2013-12-30 03:19:54 -0800";
layers = (
{
layerId = "F10CBA7B-FAF3-4DDE-A14D-E99DB7E222CB";
name = Light;
paths = (
{
closed = 1;
nodes = (
"741 1426 OFFCURVE",
"691 1401 OFFCURVE",
"655 1345 CURVE SMOOTH",
"94 474 LINE SMOOTH",
"46 400 OFFCURVE",
"89 316 OFFCURVE",
"171 316 CURVE SMOOTH",
"748 316 LINE",
"748 80 LINE SMOOTH",
"748 27 OFFCURVE",
"793 0 OFFCURVE",
"835 0 CURVE SMOOTH",
"877 0 OFFCURVE",
"920 27 OFFCURVE",
"920 80 CURVE SMOOTH",
"920 316 LINE",
"1075 316 LINE SMOOTH",
"1119 316 OFFCURVE",
"1141 349 OFFCURVE",
"1141 382 CURVE SMOOTH",
"1141 415 OFFCURVE",
"1119 448 OFFCURVE",
"1075 448 CURVE SMOOTH",
"921 448 LINE",
"921 1303 LINE SMOOTH",
"921 1389 OFFCURVE",
"862 1426 OFFCURVE",
"797 1426 CURVE SMOOTH"
);
},
{
closed = 1;
nodes = (
"748 448 LINE",
"245 448 LINE",
"748 1244 LINE"
);
}
);
width = 1160;
},
{
layerId = "FB5FCFFA-D9F2-48E1-8F42-8D172ED4E960";
name = Bold;
paths = (
{
closed = 1;
nodes = (
"853 -8 CURVE SMOOTH",
"981 -8 OFFCURVE",
"1025 69 OFFCURVE",
"1025 185 CURVE SMOOTH",
"1025 305 LINE",
"1116 305 LINE SMOOTH",
"1219 305 OFFCURVE",
"1262 347 OFFCURVE",
"1262 428 CURVE SMOOTH",
"1262 521 OFFCURVE",
"1198 551 OFFCURVE",
"1116 551 CURVE SMOOTH",
"1026 551 LINE",
"1026 1182 LINE SMOOTH",
"1026 1396 OFFCURVE",
"933 1450 OFFCURVE",
"758 1450 CURVE SMOOTH",
"623 1450 OFFCURVE",
"535 1393 OFFCURVE",
"486 1301 CURVE SMOOTH",
"75 524 LINE SMOOTH",
"3.88889 386.222 OFFCURVE",
"76.9355 305 OFFCURVE",
"215 305 CURVE SMOOTH",
"686 305 LINE",
"686 181 LINE SMOOTH",
"686 59 OFFCURVE",
"736 -8 OFFCURVE"
);
},
{
closed = 1;
nodes = (
"371 551 LINE",
"686 1196 LINE",
"686 551 LINE"
);
}
);
width = 1299;
}
);
unicode = 0034;
userData = {
com.typemytype.robofont.layerData = {
b = {
anchors = (
);
components = (
);
contours = (
);
lib = {
};
name = four;
unicodes = (
);
width = 1160;
};
};
};
},
{
glyphname = five;
lastChange = "2013-12-30 03:19:54 -0800";
layers = (
{
layerId = "F10CBA7B-FAF3-4DDE-A14D-E99DB7E222CB";
name = Light;
paths = (
{
closed = 1;
nodes = (
"268 1410 LINE SMOOTH",
"212 1410 OFFCURVE",
"185 1379 OFFCURVE",
"185 1332 CURVE SMOOTH",
"185 665 LINE SMOOTH",
"185 614 OFFCURVE",
"305 582 OFFCURVE",
"330 617 CURVE SMOOTH",
"390 701 OFFCURVE",
"516 757 OFFCURVE",
"625 757 CURVE SMOOTH",
"798 757 OFFCURVE",
"911 627 OFFCURVE",
"911 442 CURVE SMOOTH",
"911 245 OFFCURVE",
"809 120 OFFCURVE",
"598 120 CURVE SMOOTH",
"458 120 OFFCURVE",
"351 178 OFFCURVE",
"276 247 CURVE SMOOTH",
"223 296 OFFCURVE",
"125 194 OFFCURVE",
"184 141 CURVE SMOOTH",
"307 30 OFFCURVE",
"431 -22 OFFCURVE",
"603 -22 CURVE SMOOTH",
"888 -22 OFFCURVE",
"1080 159 OFFCURVE",
"1080 438 CURVE SMOOTH",
"1080 701 OFFCURVE",
"917 894 OFFCURVE",
"643 894 CURVE SMOOTH",
"424 894 OFFCURVE",
"324 766 OFFCURVE",
"324 766 CURVE",
"326 1277 LINE",
"926 1277 LINE SMOOTH",
"973 1277 OFFCURVE",
"995 1307 OFFCURVE",
"995 1343 CURVE SMOOTH",
"995 1378 OFFCURVE",
"973 1410 OFFCURVE",
"926 1410 CURVE SMOOTH"
);
}
);
width = 1160;
},
{
layerId = "FB5FCFFA-D9F2-48E1-8F42-8D172ED4E960";
name = Bold;
paths = (
{
closed = 1;
nodes = (
"631 -26 CURVE SMOOTH",
"952 -26 OFFCURVE",
"1193 154 OFFCURVE",
"1193 457 CURVE SMOOTH",
"1193 760 OFFCURVE",
"1007 917 OFFCURVE",
"754 917 CURVE SMOOTH",
"610 917 OFFCURVE",
"496 852 OFFCURVE",
"496 852 CURVE",
"506 1213 LINE",
"966 1213 LINE SMOOTH",
"1059 1213 OFFCURVE",
"1112 1250 OFFCURVE",
"1112 1333 CURVE SMOOTH",
"1112 1417 OFFCURVE",
"1054 1453 OFFCURVE",
"985 1453 CURVE SMOOTH",
"430 1453 LINE SMOOTH",
"275 1453 OFFCURVE",
"208 1426 OFFCURVE",
"208 1288 CURVE SMOOTH",
"208 752 LINE SMOOTH",
"208 600 OFFCURVE",
"341 560 OFFCURVE",
"415 616 CURVE SMOOTH",
"477 662 OFFCURVE",
"549 684 OFFCURVE",
"615 684 CURVE SMOOTH",
"734 684 OFFCURVE",
"848 604 OFFCURVE",
"848 442 CURVE SMOOTH",
"848 284 OFFCURVE",
"759 218 OFFCURVE",
"626 218 CURVE SMOOTH",
"517 218 OFFCURVE",
"427 266 OFFCURVE",
"355 325 CURVE SMOOTH",
"244 416 OFFCURVE",
"93 236 OFFCURVE",
"210 133 CURVE SMOOTH",
"290 62 OFFCURVE",
"430 -26 OFFCURVE"
);
}
);
width = 1299;
}
);
unicode = 0035;
userData = {
com.typemytype.robofont.layerData = {
b = {
anchors = (
);
components = (
);
contours = (
);
lib = {
};
name = five;
unicodes = (
);
width = 1160;
};
};
};
},
{
glyphname = six;
lastChange = "2013-12-30 03:19:54 -0800";
layers = (
{
layerId = "F10CBA7B-FAF3-4DDE-A14D-E99DB7E222CB";
name = Light;
paths = (
{
closed = 1;
nodes = (
"152 1438 OFFCURVE",
"92 959 OFFCURVE",
"92 623 CURVE SMOOTH",
"92 294 OFFCURVE",
"203 -22 OFFCURVE",
"604 -22 CURVE SMOOTH",
"895 -22 OFFCURVE",
"1073 182 OFFCURVE",
"1073 449 CURVE SMOOTH",
"1073 714 OFFCURVE",
"907 902 OFFCURVE",
"629 903 CURVE SMOOTH",
"434 904 OFFCURVE",
"300 779 OFFCURVE",
"274 673 CURVE",
"274 1028 OFFCURVE",
"328 1296 OFFCURVE",
"659 1296 CURVE SMOOTH",
"732 1296 OFFCURVE",
"820 1278 OFFCURVE",
"910 1235 CURVE SMOOTH",
"985 1199 OFFCURVE",
"1039 1327 OFFCURVE",
"968 1363 CURVE SMOOTH",
"880 1407 OFFCURVE",
"773 1438 OFFCURVE",
"662 1438 CURVE SMOOTH"
);
},
{
closed = 1;
nodes = (
"814 777 OFFCURVE",
"901 624 OFFCURVE",
"901 448 CURVE SMOOTH",
"901 259 OFFCURVE",
"798 117 OFFCURVE",
"594 117 CURVE SMOOTH",
"386 117 OFFCURVE",
"289 278 OFFCURVE",
"289 446 CURVE SMOOTH",
"289 641 OFFCURVE",
"404 777 OFFCURVE",
"615 777 CURVE SMOOTH"
);
}
);
width = 1160;
},
{
layerId = "FB5FCFFA-D9F2-48E1-8F42-8D172ED4E960";
name = Bold;
paths = (
{
closed = 1;
nodes = (
"671 -22 CURVE SMOOTH",
"1010 -22 OFFCURVE",
"1215 190 OFFCURVE",
"1215 479 CURVE SMOOTH",
"1215 770 OFFCURVE",
"976 935 OFFCURVE",
"739 935 CURVE SMOOTH",
"512 935 OFFCURVE",
"449 838 OFFCURVE",
"419 793 CURVE",
"419 1059 OFFCURVE",
"515 1233 OFFCURVE",
"753 1233 CURVE SMOOTH",
"829 1233 OFFCURVE",
"903 1213 OFFCURVE",
"983 1190 CURVE SMOOTH",
"1115 1152 OFFCURVE",
"1174 1374 OFFCURVE",
"1060 1420 CURVE",
"961 1467 OFFCURVE",
"845 1489 OFFCURVE",
"748 1489 CURVE SMOOTH",
"245 1489 OFFCURVE",
"80 1111 OFFCURVE",
"80 669 CURVE SMOOTH",
"80 266 OFFCURVE",
"251 -22 OFFCURVE"
);
},
{
closed = 1;
nodes = (
"662 211 CURVE SMOOTH",
"530 211 OFFCURVE",
"445 310 OFFCURVE",
"445 465 CURVE SMOOTH",
"445 634 OFFCURVE",
"522 732 OFFCURVE",
"675 732 CURVE SMOOTH",
"810 732 OFFCURVE",
"886 626 OFFCURVE",
"886 469 CURVE SMOOTH",
"886 302 OFFCURVE",
"797 211 OFFCURVE"
);
}
);
width = 1299;
}
);
unicode = 0036;
userData = {
com.typemytype.robofont.layerData = {
b = {
anchors = (
);
components = (
);
contours = (
);
lib = {
};
name = nine;
unicodes = (
);
width = 1160;
};
};
};
},
{
glyphname = seven;
lastChange = "2013-12-30 03:19:54 -0800";
layers = (
{
layerId = "F10CBA7B-FAF3-4DDE-A14D-E99DB7E222CB";
name = Light;
paths = (
{
closed = 1;
nodes = (
"165 1415 LINE SMOOTH",
"116 1415 OFFCURVE",
"92 1380 OFFCURVE",
"92 1344 CURVE SMOOTH",
"92 1308 OFFCURVE",
"116 1274 OFFCURVE",
"165 1274 CURVE SMOOTH",
"841 1274 LINE",
"340 119 LINE SMOOTH",
"334 106 OFFCURVE",
"331 94 OFFCURVE",
"331 83 CURVE SMOOTH",
"331 34 OFFCURVE",
"374 0 OFFCURVE",
"421 0 CURVE SMOOTH",
"452 0 OFFCURVE",
"482 14 OFFCURVE",
"497 49 CURVE SMOOTH",
"1016 1256 LINE",
"1027 1279 OFFCURVE",
"1031 1307 OFFCURVE",
"1031 1330 CURVE SMOOTH",
"1031 1381 OFFCURVE",
"995 1415 OFFCURVE",
"930 1415 CURVE SMOOTH"
);
}
);
width = 1160;
},
{
layerId = "FB5FCFFA-D9F2-48E1-8F42-8D172ED4E960";
name = Bold;
paths = (
{
closed = 1;
nodes = (
"521 0 CURVE SMOOTH",
"584 0 OFFCURVE",
"642 33 OFFCURVE",
"677 102 CURVE",
"1099 1057 LINE SMOOTH",
"1139 1148 OFFCURVE",
"1177 1241 OFFCURVE",
"1177 1312 CURVE SMOOTH",
"1177 1429 OFFCURVE",
"1085 1453 OFFCURVE",
"949 1453 CURVE SMOOTH",
"264 1453 LINE SMOOTH",
"145 1453 OFFCURVE",
"97 1401 OFFCURVE",
"97 1314 CURVE SMOOTH",
"97 1221 OFFCURVE",
"159 1181 OFFCURVE",
"263 1181 CURVE SMOOTH",
"792 1181 LINE",
"400 321 LINE SMOOTH",
"374 264 OFFCURVE",
"347 206 OFFCURVE",
"348 157 CURVE",
"348 65 OFFCURVE",
"431 0 OFFCURVE"
);
}
);
width = 1299;
}
);
unicode = 0037;
userData = {
com.typemytype.robofont.layerData = {
b = {
anchors = (
);
components = (
);
contours = (
);
lib = {
};
name = seven;
unicodes = (
);
width = 1160;
};
};
};
},
{
glyphname = eight;
lastChange = "2013-12-30 03:19:54 -0800";
layers = (
{
layerId = "F10CBA7B-FAF3-4DDE-A14D-E99DB7E222CB";
name = Light;
paths = (
{
closed = 1;
nodes = (
"335 1438 OFFCURVE",
"123 1316 OFFCURVE",
"123 1064 CURVE SMOOTH",
"123 907 OFFCURVE",
"201 778 OFFCURVE",
"388 735 CURVE",
"200 697 OFFCURVE",
"101 551 OFFCURVE",
"101 377 CURVE SMOOTH",
"101 113 OFFCURVE",
"316 -22 OFFCURVE",
"580 -22 CURVE SMOOTH",
"844 -22 OFFCURVE",
"1060 113 OFFCURVE",
"1060 377 CURVE SMOOTH",
"1060 557 OFFCURVE",
"966 682 OFFCURVE",
"775 735 CURVE",
"949 777 OFFCURVE",
"1038 896 OFFCURVE",
"1038 1064 CURVE SMOOTH",
"1038 1316 OFFCURVE",
"828 1438 OFFCURVE",
"580 1438 CURVE SMOOTH"
);
},
{
closed = 1;
nodes = (
"746 656 OFFCURVE",
"884 561 OFFCURVE",
"884 375 CURVE SMOOTH",
"884 194 OFFCURVE",
"746 112 OFFCURVE",
"580 112 CURVE SMOOTH",
"416 112 OFFCURVE",
"276 194 OFFCURVE",
"276 375 CURVE SMOOTH",
"276 561 OFFCURVE",
"414 656 OFFCURVE",
"580 656 CURVE SMOOTH"
);
},
{
closed = 1;
nodes = (
"730 1310 OFFCURVE",
"872 1240 OFFCURVE",
"872 1065 CURVE SMOOTH",
"872 902 OFFCURVE",
"758 818 OFFCURVE",
"580 818 CURVE SMOOTH",
"404 818 OFFCURVE",
"289 902 OFFCURVE",
"289 1065 CURVE SMOOTH",
"289 1240 OFFCURVE",
"432 1310 OFFCURVE",
"580 1310 CURVE SMOOTH"
);
}
);
width = 1160;
},
{
layerId = "FB5FCFFA-D9F2-48E1-8F42-8D172ED4E960";
name = Bold;
paths = (
{
closed = 1;
nodes = (
"648 -25 CURVE SMOOTH",
"1005 -25 OFFCURVE",
"1187 145 OFFCURVE",
"1187 388 CURVE SMOOTH",
"1187 579 OFFCURVE",
"1088 696 OFFCURVE",
"916 743 CURVE",
"1060 778 OFFCURVE",
"1161 883 OFFCURVE",
"1161 1060 CURVE SMOOTH",
"1161 1323 OFFCURVE",
"974 1467 OFFCURVE",
"648 1467 CURVE SMOOTH",
"314 1467 OFFCURVE",
"140 1312 OFFCURVE",
"140 1060 CURVE SMOOTH",
"140 884 OFFCURVE",
"239 767 OFFCURVE",
"382 743 CURVE",
"211 703 OFFCURVE",
"112 558 OFFCURVE",
"112 388 CURVE SMOOTH",
"112 149 OFFCURVE",
"274 -25 OFFCURVE"
);
},
{
closed = 1;
nodes = (
"650 854 CURVE SMOOTH",
"526 854 OFFCURVE",
"469 912 OFFCURVE",
"469 1046 CURVE SMOOTH",
"469 1183 OFFCURVE",
"538 1239 OFFCURVE",
"650 1239 CURVE SMOOTH",
"761 1239 OFFCURVE",
"831 1184 OFFCURVE",
"831 1046 CURVE SMOOTH",
"831 911 OFFCURVE",
"775 854 OFFCURVE"
);
},
{
closed = 1;
nodes = (
"650 209 CURVE SMOOTH",
"523 209 OFFCURVE",
"453 272 OFFCURVE",
"453 420 CURVE SMOOTH",
"453 570 OFFCURVE",
"528 632 OFFCURVE",
"650 632 CURVE SMOOTH",
"778 632 OFFCURVE",
"846 562 OFFCURVE",
"846 420 CURVE SMOOTH",
"846 264 OFFCURVE",
"762 209 OFFCURVE"
);
}
);
width = 1299;
}
);
unicode = 0038;
userData = {
com.typemytype.robofont.layerData = {
b = {
anchors = (
);
components = (
);
contours = (
);
lib = {
};
name = eight;
unicodes = (
);
width = 1160;
};
};
};
},
{
glyphname = nine;
lastChange = "2013-12-30 03:19:54 -0800";
layers = (
{
layerId = "F10CBA7B-FAF3-4DDE-A14D-E99DB7E222CB";
name = Light;
paths = (
{
closed = 1;
nodes = (
"267 1438 OFFCURVE",
"89 1234 OFFCURVE",
"89 967 CURVE SMOOTH",
"89 702 OFFCURVE",
"255 514 OFFCURVE",
"533 513 CURVE SMOOTH",
"728 512 OFFCURVE",
"862 637 OFFCURVE",
"888 743 CURVE",
"888 388 OFFCURVE",
"834 120 OFFCURVE",
"503 120 CURVE SMOOTH",
"430 120 OFFCURVE",
"342 138 OFFCURVE",
"252 181 CURVE SMOOTH",
"177 217 OFFCURVE",
"123 89 OFFCURVE",
"194 53 CURVE SMOOTH",
"282 9 OFFCURVE",
"389 -22 OFFCURVE",
"500 -22 CURVE SMOOTH",
"1010 -22 OFFCURVE",
"1070 457 OFFCURVE",
"1070 793 CURVE SMOOTH",
"1070 1122 OFFCURVE",
"959 1438 OFFCURVE",
"558 1438 CURVE SMOOTH"
);
},
{
closed = 1;
nodes = (
"776 1299 OFFCURVE",
"873 1138 OFFCURVE",
"873 970 CURVE SMOOTH",
"873 775 OFFCURVE",
"758 639 OFFCURVE",
"547 639 CURVE SMOOTH",
"348 639 OFFCURVE",
"261 792 OFFCURVE",
"261 968 CURVE SMOOTH",
"261 1157 OFFCURVE",
"364 1299 OFFCURVE",
"568 1299 CURVE SMOOTH"
);
}
);
width = 1160;
},
{
layerId = "FB5FCFFA-D9F2-48E1-8F42-8D172ED4E960";
name = Bold;
paths = (
{
closed = 1;
nodes = (
"548 -33 CURVE SMOOTH",
"1051 -33 OFFCURVE",
"1216 345 OFFCURVE",
"1216 787 CURVE SMOOTH",
"1216 1190 OFFCURVE",
"1045 1478 OFFCURVE",
"625 1478 CURVE SMOOTH",
"286 1478 OFFCURVE",
"81 1266 OFFCURVE",
"81 977 CURVE SMOOTH",
"81 686 OFFCURVE",
"320 521 OFFCURVE",
"557 521 CURVE SMOOTH",
"784 521 OFFCURVE",
"847 618 OFFCURVE",
"877 663 CURVE",
"877 397 OFFCURVE",
"781 223 OFFCURVE",
"543 223 CURVE SMOOTH",
"467 223 OFFCURVE",
"393 243 OFFCURVE",
"313 266 CURVE SMOOTH",
"181 304 OFFCURVE",
"122 82 OFFCURVE",
"236 36 CURVE",
"335 -11 OFFCURVE",
"451 -33 OFFCURVE"
);
},
{
closed = 1;
nodes = (
"621 724 CURVE SMOOTH",
"486 724 OFFCURVE",
"410 830 OFFCURVE",
"410 987 CURVE SMOOTH",
"410 1154 OFFCURVE",
"499 1245 OFFCURVE",
"634 1245 CURVE SMOOTH",
"766 1245 OFFCURVE",
"851 1146 OFFCURVE",
"851 991 CURVE SMOOTH",
"851 822 OFFCURVE",
"774 724 OFFCURVE"
);
}
);
width = 1299;
}
);
unicode = 0039;
userData = {
com.typemytype.robofont.layerData = {
b = {
anchors = (
);
components = (
);
contours = (
);
lib = {
};
name = nine;
unicodes = (
);
width = 1160;
};
};
};
},
{
glyphname = colon;
lastChange = "2013-12-30 03:19:54 -0800";
layers = (
{
layerId = "F10CBA7B-FAF3-4DDE-A14D-E99DB7E222CB";
name = Light;
paths = (
{
closed = 1;
nodes = (
"223 1000 OFFCURVE",
"184 952 OFFCURVE",
"184 902 CURVE SMOOTH",
"184 851 OFFCURVE",
"223 805 OFFCURVE",
"292 805 CURVE SMOOTH",
"360 805 OFFCURVE",
"399 851 OFFCURVE",
"399 902 CURVE SMOOTH",
"399 952 OFFCURVE",
"360 1000 OFFCURVE",
"292 1000 CURVE SMOOTH"
);
},
{
closed = 1;
nodes = (
"223 194 OFFCURVE",
"184 145 OFFCURVE",
"184 97 CURVE SMOOTH",
"184 47 OFFCURVE",
"223 -1 OFFCURVE",
"292 -1 CURVE SMOOTH",
"360 -1 OFFCURVE",
"399 47 OFFCURVE",
"399 97 CURVE SMOOTH",
"399 145 OFFCURVE",
"360 194 OFFCURVE",
"292 194 CURVE SMOOTH"
);
}
);
width = 584;
},
{
layerId = "FB5FCFFA-D9F2-48E1-8F42-8D172ED4E960";
name = Bold;
paths = (
{
closed = 1;
nodes = (
"324 -6 CURVE SMOOTH",
"420 -6 OFFCURVE",
"493 69 OFFCURVE",
"493 158 CURVE SMOOTH",
"493 256 OFFCURVE",
"412 322 OFFCURVE",
"324 322 CURVE SMOOTH",
"225 322 OFFCURVE",
"155 245 OFFCURVE",
"155 158 CURVE SMOOTH",
"155 65 OFFCURVE",
"232 -6 OFFCURVE"
);
},
{
closed = 1;
nodes = (
"324 726 CURVE SMOOTH",
"423 726 OFFCURVE",
"493 801 OFFCURVE",
"493 889 CURVE SMOOTH",
"493 985 OFFCURVE",
"413 1053 OFFCURVE",
"324 1053 CURVE SMOOTH",
"225 1053 OFFCURVE",
"155 976 OFFCURVE",
"155 889 CURVE SMOOTH",
"155 790 OFFCURVE",
"233 726 OFFCURVE"
);
}
);
width = 649;
}
);
unicode = 003A;
},
{
glyphname = semicolon;
lastChange = "2013-12-30 03:19:54 -0800";
layers = (
{
components = (
{
name = comma;
transform = "{1, 0, 0, 1, 6, 117}";
}
);
layerId = "F10CBA7B-FAF3-4DDE-A14D-E99DB7E222CB";
name = Light;
paths = (
{
closed = 1;
nodes = (
"248 1020 OFFCURVE",
"210 973 OFFCURVE",
"210 924 CURVE SMOOTH",
"210 873 OFFCURVE",
"248 825 OFFCURVE",
"317 825 CURVE SMOOTH",
"386 825 OFFCURVE",
"425 873 OFFCURVE",
"425 924 CURVE SMOOTH",
"425 973 OFFCURVE",
"386 1020 OFFCURVE",
"317 1020 CURVE SMOOTH"
);
}
);
width = 584;
},
{
components = (
{
name = comma;
transform = "{1, 0, 0, 1, 22, 88}";
}
);
layerId = "FB5FCFFA-D9F2-48E1-8F42-8D172ED4E960";
name = Bold;
paths = (
{
closed = 1;
nodes = (
"361 736 CURVE SMOOTH",
"460 736 OFFCURVE",
"530 810 OFFCURVE",
"530 901 CURVE SMOOTH",
"530 996 OFFCURVE",
"450 1064 OFFCURVE",
"361 1064 CURVE SMOOTH",
"261 1064 OFFCURVE",
"191 986 OFFCURVE",
"191 901 CURVE SMOOTH",
"191 802 OFFCURVE",
"271 736 OFFCURVE"
);
}
);
width = 649;
}
);
unicode = 003B;
},
{
glyphname = less;
lastChange = "2013-12-30 03:19:54 -0800";
layers = (
{
layerId = "F10CBA7B-FAF3-4DDE-A14D-E99DB7E222CB";
name = Light;
paths = (
{
closed = 1;
nodes = (
"204 560 LINE SMOOTH",
"137 531 OFFCURVE",
"145 455 OFFCURVE",
"203 429 CURVE SMOOTH",
"1095 32 LINE SMOOTH",
"1154 6 OFFCURVE",
"1194 115 OFFCURVE",
"1142 138 CURVE SMOOTH",
"338 495 LINE",
"1139 833 LINE SMOOTH",
"1210 863 OFFCURVE",
"1149 963 OFFCURVE",
"1091 938 CURVE SMOOTH"
);
}
);
width = 1340;
},
{
layerId = "FB5FCFFA-D9F2-48E1-8F42-8D172ED4E960";
name = Bold;
paths = (
{
closed = 1;
nodes = (
"981 25 LINE SMOOTH",
"1060 -8 OFFCURVE",
"1146 199 OFFCURVE",
"1052 238 CURVE SMOOTH",
"410 506 LINE",
"1050 764 LINE SMOOTH",
"1170 812 OFFCURVE",
"1057 1013 OFFCURVE",
"978 981 CURVE SMOOTH",
"212 666 LINE SMOOTH",
"44 597 OFFCURVE",
"71 410 OFFCURVE",
"186 361 CURVE SMOOTH"
);
}
);
width = 1287;
}
);
unicode = 003C;
userData = {
com.typemytype.robofont.layerData = {
b = {
anchors = (
);
components = (
);
contours = (
);
lib = {
};
name = less;
unicodes = (
);
width = 1340;
};
};
};
},
{
glyphname = equal;
lastChange = "2013-12-30 03:19:54 -0800";
layers = (
{
layerId = "F10CBA7B-FAF3-4DDE-A14D-E99DB7E222CB";
name = Light;
paths = (
{
closed = 1;
nodes = (
"227 760 LINE SMOOTH",
"188 760 OFFCURVE",
"157 731 OFFCURVE",
"157 692 CURVE SMOOTH",
"157 656 OFFCURVE",
"188 625 OFFCURVE",
"227 625 CURVE SMOOTH",
"1113 625 LINE SMOOTH",
"1152 625 OFFCURVE",
"1182 656 OFFCURVE",
"1182 692 CURVE SMOOTH",
"1182 731 OFFCURVE",
"1152 760 OFFCURVE",
"1113 760 CURVE SMOOTH"
);
},
{
closed = 1;
nodes = (
"227 367 LINE SMOOTH",
"188 367 OFFCURVE",
"157 338 OFFCURVE",
"157 299 CURVE SMOOTH",
"157 263 OFFCURVE",
"188 233 OFFCURVE",
"227 233 CURVE SMOOTH",
"1113 233 LINE SMOOTH",
"1152 233 OFFCURVE",
"1182 263 OFFCURVE",
"1182 299 CURVE SMOOTH",
"1182 338 OFFCURVE",
"1152 367 OFFCURVE",
"1113 367 CURVE SMOOTH"
);
}
);
width = 1340;
},
{
layerId = "FB5FCFFA-D9F2-48E1-8F42-8D172ED4E960";
name = Bold;
paths = (
{
closed = 1;
nodes = (
"231 184 CURVE SMOOTH",
"1017 184 LINE SMOOTH",
"1087 184 OFFCURVE",
"1158 205 OFFCURVE",
"1158 284 CURVE SMOOTH",
"1158 365 OFFCURVE",
"1087 387 OFFCURVE",
"1036 387 CURVE SMOOTH",
"269 387 LINE SMOOTH",
"197 387 OFFCURVE",
"128 362 OFFCURVE",
"128 284 CURVE SMOOTH",
"128 224 OFFCURVE",
"178 184 OFFCURVE"
);
},
{
closed = 1;
nodes = (
"231 627 CURVE SMOOTH",
"1016 627 LINE SMOOTH",
"1088 627 OFFCURVE",
"1158 651 OFFCURVE",
"1158 728 CURVE SMOOTH",
"1158 813 OFFCURVE",
"1080 831 OFFCURVE",
"1016 831 CURVE SMOOTH",
"271 831 LINE SMOOTH",
"197 831 OFFCURVE",
"128 806 OFFCURVE",
"128 728 CURVE SMOOTH",
"128 669 OFFCURVE",
"176 627 OFFCURVE"
);
}
);
width = 1287;
}
);
unicode = 003D;
},
{
glyphname = greater;
lastChange = "2013-12-30 03:19:54 -0800";
layers = (
{
layerId = "F10CBA7B-FAF3-4DDE-A14D-E99DB7E222CB";
name = Light;
paths = (
{
closed = 1;
nodes = (
"179 963 OFFCURVE",
"118 863 OFFCURVE",
"189 833 CURVE SMOOTH",
"990 495 LINE",
"186 138 LINE SMOOTH",
"134 115 OFFCURVE",
"174 6 OFFCURVE",
"233 32 CURVE SMOOTH",
"1125 429 LINE SMOOTH",
"1183 455 OFFCURVE",
"1191 531 OFFCURVE",
"1124 560 CURVE SMOOTH",
"237 938 LINE SMOOTH"
);
}
);
width = 1340;
},
{
layerId = "FB5FCFFA-D9F2-48E1-8F42-8D172ED4E960";
name = Bold;
paths = (
{
closed = 1;
nodes = (
"214 25 CURVE SMOOTH",
"1009 361 LINE SMOOTH",
"1124 410 OFFCURVE",
"1151 597 OFFCURVE",
"983 666 CURVE SMOOTH",
"217 981 LINE SMOOTH",
"138 1013 OFFCURVE",
"25 812 OFFCURVE",
"145 764 CURVE SMOOTH",
"785 506 LINE",
"143 238 LINE SMOOTH",
"49 199 OFFCURVE",
"135 -8 OFFCURVE"
);
}
);
width = 1287;
}
);
unicode = 003E;
userData = {
com.typemytype.robofont.layerData = {
b = {
anchors = (
);
components = (
);
contours = (
);
lib = {
};
name = less;
unicodes = (
);
width = 1340;
};
};
};
},
{
glyphname = question;
lastChange = "2013-12-30 03:19:54 -0800";
layers = (
{
layerId = "F10CBA7B-FAF3-4DDE-A14D-E99DB7E222CB";
name = Light;
paths = (
{
closed = 1;
nodes = (
"396 1438 OFFCURVE",
"297 1422 OFFCURVE",
"205 1398 CURVE SMOOTH",
"161 1387 OFFCURVE",
"143 1355 OFFCURVE",
"143 1324 CURVE SMOOTH",
"143 1287 OFFCURVE",
"167 1250 OFFCURVE",
"207 1250 CURVE SMOOTH",
"247 1250 OFFCURVE",
"405 1287 OFFCURVE",
"448 1287 CURVE SMOOTH",
"581 1287 OFFCURVE",
"711 1255 OFFCURVE",
"711 1076 CURVE SMOOTH",
"711 830 OFFCURVE",
"350 771 OFFCURVE",
"342 571 CURVE SMOOTH",
"341 440 LINE SMOOTH",
"341 347 OFFCURVE",
"497 343 OFFCURVE",
"497 434 CURVE",
"496 544 LINE",
"496 705 OFFCURVE",
"889 795 OFFCURVE",
"889 1088 CURVE SMOOTH",
"889 1341 OFFCURVE",
"706 1438 OFFCURVE",
"488 1438 CURVE SMOOTH"
);
},
{
closed = 1;
nodes = (
"355 184 OFFCURVE",
"317 137 OFFCURVE",
"317 88 CURVE SMOOTH",
"317 37 OFFCURVE",
"355 -11 OFFCURVE",
"424 -11 CURVE SMOOTH",
"493 -11 OFFCURVE",
"532 37 OFFCURVE",
"532 88 CURVE SMOOTH",
"532 137 OFFCURVE",
"493 184 OFFCURVE",
"424 184 CURVE SMOOTH"
);
}
);
width = 1032;
},
{
layerId = "FB5FCFFA-D9F2-48E1-8F42-8D172ED4E960";
name = Bold;
paths = (
{
closed = 1;
nodes = (
"285 492 LINE SMOOTH",
"289 322 OFFCURVE",
"575 338 OFFCURVE",
"573 496 CURVE SMOOTH",
"572 597 LINE SMOOTH",
"571 716 OFFCURVE",
"969 742 OFFCURVE",
"969 1084 CURVE SMOOTH",
"969 1367 OFFCURVE",
"750 1486 OFFCURVE",
"490 1486 CURVE SMOOTH",
"389 1486 OFFCURVE",
"275 1475 OFFCURVE",
"171 1444 CURVE SMOOTH",
"100 1423 OFFCURVE",
"69 1371 OFFCURVE",
"69 1322 CURVE SMOOTH",
"69 1245 OFFCURVE",
"118 1194 OFFCURVE",
"186 1194 CURVE SMOOTH",
"240 1194 OFFCURVE",
"309 1213 OFFCURVE",
"412 1213 CURVE SMOOTH",
"507 1213 OFFCURVE",
"596 1172 OFFCURVE",
"596 1056 CURVE SMOOTH",
"596 862 OFFCURVE",
"282 791 OFFCURVE",
"282 636 CURVE SMOOTH"
);
},
{
closed = 1;
nodes = (
"429 -58 CURVE SMOOTH",
"525 -58 OFFCURVE",
"598 16 OFFCURVE",
"598 107 CURVE SMOOTH",
"598 203 OFFCURVE",
"517 270 OFFCURVE",
"429 270 CURVE SMOOTH",
"328 270 OFFCURVE",
"260 192 OFFCURVE",
"260 107 CURVE SMOOTH",
"260 16 OFFCURVE",
"333 -58 OFFCURVE"
);
}
);
width = 1064;
}
);
unicode = 003F;
},
{
glyphname = at;
lastChange = "2013-12-30 03:19:54 -0800";
layers = (
{
layerId = "F10CBA7B-FAF3-4DDE-A14D-E99DB7E222CB";
name = Light;
paths = (
{
closed = 1;
nodes = (
"491 1512 OFFCURVE",
"58 1235 OFFCURVE",
"58 740 CURVE SMOOTH",
"58 260 OFFCURVE",
"380 -25 OFFCURVE",
"807 -25 CURVE SMOOTH",
"911 -25 OFFCURVE",
"1019 -8 OFFCURVE",
"1130 26 CURVE SMOOTH",
"1154 33 OFFCURVE",
"1165 54 OFFCURVE",
"1165 75 CURVE SMOOTH",
"1165 102 OFFCURVE",
"1148 127 OFFCURVE",
"1113 127 CURVE SMOOTH",
"1104 127 OFFCURVE",
"1095 126 OFFCURVE",
"1087 123 CURVE SMOOTH",
"998 96 OFFCURVE",
"910 82 OFFCURVE",
"825 82 CURVE SMOOTH",
"484 82 OFFCURVE",
"192 299 OFFCURVE",
"192 728 CURVE SMOOTH",
"192 1155 OFFCURVE",
"561 1399 OFFCURVE",
"894 1399 CURVE SMOOTH",
"1169 1399 OFFCURVE",
"1417 1234 OFFCURVE",
"1417 870 CURVE SMOOTH",
"1417 649 OFFCURVE",
"1281 425 OFFCURVE",
"1124 425 CURVE SMOOTH",
"1081 425 OFFCURVE",
"1068 444 OFFCURVE",
"1068 476 CURVE SMOOTH",
"1068 504 OFFCURVE",
"1078 541 OFFCURVE",
"1092 585 CURVE SMOOTH",
"1242 1063 LINE SMOOTH",
"1245 1071 OFFCURVE",
"1246 1079 OFFCURVE",
"1246 1088 CURVE SMOOTH",
"1246 1124 OFFCURVE",
"1216 1143 OFFCURVE",
"1184 1143 CURVE SMOOTH",
"1153 1143 OFFCURVE",
"1119 1126 OFFCURVE",
"1109 1091 CURVE SMOOTH",
"1100 1061 LINE",
"1058 1148 OFFCURVE",
"965 1193 OFFCURVE",
"870 1193 CURVE SMOOTH",
"573 1193 OFFCURVE",
"388 892 OFFCURVE",
"388 621 CURVE SMOOTH",
"388 450 OFFCURVE",
"495 310 OFFCURVE",
"675 310 CURVE SMOOTH",
"764 310 OFFCURVE",
"860 348 OFFCURVE",
"923 413 CURVE",
"947 341 OFFCURVE",
"1022 308 OFFCURVE",
"1094 308 CURVE SMOOTH",
"1306 308 OFFCURVE",
"1549 548 OFFCURVE",
"1549 871 CURVE SMOOTH",
"1549 1310 OFFCURVE",
"1231 1512 OFFCURVE",
"891 1512 CURVE SMOOTH"
);
},
{
closed = 1;
nodes = (
"994 1067 OFFCURVE",
"1060 929 OFFCURVE",
"1060 929 CURVE SMOOTH",
"970 623 LINE SMOOTH",
"935 505 OFFCURVE",
"804 431 OFFCURVE",
"705 431 CURVE SMOOTH",
"606 431 OFFCURVE",
"546 509 OFFCURVE",
"542 608 CURVE SMOOTH",
"534 818 OFFCURVE",
"673 1067 OFFCURVE",
"877 1067 CURVE SMOOTH"
);
}
);
width = 1638;
},
{
layerId = "FB5FCFFA-D9F2-48E1-8F42-8D172ED4E960";
name = Bold;
paths = (
{
closed = 1;
nodes = (
"811 -30 CURVE SMOOTH",
"906 -30 OFFCURVE",
"1000 -16 OFFCURVE",
"1100 9 CURVE SMOOTH",
"1151 22 OFFCURVE",
"1176 41 OFFCURVE",
"1176 84 CURVE SMOOTH",
"1176 123 OFFCURVE",
"1147 158 OFFCURVE",
"1096 158 CURVE SMOOTH",
"1091 158 OFFCURVE",
"1087 158 OFFCURVE",
"1084 157 CURVE SMOOTH",
"988.733 130.537 OFFCURVE",
"904.354 121 OFFCURVE",
"782 121 CURVE",
"474 140 OFFCURVE",
"220 335 OFFCURVE",
"220 713 CURVE SMOOTH",
"220 1112 OFFCURVE",
"557 1362 OFFCURVE",
"895 1362 CURVE SMOOTH",
"1167 1362 OFFCURVE",
"1399 1194 OFFCURVE",
"1399 853 CURVE SMOOTH",
"1399 634 OFFCURVE",
"1276 445 OFFCURVE",
"1155 445 CURVE SMOOTH",
"1123 445 OFFCURVE",
"1114 465 OFFCURVE",
"1114 498 CURVE SMOOTH",
"1114 534 OFFCURVE",
"1132 604 OFFCURVE",
"1153 677 CURVE",
"1236 999 LINE SMOOTH",
"1241 1018 OFFCURVE",
"1251 1041 OFFCURVE",
"1251 1062 CURVE SMOOTH",
"1251 1110 OFFCURVE",
"1213 1135 OFFCURVE",
"1174 1135 CURVE SMOOTH",
"1135 1135 OFFCURVE",
"1102 1115 OFFCURVE",
"1089 1072 CURVE SMOOTH",
"1081 1046 LINE",
"1029 1134 OFFCURVE",
"941 1173 OFFCURVE",
"841 1173 CURVE SMOOTH",
"566 1173 OFFCURVE",
"376 902 OFFCURVE",
"376 646 CURVE SMOOTH",
"376 451 OFFCURVE",
"498 298 OFFCURVE",
"694 298 CURVE SMOOTH",
"798 298 OFFCURVE",
"893 336 OFFCURVE",
"960 409 CURVE",
"985 341 OFFCURVE",
"1052 312 OFFCURVE",
"1120 312 CURVE SMOOTH",
"1365 312 OFFCURVE",
"1572 543 OFFCURVE",
"1572 883 CURVE SMOOTH",
"1572 1319 OFFCURVE",
"1231 1509 OFFCURVE",
"895 1509 CURVE SMOOTH",
"453 1509 OFFCURVE",
"40 1210 OFFCURVE",
"40 721 CURVE SMOOTH",
"40 240 OFFCURVE",
"382 -30 OFFCURVE"
);
},
{
closed = 1;
nodes = (
"734 448 CURVE SMOOTH",
"640 448 OFFCURVE",
"581 526 OFFCURVE",
"581 623 CURVE SMOOTH",
"581 853 OFFCURVE",
"706 1020 OFFCURVE",
"864 1020 CURVE SMOOTH",
"973 1020 OFFCURVE",
"1043 921 OFFCURVE",
"1043 921 CURVE SMOOTH",
"955 582 LINE",
"931 505 OFFCURVE",
"834 448 OFFCURVE"
);
}
);
width = 1638;
}
);
unicode = 0040;
},
{
glyphname = A;
lastChange = "2013-12-30 03:19:54 -0800";
layers = (
{
anchors = (
{
name = ogonek;
position = "{1266, 19}";
},
{
name = top;
position = "{706, 1438}";
}
);
layerId = "F10CBA7B-FAF3-4DDE-A14D-E99DB7E222CB";
name = Light;
paths = (
{
closed = 1;
nodes = (
"640 1433 OFFCURVE",
"594 1414 OFFCURVE",
"548 1299 CURVE SMOOTH",
"66 108 LINE SMOOTH",
"23 3 OFFCURVE",
"184 -57 OFFCURVE",
"228 54 CURVE SMOOTH",
"706 1270 LINE",
"706 1433 LINE"
);
},
{
closed = 1;
nodes = (
"321 505 LINE",
"276 376 LINE",
"1147 376 LINE",
"1096 505 LINE"
);
},
{
closed = 1;
nodes = (
"706 1270 LINE",
"1184 54 LINE SMOOTH",
"1228 -57 OFFCURVE",
"1389 3 OFFCURVE",
"1346 108 CURVE SMOOTH",
"864 1299 LINE SMOOTH",
"818 1414 OFFCURVE",
"772 1433 OFFCURVE",
"706 1433 CURVE"
);
}
);
width = 1414;
},
{
anchors = (
{
name = ogonek;
position = "{1266, 19}";
},
{
name = top;
position = "{744, 1438}";
}
);
layerId = "FB5FCFFA-D9F2-48E1-8F42-8D172ED4E960";
name = Bold;
paths = (
{
closed = 1;
nodes = (
"1105 132 LINE SMOOTH",
"1184 -97 OFFCURVE",
"1505 -1 OFFCURVE",
"1419 232 CURVE SMOOTH",
"1056 1210 LINE SMOOTH",
"975 1428 OFFCURVE",
"870 1472 OFFCURVE",
"746 1472 CURVE",
"746 1169 LINE"
);
},
{
closed = 1;
nodes = (
"302 331 LINE",
"1213 331 LINE",
"1141 537 LINE",
"373 537 LINE"
);
},
{
closed = 1;
nodes = (
"387 132 CURVE SMOOTH",
"746 1169 LINE",
"746 1472 LINE",
"622 1472 OFFCURVE",
"517 1428 OFFCURVE",
"436 1210 CURVE SMOOTH",
"73 232 LINE SMOOTH",
"-13 -1 OFFCURVE",
"308 -97 OFFCURVE"
);
}
);
width = 1505;
}
);
leftKerningGroup = A_Right;
rightKerningGroup = A_Left;
unicode = 0041;
userData = {
anchors = (
);
b = {
};
com.typemytype.robofont.layerData = {
b = {
anchors = (
);
components = (
);
contours = (
{
points = (
{
segmentType = line;
smooth = 0;
x = 403;
y = 502;
},
{
segmentType = line;
smooth = 0;
x = 703;
y = 1275;
},
{
segmentType = line;
smooth = 0;
x = 705;
y = 1275;
},
{
segmentType = line;
smooth = 0;
x = 1004;
y = 502;
}
);
},
{
points = (
{
segmentType = curve;
smooth = 1;
x = 150;
y = 0;
},
{
smooth = 0;
x = 181;
y = 0;
},
{
smooth = 0;
x = 214;
y = 15;
},
{
segmentType = curve;
smooth = 1;
x = 229;
y = 53;
},
{
segmentType = line;
smooth = 0;
x = 356;
y = 373;
},
{
segmentType = line;
smooth = 0;
x = 1051;
y = 373;
},
{
segmentType = line;
smooth = 1;
x = 1179;
y = 53;
},
{
smooth = 0;
x = 1193;
y = 17;
},
{
smooth = 0;
x = 1228;
y = 0;
},
{
segmentType = curve;
smooth = 1;
x = 1260;
y = 0;
},
{
smooth = 0;
x = 1306;
y = 0;
},
{
smooth = 0;
x = 1354;
y = 31;
},
{
segmentType = curve;
smooth = 1;
x = 1354;
y = 80;
},
{
smooth = 0;
x = 1354;
y = 87;
},
{
smooth = 0;
x = 1352;
y = 97;
},
{
segmentType = curve;
smooth = 0;
x = 1349;
y = 108;
},
{
segmentType = line;
smooth = 1;
x = 871;
y = 1288;
},
{
smooth = 0;
x = 817;
y = 1420;
},
{
smooth = 0;
x = 777;
y = 1430;
},
{
segmentType = curve;
smooth = 1;
x = 710;
y = 1430;
},
{
smooth = 0;
x = 644;
y = 1430;
},
{
smooth = 0;
x = 596;
y = 1413;
},
{
segmentType = curve;
smooth = 1;
x = 542;
y = 1280;
},
{
segmentType = line;
smooth = 1;
x = 66;
y = 108;
},
{
smooth = 0;
x = 62;
y = 97;
},
{
smooth = 0;
x = 60;
y = 87;
},
{
segmentType = curve;
smooth = 1;
x = 60;
y = 78;
},
{
smooth = 0;
x = 60;
y = 32;
},
{
smooth = 0;
x = 106;
y = 0;
}
);
}
);
lib = {
};
name = A;
unicodes = (
);
width = 1414;
};
};
components = (
);
contours = {
};
lib = {
};
name = A;
points = {
};
segmentType = line;
unicodes = (
);
width = 1445;
x = 718;
y = 1232;
};
},
{
glyphname = B;
lastChange = "2013-12-30 03:19:54 -0800";
layers = (
{
anchors = (
{
name = top;
position = "{649, 1438}";
}
);
layerId = "F10CBA7B-FAF3-4DDE-A14D-E99DB7E222CB";
name = Light;
paths = (
{
closed = 1;
nodes = (
"266 1426 LINE SMOOTH",
"218 1426 OFFCURVE",
"178 1389 OFFCURVE",
"178 1341 CURVE SMOOTH",
"178 85 LINE SMOOTH",
"178 37 OFFCURVE",
"218 0 OFFCURVE",
"266 0 CURVE SMOOTH",
"732 0 LINE SMOOTH",
"1066 0 OFFCURVE",
"1208 187 OFFCURVE",
"1208 383 CURVE SMOOTH",
"1208 598 OFFCURVE",
"1067 721 OFFCURVE",
"852 742 CURVE",
"852 746 LINE",
"1048 767 OFFCURVE",
"1149 912 OFFCURVE",
"1149 1068 CURVE SMOOTH",
"1149 1286 OFFCURVE",
"1007 1426 OFFCURVE",
"656 1426 CURVE SMOOTH"
);
},
{
closed = 1;
nodes = (
"884 667 OFFCURVE",
"1023 607 OFFCURVE",
"1023 405 CURVE SMOOTH",
"1023 194 OFFCURVE",
"914 138 OFFCURVE",
"692 138 CURVE SMOOTH",
"353 138 LINE",
"353 667 LINE",
"621 667 LINE SMOOTH"
);
},
{
closed = 1;
nodes = (
"823 1290 OFFCURVE",
"977 1257 OFFCURVE",
"977 1062 CURVE SMOOTH",
"977 879 OFFCURVE",
"865 803 OFFCURVE",
"637 803 CURVE SMOOTH",
"353 803 LINE",
"353 1290 LINE",
"655 1290 LINE SMOOTH"
);
}
);
width = 1292;
},
{
anchors = (
{
name = top;
position = "{706, 1438}";
}
);
layerId = "FB5FCFFA-D9F2-48E1-8F42-8D172ED4E960";
name = Bold;
paths = (
{
closed = 1;
nodes = (
"382 0 CURVE SMOOTH",
"830 0 LINE SMOOTH",
"1179 0 OFFCURVE",
"1336 199 OFFCURVE",
"1336 402 CURVE SMOOTH",
"1336 587 OFFCURVE",
"1210 726 OFFCURVE",
"1010 755 CURVE",
"1010 759 LINE",
"1175 788 OFFCURVE",
"1283 930 OFFCURVE",
"1283 1087 CURVE SMOOTH",
"1283 1440 OFFCURVE",
"937 1452 OFFCURVE",
"665 1452 CURVE SMOOTH",
"382 1452 LINE SMOOTH",
"258 1452 OFFCURVE",
"150 1401 OFFCURVE",
"150 1276 CURVE SMOOTH",
"150 257 LINE SMOOTH",
"150 36 OFFCURVE",
"231 0 OFFCURVE"
);
},
{
closed = 1;
nodes = (
"503 224 LINE",
"503 649 LINE",
"637 649 LINE SMOOTH",
"840 649 OFFCURVE",
"973 608 OFFCURVE",
"973 441 CURVE SMOOTH",
"973 259 OFFCURVE",
"860 224 OFFCURVE",
"647 224 CURVE SMOOTH"
);
},
{
closed = 1;
nodes = (
"503 831 LINE",
"503 1228 LINE",
"650 1228 LINE SMOOTH",
"806 1228 OFFCURVE",
"935 1197 OFFCURVE",
"935 1035 CURVE SMOOTH",
"935 872 OFFCURVE",
"806 831 OFFCURVE",
"629 831 CURVE SMOOTH"
);
}
);
width = 1428;
}
);
rightKerningGroup = B_Left;
unicode = 0042;
userData = {
anchors = (
);
b = {
};
com.typemytype.robofont.layerData = {
b = {
anchors = (
);
components = (
);
contours = (
{
points = (
{
segmentType = curve;
smooth = 1;
x = 266;
y = 0;
},
{
segmentType = line;
smooth = 1;
x = 1035;
y = 0;
},
{
smooth = 0;
x = 1084;
y = 0;
},
{
smooth = 0;
x = 1108;
y = 36;
},
{
segmentType = curve;
smooth = 1;
x = 1108;
y = 73;
},
{
smooth = 0;
x = 1108;
y = 109;
},
{
smooth = 0;
x = 1084;
y = 145;
},
{
segmentType = curve;
smooth = 1;
x = 1035;
y = 145;
},
{
segmentType = line;
smooth = 0;
x = 353;
y = 145;
},
{
segmentType = line;
smooth = 0;
x = 353;
y = 662;
},
{
segmentType = line;
smooth = 1;
x = 975;
y = 662;
},
{
smooth = 0;
x = 1024;
y = 662;
},
{
smooth = 0;
x = 1049;
y = 698;
},
{
segmentType = curve;
smooth = 1;
x = 1049;
y = 734;
},
{
smooth = 0;
x = 1049;
y = 770;
},
{
smooth = 0;
x = 1026;
y = 806;
},
{
segmentType = curve;
smooth = 1;
x = 975;
y = 806;
},
{
segmentType = line;
smooth = 0;
x = 353;
y = 806;
},
{
segmentType = line;
smooth = 0;
x = 353;
y = 1281;
},
{
segmentType = line;
smooth = 1;
x = 1007;
y = 1281;
},
{
smooth = 0;
x = 1056;
y = 1281;
},
{
smooth = 0;
x = 1080;
y = 1317;
},
{
segmentType = curve;
smooth = 1;
x = 1080;
y = 1354;
},
{
smooth = 0;
x = 1080;
y = 1390;
},
{
smooth = 0;
x = 1056;
y = 1426;
},
{
segmentType = curve;
smooth = 1;
x = 1007;
y = 1426;
},
{
segmentType = line;
smooth = 1;
x = 261;
y = 1426;
},
{
smooth = 0;
x = 213;
y = 1426;
},
{
smooth = 0;
x = 178;
y = 1383;
},
{
segmentType = curve;
smooth = 1;
x = 178;
y = 1340;
},
{
segmentType = line;
smooth = 1;
x = 178;
y = 86;
},
{
smooth = 0;
x = 178;
y = 41;
},
{
smooth = 0;
x = 222;
y = 0;
}
);
}
);
lib = {
};
name = B;
unicodes = (
);
width = 1292;
};
};
components = (
);
contours = {
};
lib = {
};
name = B;
points = {
};
segmentType = curve;
unicodes = (
);
width = 1395;
x = 676;
y = 1260;
};
},
{
glyphname = C;
lastChange = "2013-12-30 03:19:54 -0800";
layers = (
{
anchors = (
{
name = bot;
position = "{767, 9}";
},
{
name = top;
position = "{786, 1438}";
}
);
layerId = "F10CBA7B-FAF3-4DDE-A14D-E99DB7E222CB";
name = Light;
paths = (
{
closed = 1;
nodes = (
"359 1438 OFFCURVE",
"128 1093 OFFCURVE",
"128 704 CURVE SMOOTH",
"128 307 OFFCURVE",
"350 -22 OFFCURVE",
"783 -22 CURVE SMOOTH",
"965 -22 OFFCURVE",
"1086 34 OFFCURVE",
"1166 86 CURVE SMOOTH",
"1270 154 OFFCURVE",
"1186 258 OFFCURVE",
"1112 214 CURVE SMOOTH",
"1024 162 OFFCURVE",
"939 120 OFFCURVE",
"806 120 CURVE SMOOTH",
"446 120 OFFCURVE",
"316 406 OFFCURVE",
"316 706 CURVE SMOOTH",
"316 1005 OFFCURVE",
"450 1296 OFFCURVE",
"801 1296 CURVE SMOOTH",
"980 1296 OFFCURVE",
"1053 1246 OFFCURVE",
"1094 1225 CURVE SMOOTH",
"1174 1184 OFFCURVE",
"1231 1300 OFFCURVE",
"1156 1343 CURVE SMOOTH",
"1106 1372 OFFCURVE",
"995 1438 OFFCURVE",
"797 1438 CURVE SMOOTH"
);
}
);
width = 1353.89;
},
{
anchors = (
{
name = bot;
position = "{799, 0}";
},
{
name = top;
position = "{826, 1438}";
}
);
layerId = "FB5FCFFA-D9F2-48E1-8F42-8D172ED4E960";
name = Bold;
paths = (
{
closed = 1;
nodes = (
"821 -35 CURVE SMOOTH",
"1022 -35 OFFCURVE",
"1164 18 OFFCURVE",
"1271 97 CURVE SMOOTH",
"1428 211 OFFCURVE",
"1295 390 OFFCURVE",
"1190 334 CURVE SMOOTH",
"1087 279 OFFCURVE",
"948 243 OFFCURVE",
"850 243 CURVE SMOOTH",
"607 243 OFFCURVE",
"486 414 OFFCURVE",
"486 723 CURVE SMOOTH",
"486 1125 OFFCURVE",
"663 1207 OFFCURVE",
"864 1207 CURVE SMOOTH",
"970 1207 OFFCURVE",
"1070 1168 OFFCURVE",
"1140 1140 CURVE SMOOTH",
"1310 1072 OFFCURVE",
"1407 1293 OFFCURVE",
"1253 1389 CURVE SMOOTH",
"1197 1424 OFFCURVE",
"1079 1486 OFFCURVE",
"843 1486 CURVE SMOOTH",
"422 1486 OFFCURVE",
"102 1199 OFFCURVE",
"102 714 CURVE SMOOTH",
"102 234 OFFCURVE",
"426 -35 OFFCURVE"
);
}
);
width = 1480;
}
);
leftKerningGroup = O_Right;
unicode = 0043;
userData = {
anchors = (
);
b = {
};
com.typemytype.robofont.layerData = {
b = {
anchors = (
);
components = (
);
contours = (
);
lib = {
};
name = C;
unicodes = (
);
width = 1353.89159487;
};
};
components = (
);
contours = (
);
lib = {
};
name = C;
unicodes = (
);
width = 1354;
};
},
{
glyphname = D;
lastChange = "2013-12-30 03:19:54 -0800";
layers = (
{
anchors = (
{
name = mid;
position = "{299, 719}";
},
{
name = top;
position = "{776, 1438}";
}
);
layerId = "F10CBA7B-FAF3-4DDE-A14D-E99DB7E222CB";
name = Light;
paths = (
{
closed = 1;
nodes = (
"267 1430 LINE SMOOTH",
"218 1430 OFFCURVE",
"178 1391 OFFCURVE",
"178 1344 CURVE SMOOTH",
"178 90 LINE SMOOTH",
"178 43 OFFCURVE",
"218 4 OFFCURVE",
"267 4 CURVE SMOOTH",
"611 4 LINE SMOOTH",
"1093 4 OFFCURVE",
"1371 248 OFFCURVE",
"1371 714 CURVE SMOOTH",
"1371 1182 OFFCURVE",
"1103 1430 OFFCURVE",
"607 1430 CURVE SMOOTH"
);
},
{
closed = 1;
nodes = (
"990 1289 OFFCURVE",
"1186 1134 OFFCURVE",
"1186 716 CURVE SMOOTH",
"1186 344 OFFCURVE",
"1040 145 OFFCURVE",
"618 145 CURVE SMOOTH",
"356 145 LINE",
"356 1289 LINE",
"582 1289 LINE SMOOTH"
);
}
);
width = 1499;
},
{
anchors = (
{
name = mid;
position = "{342, 734}";
},
{
name = top;
position = "{746, 1438}";
}
);
layerId = "FB5FCFFA-D9F2-48E1-8F42-8D172ED4E960";
name = Bold;
paths = (
{
closed = 1;
nodes = (
"333 0 CURVE SMOOTH",
"645 0 LINE SMOOTH",
"1168 0 OFFCURVE",
"1441 245 OFFCURVE",
"1441 716 CURVE SMOOTH",
"1441 1200 OFFCURVE",
"1158 1452 OFFCURVE",
"616 1452 CURVE SMOOTH",
"404 1452 LINE SMOOTH",
"215 1452 OFFCURVE",
"150 1375 OFFCURVE",
"150 1195 CURVE SMOOTH",
"150 255 LINE SMOOTH",
"150 128 OFFCURVE",
"188 0 OFFCURVE"
);
},
{
closed = 1;
nodes = (
"516 244 LINE",
"516 1206 LINE",
"636 1206 LINE SMOOTH",
"934 1206 OFFCURVE",
"1053 1083 OFFCURVE",
"1053 725 CURVE SMOOTH",
"1053 367 OFFCURVE",
"931 244 OFFCURVE",
"627 244 CURVE SMOOTH"
);
}
);
width = 1543;
}
);
leftKerningGroup = H_Right;
rightKerningGroup = O_Left;
unicode = 0044;
userData = {
anchors = (
);
b = {
};
com.typemytype.robofont.layerData = {
b = {
anchors = (
);
components = (
);
contours = (
{
points = (
{
segmentType = curve;
smooth = 1;
x = 266;
y = 0;
},
{
segmentType = line;
smooth = 1;
x = 1035;
y = 0;
},
{
smooth = 0;
x = 1084;
y = 0;
},
{
smooth = 0;
x = 1108;
y = 34;
},
{
segmentType = curve;
smooth = 1;
x = 1108;
y = 71;
},
{
smooth = 0;
x = 1108;
y = 107;
},
{
smooth = 0;
x = 1084;
y = 141;
},
{
segmentType = curve;
smooth = 1;
x = 1035;
y = 141;
},
{
segmentType = line;
smooth = 0;
x = 356;
y = 141;
},
{
segmentType = line;
smooth = 0;
x = 356;
y = 665;
},
{
segmentType = line;
smooth = 1;
x = 975;
y = 665;
},
{
smooth = 0;
x = 1024;
y = 665;
},
{
smooth = 0;
x = 1049;
y = 698;
},
{
segmentType = curve;
smooth = 1;
x = 1049;
y = 734;
},
{
smooth = 0;
x = 1049;
y = 770;
},
{
smooth = 0;
x = 1026;
y = 803;
},
{
segmentType = curve;
smooth = 1;
x = 975;
y = 803;
},
{
segmentType = line;
smooth = 0;
x = 356;
y = 803;
},
{
segmentType = line;
smooth = 0;
x = 356;
y = 1285;
},
{
segmentType = line;
smooth = 1;
x = 1007;
y = 1285;
},
{
smooth = 0;
x = 1056;
y = 1285;
},
{
smooth = 0;
x = 1080;
y = 1319;
},
{
segmentType = curve;
smooth = 1;
x = 1080;
y = 1356;
},
{
smooth = 0;
x = 1080;
y = 1392;
},
{
smooth = 0;
x = 1056;
y = 1426;
},
{
segmentType = curve;
smooth = 1;
x = 1007;
y = 1426;
},
{
segmentType = line;
smooth = 1;
x = 261;
y = 1426;
},
{
smooth = 0;
x = 213;
y = 1426;
},
{
smooth = 0;
x = 178;
y = 1383;
},
{
segmentType = curve;
smooth = 1;
x = 178;
y = 1340;
},
{
segmentType = line;
smooth = 1;
x = 178;
y = 86;
},
{
smooth = 0;
x = 178;
y = 41;
},
{
smooth = 0;
x = 222;
y = 0;
}
);
}
);
lib = {
};
name = D;
unicodes = (
);
width = 1499;
};
};
components = (
);
contours = (
);
lib = {
};
name = D;
unicodes = (
);
width = 1535;
};
},
{
glyphname = E;
lastChange = "2013-12-30 03:19:54 -0800";
layers = (
{
anchors = (
{
name = ogonek;
position = "{814, 9}";
},
{
name = top;
position = "{645, 1438}";
}
);
layerId = "F10CBA7B-FAF3-4DDE-A14D-E99DB7E222CB";
name = Light;
paths = (
{
closed = 1;
nodes = (
"261 1426 LINE SMOOTH",
"213 1426 OFFCURVE",
"178 1383 OFFCURVE",
"178 1340 CURVE SMOOTH",
"178 86 LINE SMOOTH",
"178 41 OFFCURVE",
"222 0 OFFCURVE",
"266 0 CURVE SMOOTH",
"1035 0 LINE SMOOTH",
"1084 0 OFFCURVE",
"1108 34 OFFCURVE",
"1108 71 CURVE SMOOTH",
"1108 107 OFFCURVE",
"1084 141 OFFCURVE",
"1035 141 CURVE SMOOTH",
"356 141 LINE",
"356 665 LINE",
"975 665 LINE SMOOTH",
"1024 665 OFFCURVE",
"1049 698 OFFCURVE",
"1049 734 CURVE SMOOTH",
"1049 770 OFFCURVE",
"1026 803 OFFCURVE",
"975 803 CURVE SMOOTH",
"356 803 LINE",
"356 1285 LINE",
"1007 1285 LINE SMOOTH",
"1056 1285 OFFCURVE",
"1080 1319 OFFCURVE",
"1080 1356 CURVE SMOOTH",
"1080 1392 OFFCURVE",
"1056 1426 OFFCURVE",
"1007 1426 CURVE SMOOTH"
);
}
);
width = 1234;
},
{
anchors = (
{
name = ogonek;
position = "{835, 9}";
},
{
name = top;
position = "{666, 1438}";
}
);
layerId = "FB5FCFFA-D9F2-48E1-8F42-8D172ED4E960";
name = Bold;
paths = (
{
closed = 1;
nodes = (
"330 0 CURVE SMOOTH",
"1049 0 LINE SMOOTH",
"1121 0 OFFCURVE",
"1179 57 OFFCURVE",
"1179 129 CURVE SMOOTH",
"1179 201 OFFCURVE",
"1121 259 OFFCURVE",
"1049 259 CURVE SMOOTH",
"509 259 LINE",
"509 609 LINE",
"979 609 LINE SMOOTH",
"1056 609 OFFCURVE",
"1119 666 OFFCURVE",
"1119 738 CURVE SMOOTH",
"1119 810 OFFCURVE",
"1056 868 OFFCURVE",
"979 868 CURVE SMOOTH",
"509 868 LINE",
"509 1192 LINE",
"1024 1192 LINE SMOOTH",
"1101 1192 OFFCURVE",
"1164 1249 OFFCURVE",
"1164 1321 CURVE SMOOTH",
"1164 1393 OFFCURVE",
"1101 1452 OFFCURVE",
"1024 1452 CURVE SMOOTH",
"382 1452 LINE SMOOTH",
"174 1452 OFFCURVE",
"150 1340 OFFCURVE",
"150 1188 CURVE SMOOTH",
"150 235 LINE SMOOTH",
"150 123 OFFCURVE",
"194 0 OFFCURVE"
);
}
);
width = 1268;
}
);
leftKerningGroup = H_Right;
unicode = 0045;
userData = {
anchors = (
);
b = {
};
com.typemytype.robofont.layerData = {
b = {
anchors = (
);
components = (
);
contours = (
);
lib = {
};
name = E;
unicodes = (
);
width = 1234;
};
};
components = (
);
contours = (
);
lib = {
};
name = E;
unicodes = (
);
width = 1258;
};
},
{
glyphname = F;
lastChange = "2013-12-30 03:19:54 -0800";
layers = (
{
anchors = (
{
name = top;
position = "{658, 1438}";
}
);
layerId = "F10CBA7B-FAF3-4DDE-A14D-E99DB7E222CB";
name = Light;
paths = (
{
closed = 1;
nodes = (
"262 1426 LINE SMOOTH",
"217 1426 OFFCURVE",
"178 1392 OFFCURVE",
"178 1341 CURVE SMOOTH",
"178 84 LINE SMOOTH",
"178 28 OFFCURVE",
"222 0 OFFCURVE",
"267 0 CURVE SMOOTH",
"311 0 OFFCURVE",
"356 27 OFFCURVE",
"356 84 CURVE SMOOTH",
"356 670 LINE",
"941 670 LINE SMOOTH",
"990 670 OFFCURVE",
"1015 704 OFFCURVE",
"1015 741 CURVE SMOOTH",
"1015 777 OFFCURVE",
"990 809 OFFCURVE",
"941 809 CURVE SMOOTH",
"356 809 LINE",
"356 1285 LINE",
"967 1285 LINE SMOOTH",
"1016 1285 OFFCURVE",
"1040 1319 OFFCURVE",
"1040 1356 CURVE SMOOTH",
"1040 1392 OFFCURVE",
"1016 1426 OFFCURVE",
"967 1426 CURVE SMOOTH"
);
}
);
width = 1142;
},
{
anchors = (
{
name = top;
position = "{675, 1453}";
}
);
layerId = "FB5FCFFA-D9F2-48E1-8F42-8D172ED4E960";
name = Bold;
paths = (
{
closed = 1;
nodes = (
"335 0 CURVE SMOOTH",
"438 0 OFFCURVE",
"521 86 OFFCURVE",
"521 195 CURVE SMOOTH",
"522 613 LINE",
"974 613 LINE SMOOTH",
"1046 613 OFFCURVE",
"1104 670 OFFCURVE",
"1104 742 CURVE SMOOTH",
"1104 814 OFFCURVE",
"1046 872 OFFCURVE",
"974 872 CURVE SMOOTH",
"522 872 LINE",
"522 1192 LINE",
"1005 1192 LINE SMOOTH",
"1077 1192 OFFCURVE",
"1135 1249 OFFCURVE",
"1135 1321 CURVE SMOOTH",
"1135 1393 OFFCURVE",
"1077 1452 OFFCURVE",
"1005 1452 CURVE SMOOTH",
"385 1452 LINE SMOOTH",
"259 1452 OFFCURVE",
"150 1395 OFFCURVE",
"150 1267 CURVE SMOOTH",
"150 195 LINE SMOOTH",
"150 86 OFFCURVE",
"232 0 OFFCURVE"
);
}
);
width = 1200;
}
);
leftKerningGroup = H_Right;
unicode = 0046;
userData = {
anchors = (
);
b = {
};
com.typemytype.robofont.layerData = {
b = {
anchors = (
);
components = (
);
contours = (
{
points = (
{
segmentType = curve;
smooth = 1;
x = 266;
y = 0;
},
{
segmentType = line;
smooth = 1;
x = 1035;
y = 0;
},
{
smooth = 0;
x = 1084;
y = 0;
},
{
smooth = 0;
x = 1108;
y = 34;
},
{
segmentType = curve;
smooth = 1;
x = 1108;
y = 71;
},
{
smooth = 0;
x = 1108;
y = 107;
},
{
smooth = 0;
x = 1084;
y = 141;
},
{
segmentType = curve;
smooth = 1;
x = 1035;
y = 141;
},
{
segmentType = line;
smooth = 0;
x = 353;
y = 141;
},
{
segmentType = line;
smooth = 0;
x = 353;
y = 665;
},
{
segmentType = line;
smooth = 1;
x = 975;
y = 665;
},
{
smooth = 0;
x = 1024;
y = 665;
},
{
smooth = 0;
x = 1049;
y = 698;
},
{
segmentType = curve;
smooth = 1;
x = 1049;
y = 734;
},
{
smooth = 0;
x = 1049;
y = 770;
},
{
smooth = 0;
x = 1026;
y = 803;
},
{
segmentType = curve;
smooth = 1;
x = 975;
y = 803;
},
{
segmentType = line;
smooth = 0;
x = 353;
y = 803;
},
{
segmentType = line;
smooth = 0;
x = 353;
y = 1285;
},
{
segmentType = line;
smooth = 1;
x = 1007;
y = 1285;
},
{
smooth = 0;
x = 1056;
y = 1285;
},
{
smooth = 0;
x = 1080;
y = 1319;
},
{
segmentType = curve;
smooth = 1;
x = 1080;
y = 1356;
},
{
smooth = 0;
x = 1080;
y = 1392;
},
{
smooth = 0;
x = 1056;
y = 1426;
},
{
segmentType = curve;
smooth = 1;
x = 1007;
y = 1426;
},
{
segmentType = line;
smooth = 1;
x = 261;
y = 1426;
},
{
smooth = 0;
x = 213;
y = 1426;
},
{
smooth = 0;
x = 178;
y = 1383;
},
{
segmentType = curve;
smooth = 1;
x = 178;
y = 1340;
},
{
segmentType = line;
smooth = 1;
x = 178;
y = 86;
},
{
smooth = 0;
x = 178;
y = 41;
},
{
smooth = 0;
x = 222;
y = 0;
}
);
}
);
lib = {
};
name = F;
unicodes = (
);
width = 1142;
};
};
components = (
);
contours = (
);
lib = {
};
name = F;
unicodes = (
);
width = 1175;
};
},
{
glyphname = G;
lastChange = "2013-12-30 03:19:54 -0800";
layers = (
{
anchors = (
{
name = bot;
position = "{833, 0}";
},
{
name = top;
position = "{862, 1426}";
}
);
layerId = "F10CBA7B-FAF3-4DDE-A14D-E99DB7E222CB";
name = Light;
paths = (
{
closed = 1;
nodes = (
"359 1438 OFFCURVE",
"128 1093 OFFCURVE",
"128 712 CURVE SMOOTH",
"128 221 OFFCURVE",
"417 -22 OFFCURVE",
"798 -22 CURVE SMOOTH",
"967 -22 OFFCURVE",
"1139 11 OFFCURVE",
"1260 55 CURVE SMOOTH",
"1296 68 OFFCURVE",
"1326 104 OFFCURVE",
"1326 153 CURVE SMOOTH",
"1326 664 LINE SMOOTH",
"1326 711 OFFCURVE",
"1299 743 OFFCURVE",
"1252 743 CURVE SMOOTH",
"867 743 LINE SMOOTH",
"822 743 OFFCURVE",
"800 704 OFFCURVE",
"800 673 CURVE SMOOTH",
"800 643 OFFCURVE",
"823 606 OFFCURVE",
"867 606 CURVE SMOOTH",
"1150 606 LINE",
"1150 167 LINE",
"1053 140 OFFCURVE",
"922 120 OFFCURVE",
"817 120 CURVE SMOOTH",
"460 120 OFFCURVE",
"316 379 OFFCURVE",
"316 709 CURVE SMOOTH",
"316 1054 OFFCURVE",
"486 1296 OFFCURVE",
"841 1296 CURVE SMOOTH",
"959 1296 OFFCURVE",
"1079 1267 OFFCURVE",
"1193 1233 CURVE SMOOTH",
"1196 1232 OFFCURVE",
"1209 1231 OFFCURVE",
"1209 1231 CURVE SMOOTH",
"1248 1231 OFFCURVE",
"1272 1269 OFFCURVE",
"1272 1305 CURVE SMOOTH",
"1272 1329 OFFCURVE",
"1261 1353 OFFCURVE",
"1233 1365 CURVE SMOOTH",
"1118 1413 OFFCURVE",
"979 1438 OFFCURVE",
"834 1438 CURVE SMOOTH"
);
}
);
width = 1448;
},
{
anchors = (
{
name = bot;
position = "{875, 0}";
},
{
name = top;
position = "{826, 1438}";
}
);
layerId = "FB5FCFFA-D9F2-48E1-8F42-8D172ED4E960";
name = Bold;
paths = (
{
closed = 1;
nodes = (
"868 -35 CURVE SMOOTH",
"964 -35 OFFCURVE",
"1094 -14 OFFCURVE",
"1190 1 CURVE SMOOTH",
"1414 37 OFFCURVE",
"1445 106 OFFCURVE",
"1445 314 CURVE SMOOTH",
"1445 612 LINE SMOOTH",
"1445 725 OFFCURVE",
"1427 782 OFFCURVE",
"1322 782 CURVE SMOOTH",
"1189 782 OFFCURVE",
"1076 783 OFFCURVE",
"944 783 CURVE SMOOTH",
"860 783 OFFCURVE",
"820 740 OFFCURVE",
"820 679 CURVE SMOOTH",
"820 599 OFFCURVE",
"882 572 OFFCURVE",
"964 572 CURVE SMOOTH",
"1098 572 LINE",
"1098 264 LINE",
"1024 246 OFFCURVE",
"952 236 OFFCURVE",
"885 236 CURVE SMOOTH",
"661 236 OFFCURVE",
"489 351 OFFCURVE",
"489 710 CURVE SMOOTH",
"489 1031 OFFCURVE",
"623 1219 OFFCURVE",
"888 1219 CURVE SMOOTH",
"994 1219 OFFCURVE",
"1138 1189 OFFCURVE",
"1218 1145 CURVE SMOOTH",
"1240 1133 OFFCURVE",
"1262 1127 OFFCURVE",
"1282 1127 CURVE SMOOTH",
"1350 1127 OFFCURVE",
"1402 1189 OFFCURVE",
"1402 1255 CURVE SMOOTH",
"1402 1290.3 OFFCURVE",
"1383.99 1336.68 OFFCURVE",
"1337 1368 CURVE SMOOTH",
"1228 1440 OFFCURVE",
"1036 1486 OFFCURVE",
"865 1486 CURVE SMOOTH",
"340 1486 OFFCURVE",
"102 1144 OFFCURVE",
"102 725 CURVE SMOOTH",
"102 204 OFFCURVE",
"399 -35 OFFCURVE"
);
}
);
width = 1537;
}
);
leftKerningGroup = O_Right;
unicode = 0047;
userData = {
anchors = (
);
b = {
};
com.typemytype.robofont.layerData = {
b = {
anchors = (
);
components = (
);
contours = (
{
points = (
{
segmentType = curve;
smooth = 1;
x = 783;
y = "-22";
},
{
smooth = 0;
x = 965;
y = "-22";
},
{
smooth = 0;
x = 1086;
y = 34;
},
{
segmentType = curve;
smooth = 1;
x = 1166;
y = 86;
},
{
smooth = 0;
x = 1270;
y = 154;
},
{
smooth = 0;
x = 1186;
y = 258;
},
{
segmentType = curve;
smooth = 1;
x = 1112;
y = 214;
},
{
smooth = 0;
x = 1024;
y = 162;
},
{
smooth = 0;
x = 939;
y = 120;
},
{
segmentType = curve;
smooth = 1;
x = 806;
y = 120;
},
{
smooth = 0;
x = 446;
y = 120;
},
{
smooth = 0;
x = 316;
y = 406;
},
{
segmentType = curve;
smooth = 1;
x = 316;
y = 706;
},
{
smooth = 0;
x = 316;
y = 1005;
},
{
smooth = 0;
x = 450;
y = 1296;
},
{
segmentType = curve;
smooth = 1;
x = 801;
y = 1296;
},
{
smooth = 0;
x = 980;
y = 1296;
},
{
smooth = 0;
x = 1053;
y = 1246;
},
{
segmentType = curve;
smooth = 1;
x = 1094;
y = 1225;
},
{
smooth = 0;
x = 1174;
y = 1184;
},
{
smooth = 0;
x = 1231;
y = 1300;
},
{
segmentType = curve;
smooth = 1;
x = 1156;
y = 1343;
},
{
smooth = 0;
x = 1106;
y = 1372;
},
{
smooth = 0;
x = 995;
y = 1438;
},
{
segmentType = curve;
smooth = 1;
x = 797;
y = 1438;
},
{
smooth = 0;
x = 359;
y = 1438;
},
{
smooth = 0;
x = 128;
y = 1093;
},
{
segmentType = curve;
smooth = 1;
x = 128;
y = 704;
},
{
smooth = 0;
x = 128;
y = 307;
},
{
smooth = 0;
x = 350;
y = "-22";
}
);
}
);
lib = {
};
name = G;
unicodes = (
);
width = 1448;
};
};
components = (
);
contours = (
);
lib = {
};
name = G;
unicodes = (
);
width = 1538;
};
},
{
glyphname = H;
lastChange = "2013-12-30 03:19:54 -0800";
layers = (
{
anchors = (
{
name = top;
position = "{761, 1438}";
}
);
layerId = "F10CBA7B-FAF3-4DDE-A14D-E99DB7E222CB";
name = Light;
paths = (
{
closed = 1;
nodes = (
"1152 1426 OFFCURVE",
"1108 1397 OFFCURVE",
"1108 1342 CURVE SMOOTH",
"1108 811 LINE",
"356 811 LINE",
"356 1342 LINE SMOOTH",
"356 1398 OFFCURVE",
"312 1426 OFFCURVE",
"268 1426 CURVE SMOOTH",
"223 1426 OFFCURVE",
"178 1397 OFFCURVE",
"178 1342 CURVE SMOOTH",
"178 84 LINE SMOOTH",
"178 28 OFFCURVE",
"222 0 OFFCURVE",
"266 0 CURVE SMOOTH",
"311 0 OFFCURVE",
"356 27 OFFCURVE",
"356 84 CURVE SMOOTH",
"356 669 LINE",
"1108 669 LINE",
"1108 84 LINE SMOOTH",
"1108 28 OFFCURVE",
"1152 0 OFFCURVE",
"1196 0 CURVE SMOOTH",
"1241 0 OFFCURVE",
"1286 27 OFFCURVE",
"1286 84 CURVE SMOOTH",
"1286 1342 LINE SMOOTH",
"1286 1398 OFFCURVE",
"1242 1426 OFFCURVE",
"1197 1426 CURVE SMOOTH"
);
}
);
width = 1464;
},
{
anchors = (
{
name = top;
position = "{786, 1438}";
}
);
layerId = "FB5FCFFA-D9F2-48E1-8F42-8D172ED4E960";
name = Bold;
paths = (
{
closed = 1;
nodes = (
"335 0 CURVE SMOOTH",
"438 0 OFFCURVE",
"521 86 OFFCURVE",
"521 195 CURVE SMOOTH",
"521 608 LINE",
"1036 608 LINE",
"1037 195 LINE SMOOTH",
"1037 86 OFFCURVE",
"1119 0 OFFCURVE",
"1222 0 CURVE SMOOTH",
"1325 0 OFFCURVE",
"1408 86 OFFCURVE",
"1408 195 CURVE SMOOTH",
"1408 1258 LINE SMOOTH",
"1408 1367 OFFCURVE",
"1325 1453 OFFCURVE",
"1222 1453 CURVE SMOOTH",
"1120 1453 OFFCURVE",
"1036 1367 OFFCURVE",
"1036 1258 CURVE SMOOTH",
"1036 893 LINE",
"521 893 LINE",
"521 1258 LINE SMOOTH",
"521 1367 OFFCURVE",
"438 1453 OFFCURVE",
"335 1453 CURVE SMOOTH",
"232 1453 OFFCURVE",
"150 1367 OFFCURVE",
"150 1258 CURVE SMOOTH",
"150 195 LINE SMOOTH",
"150 86 OFFCURVE",
"232 0 OFFCURVE"
);
}
);
width = 1558;
}
);
leftKerningGroup = H_Right;
rightKerningGroup = H_Left;
unicode = 0048;
userData = {
anchors = (
);
b = {
};
com.typemytype.robofont.layerData = {
b = {
anchors = (
);
components = (
);
contours = (
);
lib = {
};
name = H;
unicodes = (
);
width = 1464;
};
};
components = (
);
contours = (
);
lib = {
};
name = H;
unicodes = (
);
width = 1524;
};
},
{
glyphname = I;
lastChange = "2013-12-30 03:19:54 -0800";
layers = (
{
anchors = (
{
name = top;
position = "{304, 1438}";
}
);
layerId = "F10CBA7B-FAF3-4DDE-A14D-E99DB7E222CB";
name = Light;
paths = (
{
closed = 1;
nodes = (
"253 1426 OFFCURVE",
"208 1397 OFFCURVE",
"208 1341 CURVE SMOOTH",
"208 84 LINE SMOOTH",
"208 28 OFFCURVE",
"252 0 OFFCURVE",
"296 0 CURVE SMOOTH",
"341 0 OFFCURVE",
"386 27 OFFCURVE",
"386 84 CURVE SMOOTH",
"386 1341 LINE SMOOTH",
"386 1398 OFFCURVE",
"342 1426 OFFCURVE",
"298 1426 CURVE SMOOTH"
);
}
);
width = 592;
},
{
anchors = (
{
name = top;
position = "{346, 1438}";
}
);
layerId = "FB5FCFFA-D9F2-48E1-8F42-8D172ED4E960";
name = Bold;
paths = (
{
closed = 1;
nodes = (
"344 0 CURVE SMOOTH",
"447 0 OFFCURVE",
"530 86 OFFCURVE",
"530 195 CURVE SMOOTH",
"530 1258 LINE SMOOTH",
"530 1367 OFFCURVE",
"447 1453 OFFCURVE",
"344 1453 CURVE SMOOTH",
"241 1453 OFFCURVE",
"159 1367 OFFCURVE",
"159 1258 CURVE SMOOTH",
"159 195 LINE SMOOTH",
"159 86 OFFCURVE",
"241 0 OFFCURVE"
);
}
);
width = 689;
}
);
unicode = 0049;
userData = {
anchors = (
);
b = {
};
com.typemytype.robofont.layerData = {
b = {
anchors = (
);
components = (
);
contours = (
);
lib = {
};
name = I;
unicodes = (
);
width = 592;
};
};
components = (
);
contours = (
);
lib = {
};
name = I;
unicodes = (
);
width = 637;
};
},
{
glyphname = J;
lastChange = "2013-12-30 03:19:54 -0800";
layers = (
{
anchors = (
{
name = top;
position = "{771, 1438}";
}
);
layerId = "F10CBA7B-FAF3-4DDE-A14D-E99DB7E222CB";
name = Light;
paths = (
{
closed = 1;
nodes = (
"727 1426 OFFCURVE",
"682 1399 OFFCURVE",
"682 1343 CURVE SMOOTH",
"682 456 LINE SMOOTH",
"682 223 OFFCURVE",
"590 126 OFFCURVE",
"423 126 CURVE SMOOTH",
"327 126 OFFCURVE",
"254 166 OFFCURVE",
"212 199 CURVE SMOOTH",
"186 219 OFFCURVE",
"164 227 OFFCURVE",
"145 227 CURVE SMOOTH",
"103 227 OFFCURVE",
"79 188 OFFCURVE",
"79 149 CURVE SMOOTH",
"79 144 OFFCURVE",
"79 139 OFFCURVE",
"80 135 CURVE SMOOTH",
"83 119 OFFCURVE",
"89 105 OFFCURVE",
"100 94 CURVE SMOOTH",
"145 50 OFFCURVE",
"257 -22 OFFCURVE",
"420 -22 CURVE SMOOTH",
"644 -22 OFFCURVE",
"861 103 OFFCURVE",
"861 441 CURVE SMOOTH",
"861 1343 LINE SMOOTH",
"861 1399 OFFCURVE",
"817 1426 OFFCURVE",
"772 1426 CURVE SMOOTH"
);
}
);
width = 1003;
},
{
anchors = (
{
name = top;
position = "{856, 1438}";
}
);
layerId = "FB5FCFFA-D9F2-48E1-8F42-8D172ED4E960";
name = Bold;
paths = (
{
closed = 1;
nodes = (
"513 -34 CURVE SMOOTH",
"845 -34 OFFCURVE",
"1037 139 OFFCURVE",
"1038 474 CURVE SMOOTH",
"1039 1258 LINE SMOOTH",
"1039 1367 OFFCURVE",
"956 1453 OFFCURVE",
"853 1453 CURVE SMOOTH",
"750 1453 OFFCURVE",
"668 1367 OFFCURVE",
"668 1258 CURVE SMOOTH",
"668 503 LINE SMOOTH",
"668 332 OFFCURVE",
"610 277 OFFCURVE",
"479 277 CURVE SMOOTH",
"414 277 OFFCURVE",
"353 310 OFFCURVE",
"315 339 CURVE SMOOTH",
"281 365 OFFCURVE",
"246 376 OFFCURVE",
"215 376 CURVE SMOOTH",
"134 376 OFFCURVE",
"71 304 OFFCURVE",
"71 221 CURVE SMOOTH",
"71 212 OFFCURVE",
"72 203 OFFCURVE",
"73 194 CURVE",
"79 160 OFFCURVE",
"97 124 OFFCURVE",
"130 93 CURVE SMOOTH",
"221 7 OFFCURVE",
"365 -34 OFFCURVE"
);
}
);
width = 1173;
}
);
unicode = 004A;
userData = {
anchors = (
);
b = {
};
com.typemytype.robofont.layerData = {
b = {
anchors = (
);
components = (
);
contours = (
);
lib = {
};
name = J;
unicodes = (
);
width = 1003;
};
};
components = (
);
contours = (
);
lib = {
};
name = J;
unicodes = (
);
width = 1126;
};
},
{
glyphname = K;
lastChange = "2013-12-30 03:19:54 -0800";
layers = (
{
anchors = (
{
name = bot;
position = "{646, 0}";
},
{
name = top;
position = "{638, 1438}";
}
);
layerId = "F10CBA7B-FAF3-4DDE-A14D-E99DB7E222CB";
name = Light;
paths = (
{
closed = 1;
nodes = (
"1017 1426 OFFCURVE",
"996 1416 OFFCURVE",
"975 1395 CURVE SMOOTH",
"353 757 LINE",
"353 1342 LINE SMOOTH",
"353 1397 OFFCURVE",
"309 1426 OFFCURVE",
"266 1426 CURVE SMOOTH",
"222 1426 OFFCURVE",
"178 1398 OFFCURVE",
"178 1342 CURVE SMOOTH",
"178 83 LINE SMOOTH",
"178 27 OFFCURVE",
"221 0 OFFCURVE",
"264 0 CURVE SMOOTH",
"308 0 OFFCURVE",
"353 27 OFFCURVE",
"353 83 CURVE SMOOTH",
"353 709 LINE",
"1018 35 LINE SMOOTH",
"1040 13 OFFCURVE",
"1063 0 OFFCURVE",
"1087 0 CURVE SMOOTH",
"1134 0 OFFCURVE",
"1172 33 OFFCURVE",
"1172 79 CURVE SMOOTH",
"1172 97 OFFCURVE",
"1167 117 OFFCURVE",
"1150 134 CURVE SMOOTH",
"535 742 LINE",
"1097 1303 LINE SMOOTH",
"1112 1318 OFFCURVE",
"1117 1337 OFFCURVE",
"1117 1354 CURVE SMOOTH",
"1117 1395 OFFCURVE",
"1083 1426 OFFCURVE",
"1040 1426 CURVE SMOOTH"
);
}
);
width = 1210;
},
{
anchors = (
{
name = bot;
position = "{713, 0}";
},
{
name = top;
position = "{706, 1438}";
}
);
layerId = "FB5FCFFA-D9F2-48E1-8F42-8D172ED4E960";
name = Bold;
paths = (
{
closed = 1;
nodes = (
"335 0 CURVE SMOOTH",
"438 0 OFFCURVE",
"521 86 OFFCURVE",
"521 195 CURVE SMOOTH",
"519 714 LINE",
"953 171 LINE SMOOTH",
"1012 97 OFFCURVE",
"1078 -1 OFFCURVE",
"1174 0 CURVE SMOOTH",
"1258 0 OFFCURVE",
"1345 67 OFFCURVE",
"1345 155 CURVE SMOOTH",
"1345 209 OFFCURVE",
"1293 280 OFFCURVE",
"1248 336 CURVE SMOOTH",
"908 761 LINE",
"1225 1130 LINE SMOOTH",
"1270 1182 OFFCURVE",
"1321 1245 OFFCURVE",
"1321 1298 CURVE SMOOTH",
"1321 1386 OFFCURVE",
"1239 1452 OFFCURVE",
"1157 1452 CURVE SMOOTH",
"1084 1452 OFFCURVE",
"1038 1397 OFFCURVE",
"974 1322 CURVE SMOOTH",
"519 794 LINE",
"521 1258 LINE SMOOTH",
"521 1367 OFFCURVE",
"434 1453 OFFCURVE",
"335 1453 CURVE SMOOTH",
"232 1453 OFFCURVE",
"150 1367 OFFCURVE",
"150 1258 CURVE SMOOTH",
"150 195 LINE SMOOTH",
"150 86 OFFCURVE",
"232 0 OFFCURVE"
);
}
);
width = 1368;
}
);
leftKerningGroup = H_Right;
unicode = 004B;
userData = {
anchors = (
);
b = {
};
com.typemytype.robofont.layerData = {
b = {
anchors = (
);
components = (
);
contours = (
);
lib = {
};
name = K;
unicodes = (
);
width = 1210;
};
};
components = (
);
contours = (
);
lib = {
};
name = K;
unicodes = (
);
width = 1329;
};
},
{
glyphname = L;
lastChange = "2013-12-30 03:29:28 -0800";
layers = (
{
anchors = (
{
name = bot;
position = "{657, 0}";
},
{
name = caron.alt;
position = "{461, 991}";
},
{
name = mid;
position = "{266, 699}";
},
{
name = top;
position = "{366, 1453}";
}
);
layerId = "F10CBA7B-FAF3-4DDE-A14D-E99DB7E222CB";
name = Light;
paths = (
{
closed = 1;
nodes = (
"223 1426 OFFCURVE",
"178 1397 OFFCURVE",
"178 1342 CURVE SMOOTH",
"178 87 LINE SMOOTH",
"178 38 OFFCURVE",
"220 0 OFFCURVE",
"268 0 CURVE SMOOTH",
"1003 0 LINE SMOOTH",
"1052 0 OFFCURVE",
"1077 34 OFFCURVE",
"1077 70 CURVE SMOOTH",
"1077 107 OFFCURVE",
"1054 141 OFFCURVE",
"1003 141 CURVE SMOOTH",
"356 141 LINE",
"356 1342 LINE SMOOTH",
"356 1398 OFFCURVE",
"312 1426 OFFCURVE",
"268 1426 CURVE SMOOTH"
);
}
);
width = 1095;
},
{
anchors = (
{
name = bot;
position = "{674, 0}";
},
{
name = caron.alt;
position = "{438, 991}";
},
{
name = mid;
position = "{339, 743}";
},
{
name = top;
position = "{446, 1453}";
}
);
layerId = "FB5FCFFA-D9F2-48E1-8F42-8D172ED4E960";
name = Bold;
paths = (
{
closed = 1;
nodes = (
"336 0 CURVE SMOOTH",
"1021 0 LINE SMOOTH",
"1094 0 OFFCURVE",
"1154 60 OFFCURVE",
"1154 133 CURVE SMOOTH",
"1154 206 OFFCURVE",
"1094 266 OFFCURVE",
"1021 266 CURVE SMOOTH",
"522 266 LINE",
"521 1258 LINE SMOOTH",
"521 1367 OFFCURVE",
"438 1453 OFFCURVE",
"335 1453 CURVE SMOOTH",
"232 1453 OFFCURVE",
"150 1367 OFFCURVE",
"150 1258 CURVE SMOOTH",
"150 273 LINE SMOOTH",
"150 137 OFFCURVE",
"191 0 OFFCURVE"
);
}
);
width = 1190;
}
);
leftKerningGroup = H_Right;
unicode = 004C;
userData = {
anchors = (
);
b = {
};
com.typemytype.robofont.layerData = {
b = {
anchors = (
);
components = (
);
contours = (
{
points = (
{
segmentType = curve;
smooth = 1;
x = 266;
y = 0;
},
{
segmentType = line;
smooth = 1;
x = 1035;
y = 0;
},
{
smooth = 0;
x = 1084;
y = 0;
},
{
smooth = 0;
x = 1108;
y = 34;
},
{
segmentType = curve;
smooth = 1;
x = 1108;
y = 71;
},
{
smooth = 0;
x = 1108;
y = 107;
},
{
smooth = 0;
x = 1084;
y = 141;
},
{
segmentType = curve;
smooth = 1;
x = 1035;
y = 141;
},
{
segmentType = line;
smooth = 0;
x = 356;
y = 141;
},
{
segmentType = line;
smooth = 0;
x = 356;
y = 665;
},
{
segmentType = line;
smooth = 1;
x = 975;
y = 665;
},
{
smooth = 0;
x = 1024;
y = 665;
},
{
smooth = 0;
x = 1049;
y = 698;
},
{
segmentType = curve;
smooth = 1;
x = 1049;
y = 734;
},
{
smooth = 0;
x = 1049;
y = 770;
},
{
smooth = 0;
x = 1026;
y = 803;
},
{
segmentType = curve;
smooth = 1;
x = 975;
y = 803;
},
{
segmentType = line;
smooth = 0;
x = 356;
y = 803;
},
{
segmentType = line;
smooth = 0;
x = 356;
y = 1285;
},
{
segmentType = line;
smooth = 1;
x = 1007;
y = 1285;
},
{
smooth = 0;
x = 1056;
y = 1285;
},
{
smooth = 0;
x = 1080;
y = 1319;
},
{
segmentType = curve;
smooth = 1;
x = 1080;
y = 1356;
},
{
smooth = 0;
x = 1080;
y = 1392;
},
{
smooth = 0;
x = 1056;
y = 1426;
},
{
segmentType = curve;
smooth = 1;
x = 1007;
y = 1426;
},
{
segmentType = line;
smooth = 1;
x = 261;
y = 1426;
},
{
smooth = 0;
x = 213;
y = 1426;
},
{
smooth = 0;
x = 178;
y = 1383;
},
{
segmentType = curve;
smooth = 1;
x = 178;
y = 1340;
},
{
segmentType = line;
smooth = 1;
x = 178;
y = 86;
},
{
smooth = 0;
x = 178;
y = 41;
},
{
smooth = 0;
x = 222;
y = 0;
}
);
}
);
lib = {
};
name = L;
unicodes = (
);
width = 1095;
};
};
components = (
);
contours = (
);
lib = {
};
name = L;
unicodes = (
);
width = 1169;
};
},
{
glyphname = M;
lastChange = "2013-12-30 03:19:54 -0800";
layers = (
{
anchors = (
{
name = top;
position = "{978, 1438}";
}
);
layerId = "F10CBA7B-FAF3-4DDE-A14D-E99DB7E222CB";
name = Light;
paths = (
{
closed = 1;
nodes = (
"950 238 LINE",
"950 33 LINE",
"990 33 OFFCURVE",
"1033 59 OFFCURVE",
"1057 112 CURVE SMOOTH",
"1556 1204 LINE",
"1556 70 LINE SMOOTH",
"1556 -16 OFFCURVE",
"1719 -17 OFFCURVE",
"1719 70 CURVE SMOOTH",
"1719 1284 LINE SMOOTH",
"1719 1410 OFFCURVE",
"1521 1480 OFFCURVE",
"1439 1301 CURVE SMOOTH"
);
},
{
closed = 1;
nodes = (
"379 1480 OFFCURVE",
"181 1410 OFFCURVE",
"181 1284 CURVE SMOOTH",
"181 70 LINE SMOOTH",
"181 -17 OFFCURVE",
"344 -16 OFFCURVE",
"344 70 CURVE SMOOTH",
"344 1204 LINE",
"843 112 LINE SMOOTH",
"867 59 OFFCURVE",
"910 33 OFFCURVE",
"950 33 CURVE",
"950 238 LINE",
"461 1301 LINE SMOOTH"
);
}
);
width = 1899;
},
{
anchors = (
{
name = top;
position = "{1026, 1438}";
}
);
layerId = "FB5FCFFA-D9F2-48E1-8F42-8D172ED4E960";
name = Bold;
paths = (
{
closed = 1;
nodes = (
"1007 67 LINE",
"1126 67 OFFCURVE",
"1172 133 OFFCURVE",
"1222 259 CURVE SMOOTH",
"1548 1089 LINE",
"1547 126 LINE SMOOTH",
"1547 -69 OFFCURVE",
"1860 -65 OFFCURVE",
"1860 126 CURVE SMOOTH",
"1861 1200 LINE SMOOTH",
"1861 1460 OFFCURVE",
"1437 1574 OFFCURVE",
"1298 1218 CURVE SMOOTH",
"1007 474 LINE"
);
},
{
closed = 1;
nodes = (
"1007 67 CURVE",
"1007 474 LINE",
"716 1218 LINE SMOOTH",
"577 1574 OFFCURVE",
"153 1460 OFFCURVE",
"153 1200 CURVE SMOOTH",
"154 126 LINE SMOOTH",
"154 -65 OFFCURVE",
"467 -69 OFFCURVE",
"467 126 CURVE",
"467 1089 LINE",
"792 259 LINE SMOOTH",
"842 132 OFFCURVE",
"888 67 OFFCURVE"
);
}
);
width = 2015;
}
);
leftKerningGroup = H_Right;
rightKerningGroup = H_Left;
unicode = 004D;
userData = {
anchors = (
);
b = {
};
com.typemytype.robofont.layerData = {
b = {
anchors = (
);
components = (
);
contours = (
);
lib = {
};
name = M;
unicodes = (
);
width = 1899;
};
};
components = (
);
contours = (
);
lib = {
};
name = M;
unicodes = (
);
width = 1984;
};
},
{
glyphname = N;
lastChange = "2013-12-30 03:19:54 -0800";
layers = (
{
anchors = (
{
name = bot;
position = "{772, 0}";
},
{
name = top;
position = "{794, 1438}";
}
);
layerId = "F10CBA7B-FAF3-4DDE-A14D-E99DB7E222CB";
name = Light;
paths = (
{
closed = 1;
nodes = (
"1196 1426 OFFCURVE",
"1157 1399 OFFCURVE",
"1157 1346 CURVE SMOOTH",
"1157 247 LINE",
"408 1346 LINE SMOOTH",
"370 1401 OFFCURVE",
"320 1426 OFFCURVE",
"281 1426 CURVE SMOOTH",
"222 1426 OFFCURVE",
"178 1383 OFFCURVE",
"178 1308 CURVE SMOOTH",
"178 79 LINE SMOOTH",
"178 26 OFFCURVE",
"217 0 OFFCURVE",
"260 0 CURVE SMOOTH",
"302 0 OFFCURVE",
"342 27 OFFCURVE",
"342 79 CURVE SMOOTH",
"342 1163 LINE",
"1098 58 LINE SMOOTH",
"1126 17 OFFCURVE",
"1168 0 OFFCURVE",
"1207 0 CURVE SMOOTH",
"1270 0 OFFCURVE",
"1321 43 OFFCURVE",
"1321 118 CURVE SMOOTH",
"1321 1346 LINE SMOOTH",
"1321 1399 OFFCURVE",
"1280 1426 OFFCURVE",
"1239 1426 CURVE SMOOTH"
);
}
);
width = 1499;
},
{
anchors = (
{
name = bot;
position = "{830, 0}";
},
{
name = top;
position = "{874, 1452}";
}
);
layerId = "FB5FCFFA-D9F2-48E1-8F42-8D172ED4E960";
name = Bold;
paths = (
{
closed = 1;
nodes = (
"306 0 CURVE SMOOTH",
"393 0 OFFCURVE",
"464 70 OFFCURVE",
"464 157 CURVE SMOOTH",
"464 966 LINE",
"1060 156 LINE",
"1127 68 OFFCURVE",
"1198 0 OFFCURVE",
"1282 0 CURVE SMOOTH",
"1437 0 OFFCURVE",
"1460 131 OFFCURVE",
"1460 278 CURVE SMOOTH",
"1460 1296 LINE SMOOTH",
"1460 1383 OFFCURVE",
"1390 1453 OFFCURVE",
"1303 1453 CURVE SMOOTH",
"1215 1453 OFFCURVE",
"1147 1383 OFFCURVE",
"1147 1296 CURVE SMOOTH",
"1147 497 LINE",
"557 1297 LINE SMOOTH",
"494 1383 OFFCURVE",
"417 1452 OFFCURVE",
"332 1453 CURVE",
"232 1453 OFFCURVE",
"150 1380 OFFCURVE",
"150 1249 CURVE SMOOTH",
"150 157 LINE SMOOTH",
"150 70 OFFCURVE",
"218 0 OFFCURVE"
);
}
);
width = 1610;
}
);
leftKerningGroup = H_Right;
rightKerningGroup = H_Left;
unicode = 004E;
userData = {
anchors = (
);
b = {
};
com.typemytype.robofont.layerData = {
b = {
anchors = (
);
components = (
);
contours = (
);
lib = {
};
name = N;
unicodes = (
);
width = 1499;
};
};
components = (
);
contours = (
);
lib = {
};
name = N;
unicodes = (
);
width = 1557;
};
},
{
glyphname = O;
lastChange = "2013-12-30 03:19:54 -0800";
layers = (
{
anchors = (
{
name = ogonek;
position = "{817, 9}";
},
{
name = top;
position = "{799, 1438}";
}
);
layerId = "F10CBA7B-FAF3-4DDE-A14D-E99DB7E222CB";
name = Light;
paths = (
{
closed = 1;
nodes = (
"387 1438 OFFCURVE",
"130 1156 OFFCURVE",
"130 708 CURVE SMOOTH",
"130 260 OFFCURVE",
"387 -22 OFFCURVE",
"799 -22 CURVE SMOOTH",
"1210 -22 OFFCURVE",
"1467 260 OFFCURVE",
"1467 708 CURVE SMOOTH",
"1467 1156 OFFCURVE",
"1210 1438 OFFCURVE",
"799 1438 CURVE SMOOTH"
);
},
{
closed = 1;
nodes = (
"1098 1296 OFFCURVE",
"1279 1074 OFFCURVE",
"1279 708 CURVE SMOOTH",
"1279 342 OFFCURVE",
"1098 120 OFFCURVE",
"799 120 CURVE SMOOTH",
"500 120 OFFCURVE",
"318 342 OFFCURVE",
"318 708 CURVE SMOOTH",
"318 1074 OFFCURVE",
"500 1296 OFFCURVE",
"799 1296 CURVE SMOOTH"
);
}
);
width = 1597;
},
{
anchors = (
{
name = top;
position = "{816, 1452}";
}
);
layerId = "FB5FCFFA-D9F2-48E1-8F42-8D172ED4E960";
name = Bold;
paths = (
{
closed = 1;
nodes = (
"817 224 CURVE SMOOTH",
"584 224 OFFCURVE",
"491 367 OFFCURVE",
"491 725 CURVE SMOOTH",
"491 1084 OFFCURVE",
"584 1227 OFFCURVE",
"817 1227 CURVE SMOOTH",
"1051 1227 OFFCURVE",
"1144 1084 OFFCURVE",
"1144 725 CURVE SMOOTH",
"1144 367 OFFCURVE",
"1051 224 OFFCURVE"
);
},
{
closed = 1;
nodes = (
"817 -35 CURVE SMOOTH",
"1287 -35 OFFCURVE",
"1532 226 OFFCURVE",
"1532 725 CURVE SMOOTH",
"1532 1225 OFFCURVE",
"1287 1486 OFFCURVE",
"817 1486 CURVE SMOOTH",
"347 1486 OFFCURVE",
"102 1225 OFFCURVE",
"102 725 CURVE SMOOTH",
"102 226 OFFCURVE",
"347 -35 OFFCURVE"
);
}
);
width = 1634;
}
);
leftKerningGroup = O_Right;
rightKerningGroup = O_Left;
unicode = 004F;
userData = {
anchors = (
);
b = {
};
com.typemytype.robofont.guides = (
);
com.typemytype.robofont.layerData = {
b = {
anchors = (
);
components = (
);
contours = (
);
lib = {
};
name = O;
unicodes = (
);
width = 1597;
};
};
components = (
);
contours = (
);
lib = {
};
name = O;
unicodes = (
);
width = 1604;
};
},
{
glyphname = P;
lastChange = "2013-12-30 03:19:54 -0800";
layers = (
{
anchors = (
{
name = top;
position = "{641, 1438}";
}
);
layerId = "F10CBA7B-FAF3-4DDE-A14D-E99DB7E222CB";
name = Light;
paths = (
{
closed = 1;
nodes = (
"268 1426 LINE SMOOTH",
"217 1426 OFFCURVE",
"178 1387 OFFCURVE",
"178 1339 CURVE SMOOTH",
"178 84 LINE SMOOTH",
"178 28 OFFCURVE",
"222 0 OFFCURVE",
"267 0 CURVE SMOOTH",
"311 0 OFFCURVE",
"356 27 OFFCURVE",
"356 84 CURVE SMOOTH",
"356 628 LINE",
"669 628 LINE SMOOTH",
"962 628 OFFCURVE",
"1182 722 OFFCURVE",
"1182 1026 CURVE SMOOTH",
"1182 1324 OFFCURVE",
"993 1426 OFFCURVE",
"684 1426 CURVE SMOOTH"
);
},
{
closed = 1;
nodes = (
"914 1285 OFFCURVE",
"1008 1210 OFFCURVE",
"1008 1026 CURVE SMOOTH",
"1008 838 OFFCURVE",
"901 764 OFFCURVE",
"670 764 CURVE SMOOTH",
"356 764 LINE",
"356 1285 LINE",
"684 1285 LINE SMOOTH"
);
}
);
width = 1201;
},
{
anchors = (
{
name = top;
position = "{736, 1438}";
}
);
layerId = "FB5FCFFA-D9F2-48E1-8F42-8D172ED4E960";
name = Bold;
paths = (
{
closed = 1;
nodes = (
"335 0 CURVE SMOOTH",
"437 0 OFFCURVE",
"522 86 OFFCURVE",
"522 195 CURVE SMOOTH",
"522 554 LINE",
"780 554 LINE SMOOTH",
"1133 554 OFFCURVE",
"1341 699 OFFCURVE",
"1341 1005 CURVE SMOOTH",
"1341 1361 OFFCURVE",
"1087 1453 OFFCURVE",
"780 1453 CURVE SMOOTH",
"390 1453 LINE SMOOTH",
"175 1453 OFFCURVE",
"150 1331 OFFCURVE",
"150 1178 CURVE SMOOTH",
"150 195 LINE SMOOTH",
"150 86 OFFCURVE",
"232 0 OFFCURVE"
);
},
{
closed = 1;
nodes = (
"522 777 LINE",
"522 1216 LINE",
"736 1216 LINE SMOOTH",
"892 1216 OFFCURVE",
"977 1182 OFFCURVE",
"977 1005 CURVE SMOOTH",
"977 821 OFFCURVE",
"889 781 OFFCURVE",
"719 777 CURVE"
);
}
);
width = 1373;
}
);
leftKerningGroup = H_Right;
rightKerningGroup = P_Left;
unicode = 0050;
userData = {
anchors = (
);
b = {
};
com.typemytype.robofont.layerData = {
b = {
anchors = (
);
components = (
);
contours = (
{
points = (
{
segmentType = curve;
smooth = 1;
x = 266;
y = 0;
},
{
segmentType = line;
smooth = 1;
x = 1035;
y = 0;
},
{
smooth = 0;
x = 1084;
y = 0;
},
{
smooth = 0;
x = 1108;
y = 34;
},
{
segmentType = curve;
smooth = 1;
x = 1108;
y = 71;
},
{
smooth = 0;
x = 1108;
y = 107;
},
{
smooth = 0;
x = 1084;
y = 141;
},
{
segmentType = curve;
smooth = 1;
x = 1035;
y = 141;
},
{
segmentType = line;
smooth = 0;
x = 356;
y = 141;
},
{
segmentType = line;
smooth = 0;
x = 356;
y = 665;
},
{
segmentType = line;
smooth = 1;
x = 975;
y = 665;
},
{
smooth = 0;
x = 1024;
y = 665;
},
{
smooth = 0;
x = 1049;
y = 698;
},
{
segmentType = curve;
smooth = 1;
x = 1049;
y = 734;
},
{
smooth = 0;
x = 1049;
y = 770;
},
{
smooth = 0;
x = 1026;
y = 803;
},
{
segmentType = curve;
smooth = 1;
x = 975;
y = 803;
},
{
segmentType = line;
smooth = 0;
x = 356;
y = 803;
},
{
segmentType = line;
smooth = 0;
x = 356;
y = 1285;
},
{
segmentType = line;
smooth = 1;
x = 1007;
y = 1285;
},
{
smooth = 0;
x = 1056;
y = 1285;
},
{
smooth = 0;
x = 1080;
y = 1319;
},
{
segmentType = curve;
smooth = 1;
x = 1080;
y = 1356;
},
{
smooth = 0;
x = 1080;
y = 1392;
},
{
smooth = 0;
x = 1056;
y = 1426;
},
{
segmentType = curve;
smooth = 1;
x = 1007;
y = 1426;
},
{
segmentType = line;
smooth = 1;
x = 261;
y = 1426;
},
{
smooth = 0;
x = 213;
y = 1426;
},
{
smooth = 0;
x = 178;
y = 1383;
},
{
segmentType = curve;
smooth = 1;
x = 178;
y = 1340;
},
{
segmentType = line;
smooth = 1;
x = 178;
y = 86;
},
{
smooth = 0;
x = 178;
y = 41;
},
{
smooth = 0;
x = 222;
y = 0;
}
);
}
);
lib = {
};
name = P;
unicodes = (
);
width = 1201;
};
};
components = (
);
contours = (
);
lib = {
};
name = P;
unicodes = (
);
width = 1319;
};
},
{
glyphname = Q;
lastChange = "2013-12-30 03:19:54 -0800";
layers = (
{
layerId = "F10CBA7B-FAF3-4DDE-A14D-E99DB7E222CB";
name = Light;
paths = (
{
closed = 1;
nodes = (
"361 1438 OFFCURVE",
"128 1129 OFFCURVE",
"128 702 CURVE SMOOTH",
"128 264 OFFCURVE",
"375 -22 OFFCURVE",
"799 -22 CURVE SMOOTH",
"859 -22 OFFCURVE",
"910 -15 OFFCURVE",
"979 0 CURVE",
"1449 0 LINE",
"1497 1 OFFCURVE",
"1521 35 OFFCURVE",
"1521 72 CURVE SMOOTH",
"1521 107 OFFCURVE",
"1497 142 OFFCURVE",
"1449 142 CURVE SMOOTH",
"1223 142 LINE",
"1374 289 OFFCURVE",
"1467 489 OFFCURVE",
"1467 704 CURVE SMOOTH",
"1467 1133 OFFCURVE",
"1233 1438 OFFCURVE",
"799 1438 CURVE SMOOTH"
);
},
{
closed = 1;
nodes = (
"1140 1293 OFFCURVE",
"1279 1000 OFFCURVE",
"1279 702 CURVE SMOOTH",
"1279 409 OFFCURVE",
"1138 119 OFFCURVE",
"799 119 CURVE SMOOTH",
"447 119 OFFCURVE",
"319 428 OFFCURVE",
"319 702 CURVE SMOOTH",
"319 1011 OFFCURVE",
"461 1293 OFFCURVE",
"799 1293 CURVE SMOOTH"
);
}
);
width = 1597;
},
{
layerId = "FB5FCFFA-D9F2-48E1-8F42-8D172ED4E960";
name = Bold;
paths = (
{
closed = 1;
nodes = (
"822 -35 CURVE SMOOTH",
"894 -35 OFFCURVE",
"1017 -18 OFFCURVE",
"1053 -15 CURVE",
"1412 -1 LINE SMOOTH",
"1525 3 OFFCURVE",
"1581 42 OFFCURVE",
"1581 125 CURVE SMOOTH",
"1581 224 OFFCURVE",
"1491 246 OFFCURVE",
"1403 246 CURVE SMOOTH",
"1325 246 LINE",
"1445 369 OFFCURVE",
"1526 538 OFFCURVE",
"1526 735 CURVE SMOOTH",
"1526 1196 OFFCURVE",
"1278 1486 OFFCURVE",
"817 1486 CURVE SMOOTH",
"340 1486 OFFCURVE",
"102 1167 OFFCURVE",
"102 725 CURVE SMOOTH",
"102 265 OFFCURVE",
"355 -35 OFFCURVE"
);
},
{
closed = 1;
nodes = (
"817 224 CURVE SMOOTH",
"593 224 OFFCURVE",
"491 394 OFFCURVE",
"491 725 CURVE SMOOTH",
"491 1045 OFFCURVE",
"593 1227 OFFCURVE",
"817 1227 CURVE SMOOTH",
"1043 1227 OFFCURVE",
"1144 1045 OFFCURVE",
"1144 725 CURVE SMOOTH",
"1144 393 OFFCURVE",
"1037 224 OFFCURVE"
);
}
);
width = 1623;
}
);
leftKerningGroup = O_Right;
rightKerningGroup = O_Left;
unicode = 0051;
userData = {
anchors = (
);
b = {
};
com.typemytype.robofont.layerData = {
b = {
anchors = (
);
components = (
);
contours = (
);
lib = {
};
name = Q;
unicodes = (
);
width = 1597;
};
};
components = (
);
contours = (
);
lib = {
};
name = Q;
unicodes = (
);
width = 1604;
};
},
{
glyphname = R;
lastChange = "2013-12-30 03:19:54 -0800";
layers = (
{
anchors = (
{
name = bot;
position = "{701, 0}";
},
{
name = top;
position = "{684, 1438}";
}
);
layerId = "F10CBA7B-FAF3-4DDE-A14D-E99DB7E222CB";
name = Light;
paths = (
{
closed = 1;
nodes = (
"267 1426 LINE SMOOTH",
"218 1426 OFFCURVE",
"178 1387 OFFCURVE",
"178 1340 CURVE SMOOTH",
"178 84 LINE SMOOTH",
"178 28 OFFCURVE",
"222 0 OFFCURVE",
"266 0 CURVE SMOOTH",
"310 0 OFFCURVE",
"356 27 OFFCURVE",
"356 84 CURVE SMOOTH",
"356 664 LINE",
"712 664 LINE SMOOTH",
"924 664 OFFCURVE",
"965 614 OFFCURVE",
"993 366 CURVE SMOOTH",
"1025 81 LINE SMOOTH",
"1031 26 OFFCURVE",
"1079 0 OFFCURVE",
"1122 0 CURVE SMOOTH",
"1170 0 OFFCURVE",
"1210 38 OFFCURVE",
"1203 95 CURVE SMOOTH",
"1165 426 LINE SMOOTH",
"1145 599 OFFCURVE",
"1069 707 OFFCURVE",
"909 740 CURVE",
"909 744 LINE",
"1110 785 OFFCURVE",
"1201 912 OFFCURVE",
"1201 1069 CURVE SMOOTH",
"1201 1370 OFFCURVE",
"940 1426 OFFCURVE",
"695 1426 CURVE SMOOTH"
);
},
{
closed = 1;
nodes = (
"837 1285 OFFCURVE",
"1025 1267 OFFCURVE",
"1025 1056 CURVE SMOOTH",
"1025 843 OFFCURVE",
"856 801 OFFCURVE",
"676 801 CURVE SMOOTH",
"356 801 LINE",
"356 1285 LINE",
"694 1285 LINE SMOOTH"
);
}
);
width = 1363;
},
{
anchors = (
{
name = bot;
position = "{762, 0}";
},
{
name = top;
position = "{736, 1438}";
}
);
layerId = "FB5FCFFA-D9F2-48E1-8F42-8D172ED4E960";
name = Bold;
paths = (
{
closed = 1;
nodes = (
"335 0 CURVE SMOOTH",
"438 0 OFFCURVE",
"521 64 OFFCURVE",
"521 195 CURVE SMOOTH",
"521 598 LINE",
"724 598 LINE SMOOTH",
"883.71 598 OFFCURVE",
"928.401 524.388 OFFCURVE",
"953.984 372.902 CURVE SMOOTH",
"959.957 337.532 OFFCURVE",
"964.889 297.916 OFFCURVE",
"970 254 CURVE SMOOTH",
"990 86 OFFCURVE",
"1030 0 OFFCURVE",
"1173 0 CURVE SMOOTH",
"1327.12 0 OFFCURVE",
"1359.37 21.1765 OFFCURVE",
"1328 280 CURVE",
"1323.18 332.315 OFFCURVE",
"1318.51 379.169 OFFCURVE",
"1312.88 421.079 CURVE SMOOTH",
"1284.66 631.518 OFFCURVE",
"1232.65 717.315 OFFCURVE",
"1020 744 CURVE",
"1020 748 LINE",
"1257 788 OFFCURVE",
"1342 922 OFFCURVE",
"1342 1088 CURVE SMOOTH",
"1342 1391 OFFCURVE",
"1075 1453 OFFCURVE",
"779 1453 CURVE SMOOTH",
"378 1453 LINE SMOOTH",
"255 1453 OFFCURVE",
"150 1392 OFFCURVE",
"150 1269 CURVE SMOOTH",
"150 195 LINE SMOOTH",
"150 69 OFFCURVE",
"232 0 OFFCURVE"
);
},
{
closed = 1;
nodes = (
"515 830 LINE",
"515 1228 LINE",
"666 1228 LINE SMOOTH",
"825 1228 OFFCURVE",
"978 1224 OFFCURVE",
"978 1029 CURVE SMOOTH",
"978 853 OFFCURVE",
"819 830 OFFCURVE",
"675 830 CURVE SMOOTH"
);
}
);
width = 1459;
}
);
leftKerningGroup = H_Right;
rightKerningGroup = R_Left;
unicode = 0052;
userData = {
anchors = (
);
b = {
};
com.typemytype.robofont.guides = (
);
com.typemytype.robofont.layerData = {
b = {
anchors = (
);
components = (
);
contours = (
{
points = (
{
segmentType = curve;
smooth = 1;
x = 267;
y = 0;
},
{
smooth = 0;
x = 311;
y = 0;
},
{
smooth = 0;
x = 356;
y = 27;
},
{
segmentType = curve;
smooth = 1;
x = 356;
y = 84;
},
{
segmentType = line;
smooth = 0;
x = 356;
y = 628;
},
{
segmentType = line;
smooth = 1;
x = 669;
y = 628;
},
{
smooth = 0;
x = 962;
y = 628;
},
{
smooth = 0;
x = 1182;
y = 722;
},
{
segmentType = curve;
smooth = 1;
x = 1182;
y = 1026;
},
{
smooth = 0;
x = 1182;
y = 1324;
},
{
smooth = 0;
x = 993;
y = 1426;
},
{
segmentType = curve;
smooth = 1;
x = 684;
y = 1426;
},
{
segmentType = line;
smooth = 1;
x = 268;
y = 1426;
},
{
smooth = 0;
x = 217;
y = 1426;
},
{
smooth = 0;
x = 178;
y = 1387;
},
{
segmentType = curve;
smooth = 1;
x = 178;
y = 1339;
},
{
segmentType = line;
smooth = 1;
x = 178;
y = 84;
},
{
smooth = 0;
x = 178;
y = 28;
},
{
smooth = 0;
x = 222;
y = 0;
}
);
},
{
points = (
{
segmentType = line;
smooth = 0;
x = 356;
y = 764;
},
{
segmentType = line;
smooth = 0;
x = 356;
y = 1285;
},
{
segmentType = line;
smooth = 1;
x = 684;
y = 1285;
},
{
smooth = 0;
x = 914;
y = 1285;
},
{
smooth = 0;
x = 1008;
y = 1210;
},
{
segmentType = curve;
smooth = 1;
x = 1008;
y = 1026;
},
{
smooth = 0;
x = 1008;
y = 838;
},
{
smooth = 0;
x = 901;
y = 764;
},
{
segmentType = curve;
smooth = 1;
x = 670;
y = 764;
}
);
}
);
lib = {
};
name = R;
unicodes = (
);
width = 1363;
};
};
components = (
);
contours = (
);
lib = {
};
name = R;
unicodes = (
);
width = 1408;
};
},
{
glyphname = S;
lastChange = "2013-12-30 03:19:54 -0800";
layers = (
{
anchors = (
{
name = bot;
position = "{637, 9}";
},
{
name = top;
position = "{646, 1438}";
}
);
layerId = "F10CBA7B-FAF3-4DDE-A14D-E99DB7E222CB";
name = Light;
paths = (
{
closed = 1;
nodes = (
"363 1438 OFFCURVE",
"145 1296 OFFCURVE",
"145 1064 CURVE SMOOTH",
"145 864 OFFCURVE",
"268 773 OFFCURVE",
"459 709 CURVE SMOOTH",
"730 618 LINE SMOOTH",
"901 561 OFFCURVE",
"982 513 OFFCURVE",
"982 359 CURVE SMOOTH",
"982 199 OFFCURVE",
"830 120 OFFCURVE",
"641 120 CURVE SMOOTH",
"466 120 OFFCURVE",
"331 190 OFFCURVE",
"252 255 CURVE SMOOTH",
"206 293 OFFCURVE",
"109 194 OFFCURVE",
"153 153 CURVE SMOOTH",
"255 56 OFFCURVE",
"410 -22 OFFCURVE",
"629 -22 CURVE SMOOTH",
"940 -22 OFFCURVE",
"1143 116 OFFCURVE",
"1154 360 CURVE SMOOTH",
"1165 598 OFFCURVE",
"1020 690 OFFCURVE",
"807 760 CURVE SMOOTH",
"535 849 LINE SMOOTH",
"390 896 OFFCURVE",
"316 952 OFFCURVE",
"316 1069 CURVE SMOOTH",
"316 1210 OFFCURVE",
"449 1296 OFFCURVE",
"654 1296 CURVE SMOOTH",
"820 1296 OFFCURVE",
"956 1219 OFFCURVE",
"1007 1183 CURVE SMOOTH",
"1077 1133 OFFCURVE",
"1156 1228 OFFCURVE",
"1097 1283 CURVE SMOOTH",
"1020 1355 OFFCURVE",
"839 1438 OFFCURVE",
"640 1438 CURVE SMOOTH"
);
}
);
width = 1274;
},
{
anchors = (
{
name = bot;
position = "{695, 0}";
},
{
name = top;
position = "{696, 1438}";
}
);
layerId = "FB5FCFFA-D9F2-48E1-8F42-8D172ED4E960";
name = Bold;
paths = (
{
closed = 1;
nodes = (
"695 -35 CURVE SMOOTH",
"1063 -35 OFFCURVE",
"1293 139 OFFCURVE",
"1293 419 CURVE SMOOTH",
"1293 675 OFFCURVE",
"1107 772 OFFCURVE",
"824 856 CURVE SMOOTH",
"773 871 OFFCURVE",
"722 884 OFFCURVE",
"674 899 CURVE SMOOTH",
"556 936 OFFCURVE",
"461 980 OFFCURVE",
"461 1073 CURVE SMOOTH",
"461 1184 OFFCURVE",
"592 1227 OFFCURVE",
"720 1227 CURVE SMOOTH",
"856 1227 OFFCURVE",
"939 1201 OFFCURVE",
"1064 1137 CURVE SMOOTH",
"1168.31 1081.78 OFFCURVE",
"1285.49 1254.55 OFFCURVE",
"1180 1351 CURVE SMOOTH",
"1077 1444 OFFCURVE",
"856 1486 OFFCURVE",
"706 1486 CURVE SMOOTH",
"338 1486 OFFCURVE",
"109 1315 OFFCURVE",
"109 1048 CURVE SMOOTH",
"109 845 OFFCURVE",
"208 750 OFFCURVE",
"451 662 CURVE",
"451 662 OFFCURVE",
"783 552 OFFCURVE",
"783 552 CURVE SMOOTH",
"867 522 OFFCURVE",
"936 477 OFFCURVE",
"936 388 CURVE SMOOTH",
"936 272 OFFCURVE",
"821 224 OFFCURVE",
"685 224 CURVE SMOOTH",
"560 224 OFFCURVE",
"442 264 OFFCURVE",
"350 305 CURVE",
"188.134 365.7 OFFCURVE",
"-9 233.337 OFFCURVE",
"167 101 CURVE SMOOTH",
"280 17 OFFCURVE",
"497 -35 OFFCURVE"
);
}
);
width = 1371;
}
);
leftKerningGroup = S_Right;
rightKerningGroup = S_Left;
unicode = 0053;
userData = {
anchors = (
);
b = {
};
com.typemytype.robofont.layerData = {
b = {
anchors = (
);
components = (
);
contours = (
);
lib = {
};
name = S;
unicodes = (
);
width = 1274;
};
};
components = (
);
contours = (
);
lib = {
};
name = S;
unicodes = (
);
width = 1317;
};
},
{
glyphname = T;
lastChange = "2013-12-30 03:19:54 -0800";
layers = (
{
anchors = (
{
name = bot;
position = "{582, 9}";
},
{
name = mid;
position = "{588, 739}";
},
{
name = top;
position = "{596, 1438}";
}
);
layerId = "F10CBA7B-FAF3-4DDE-A14D-E99DB7E222CB";
name = Light;
paths = (
{
closed = 1;
nodes = (
"101 1426 LINE SMOOTH",
"52 1426 OFFCURVE",
"27 1392 OFFCURVE",
"27 1355 CURVE SMOOTH",
"27 1319 OFFCURVE",
"52 1285 OFFCURVE",
"101 1285 CURVE SMOOTH",
"493 1285 LINE",
"493 85 LINE SMOOTH",
"493 29 OFFCURVE",
"537 0 OFFCURVE",
"582 0 CURVE SMOOTH",
"626 0 OFFCURVE",
"671 29 OFFCURVE",
"671 85 CURVE SMOOTH",
"671 1285 LINE",
"1056 1285 LINE SMOOTH",
"1105 1285 OFFCURVE",
"1131 1319 OFFCURVE",
"1131 1355 CURVE SMOOTH",
"1131 1392 OFFCURVE",
"1107 1426 OFFCURVE",
"1056 1426 CURVE SMOOTH"
);
}
);
width = 1158;
},
{
anchors = (
{
name = bot;
position = "{616, 0}";
},
{
name = mid;
position = "{625, 739}";
},
{
name = top;
position = "{632, 1454}";
}
);
layerId = "FB5FCFFA-D9F2-48E1-8F42-8D172ED4E960";
name = Bold;
paths = (
{
closed = 1;
nodes = (
"620 0 CURVE SMOOTH",
"723 0 OFFCURVE",
"806 86 OFFCURVE",
"806 195 CURVE SMOOTH",
"806 1188 LINE",
"1074 1188 LINE SMOOTH",
"1151 1188 OFFCURVE",
"1217 1248 OFFCURVE",
"1217 1320 CURVE SMOOTH",
"1217 1393 OFFCURVE",
"1151 1453 OFFCURVE",
"1074 1453 CURVE SMOOTH",
"161 1453 LINE SMOOTH",
"84 1453 OFFCURVE",
"18 1393 OFFCURVE",
"18 1320 CURVE SMOOTH",
"18 1248 OFFCURVE",
"84 1188 OFFCURVE",
"161 1188 CURVE SMOOTH",
"435 1188 LINE",
"435 195 LINE SMOOTH",
"435 86 OFFCURVE",
"517 0 OFFCURVE"
);
}
);
width = 1238;
}
);
leftKerningGroup = T_Right;
rightKerningGroup = T_Left;
unicode = 0054;
userData = {
anchors = (
);
b = {
};
com.typemytype.robofont.layerData = {
b = {
anchors = (
);
components = (
);
contours = (
{
points = (
{
segmentType = curve;
smooth = 1;
x = 581;
y = 0;
},
{
segmentType = line;
smooth = 1;
x = 1350;
y = 0;
},
{
smooth = 0;
x = 1399;
y = 0;
},
{
smooth = 0;
x = 1423;
y = 34;
},
{
segmentType = curve;
smooth = 1;
x = 1423;
y = 71;
},
{
smooth = 0;
x = 1423;
y = 107;
},
{
smooth = 0;
x = 1399;
y = 141;
},
{
segmentType = curve;
smooth = 1;
x = 1350;
y = 141;
},
{
segmentType = line;
smooth = 0;
x = 671;
y = 141;
},
{
segmentType = line;
smooth = 0;
x = 671;
y = 665;
},
{
segmentType = line;
smooth = 1;
x = 1290;
y = 665;
},
{
smooth = 0;
x = 1339;
y = 665;
},
{
smooth = 0;
x = 1364;
y = 698;
},
{
segmentType = curve;
smooth = 1;
x = 1364;
y = 734;
},
{
smooth = 0;
x = 1364;
y = 770;
},
{
smooth = 0;
x = 1341;
y = 803;
},
{
segmentType = curve;
smooth = 1;
x = 1290;
y = 803;
},
{
segmentType = line;
smooth = 0;
x = 671;
y = 803;
},
{
segmentType = line;
smooth = 0;
x = 671;
y = 1285;
},
{
segmentType = line;
smooth = 1;
x = 1322;
y = 1285;
},
{
smooth = 0;
x = 1371;
y = 1285;
},
{
smooth = 0;
x = 1395;
y = 1319;
},
{
segmentType = curve;
smooth = 1;
x = 1395;
y = 1356;
},
{
smooth = 0;
x = 1395;
y = 1392;
},
{
smooth = 0;
x = 1371;
y = 1426;
},
{
segmentType = curve;
smooth = 1;
x = 1322;
y = 1426;
},
{
segmentType = line;
smooth = 1;
x = 576;
y = 1426;
},
{
smooth = 0;
x = 528;
y = 1426;
},
{
smooth = 0;
x = 493;
y = 1383;
},
{
segmentType = curve;
smooth = 1;
x = 493;
y = 1340;
},
{
segmentType = line;
smooth = 1;
x = 493;
y = 86;
},
{
smooth = 0;
x = 493;
y = 41;
},
{
smooth = 0;
x = 537;
y = 0;
}
);
}
);
lib = {
};
name = T;
unicodes = (
);
width = 1158;
};
};
components = (
);
contours = (
);
lib = {
};
name = T;
unicodes = (
);
width = 1199;
};
},
{
glyphname = U;
lastChange = "2013-12-30 03:19:54 -0800";
layers = (
{
anchors = (
{
name = ogonek;
position = "{858, 9}";
},
{
name = top;
position = "{756, 1438}";
}
);
layerId = "F10CBA7B-FAF3-4DDE-A14D-E99DB7E222CB";
name = Light;
paths = (
{
closed = 1;
nodes = (
"1168 1426 OFFCURVE",
"1124 1397 OFFCURVE",
"1124 1341 CURVE SMOOTH",
"1124 500 LINE SMOOTH",
"1124 242 OFFCURVE",
"934 120 OFFCURVE",
"745 120 CURVE SMOOTH",
"556 120 OFFCURVE",
"367 242 OFFCURVE",
"367 500 CURVE SMOOTH",
"367 1341 LINE SMOOTH",
"367 1398 OFFCURVE",
"323 1426 OFFCURVE",
"279 1426 CURVE SMOOTH",
"233 1426 OFFCURVE",
"189 1397 OFFCURVE",
"189 1341 CURVE SMOOTH",
"189 496 LINE SMOOTH",
"189 145 OFFCURVE",
"457 -22 OFFCURVE",
"745 -22 CURVE SMOOTH",
"1033 -22 OFFCURVE",
"1302 145 OFFCURVE",
"1302 496 CURVE SMOOTH",
"1302 1341 LINE SMOOTH",
"1302 1398 OFFCURVE",
"1258 1426 OFFCURVE",
"1214 1426 CURVE SMOOTH"
);
}
);
width = 1490;
},
{
anchors = (
{
name = ogonek;
position = "{948, 9}";
},
{
name = top;
position = "{776, 1438}";
}
);
layerId = "FB5FCFFA-D9F2-48E1-8F42-8D172ED4E960";
name = Bold;
paths = (
{
closed = 1;
nodes = (
"769 -35 CURVE SMOOTH",
"1134 -35 OFFCURVE",
"1396 141 OFFCURVE",
"1396 492 CURVE SMOOTH",
"1396 1258 LINE SMOOTH",
"1396 1367 OFFCURVE",
"1313 1453 OFFCURVE",
"1210 1453 CURVE SMOOTH",
"1107 1453 OFFCURVE",
"1025 1367 OFFCURVE",
"1025 1258 CURVE SMOOTH",
"1025 498 LINE SMOOTH",
"1025 306 OFFCURVE",
"895 224 OFFCURVE",
"769 224 CURVE SMOOTH",
"644 224 OFFCURVE",
"516 306 OFFCURVE",
"516 498 CURVE SMOOTH",
"515 1258 LINE SMOOTH",
"515 1367 OFFCURVE",
"432 1453 OFFCURVE",
"329 1453 CURVE SMOOTH",
"226 1453 OFFCURVE",
"144 1367 OFFCURVE",
"144 1258 CURVE SMOOTH",
"144 492 LINE SMOOTH",
"144 136 OFFCURVE",
"409 -35 OFFCURVE"
);
}
);
width = 1539;
}
);
leftKerningGroup = U_Right;
rightKerningGroup = U_Left;
unicode = 0055;
userData = {
anchors = (
);
b = {
};
com.typemytype.robofont.layerData = {
b = {
anchors = (
);
components = (
);
contours = (
);
lib = {
};
name = U;
unicodes = (
);
width = 1490;
};
};
components = (
);
contours = (
);
lib = {
};
name = U;
unicodes = (
);
width = 1513;
};
},
{
glyphname = V;
lastChange = "2013-12-30 03:19:54 -0800";
layers = (
{
layerId = "F10CBA7B-FAF3-4DDE-A14D-E99DB7E222CB";
name = Light;
paths = (
{
closed = 1;
nodes = (
"651 192 LINE",
"651 -5 LINE",
"714 -5 OFFCURVE",
"767 35 OFFCURVE",
"798 117 CURVE SMOOTH",
"1251 1318 LINE SMOOTH",
"1288 1415 OFFCURVE",
"1127 1476 OFFCURVE",
"1088 1370 CURVE SMOOTH"
);
},
{
closed = 1;
nodes = (
"175 1476 OFFCURVE",
"14 1415 OFFCURVE",
"51 1318 CURVE SMOOTH",
"504 117 LINE SMOOTH",
"535 35 OFFCURVE",
"588 -5 OFFCURVE",
"651 -5 CURVE",
"651 192 LINE",
"214 1370 LINE SMOOTH"
);
}
);
width = 1289;
},
{
layerId = "FB5FCFFA-D9F2-48E1-8F42-8D172ED4E960";
name = Bold;
paths = (
{
closed = 1;
nodes = (
"717 0 CURVE",
"919 0 OFFCURVE",
"960 100 OFFCURVE",
"1060 380 CURVE SMOOTH",
"1356 1209 LINE SMOOTH",
"1450 1462 OFFCURVE",
"1115 1568 OFFCURVE",
"1021 1286 CURVE SMOOTH",
"717 371 LINE",
"717 371 OFFCURVE",
"717 0 OFFCURVE"
);
},
{
closed = 1;
nodes = (
"717 0 CURVE",
"717 0 OFFCURVE",
"717 371 OFFCURVE",
"717 371 CURVE",
"413 1286 LINE SMOOTH",
"319.102 1567.69 OFFCURVE",
"-16 1461.99 OFFCURVE",
"78 1209 CURVE SMOOTH",
"374 380 LINE SMOOTH",
"474 100 OFFCURVE",
"515 0 OFFCURVE"
);
}
);
width = 1451;
}
);
leftKerningGroup = V_Right;
rightKerningGroup = V_Left;
unicode = 0056;
userData = {
anchors = (
);
b = {
};
com.typemytype.robofont.guides = (
);
com.typemytype.robofont.layerData = {
b = {
anchors = (
);
components = (
);
contours = (
{
points = (
{
segmentType = curve;
smooth = 1;
x = 644;
y = "-5";
},
{
smooth = 0;
x = 712;
y = "-5";
},
{
smooth = 0;
x = 764;
y = 38;
},
{
segmentType = curve;
smooth = 1;
x = 793;
y = 117;
},
{
segmentType = line;
smooth = 1;
x = 1243;
y = 1324;
},
{
smooth = 0;
x = 1247;
y = 1335;
},
{
smooth = 0;
x = 1248;
y = 1342;
},
{
segmentType = curve;
smooth = 1;
x = 1248;
y = 1351;
},
{
smooth = 0;
x = 1248;
y = 1395;
},
{
smooth = 0;
x = 1203;
y = 1427;
},
{
segmentType = curve;
smooth = 1;
x = 1160;
y = 1427;
},
{
smooth = 0;
x = 1125;
y = 1427;
},
{
smooth = 0;
x = 1090;
y = 1408;
},
{
segmentType = curve;
smooth = 1;
x = 1076;
y = 1369;
},
{
segmentType = line;
smooth = 0;
x = 651;
y = 192;
},
{
segmentType = line;
smooth = 0;
x = 650;
y = 190;
},
{
segmentType = line;
smooth = 1;
x = 214;
y = 1370;
},
{
smooth = 0;
x = 200;
y = 1407;
},
{
smooth = 0;
x = 170;
y = 1427;
},
{
segmentType = curve;
smooth = 1;
x = 135;
y = 1427;
},
{
smooth = 0;
x = 90;
y = 1427;
},
{
smooth = 0;
x = 43;
y = 1392;
},
{
segmentType = curve;
smooth = 1;
x = 43;
y = 1344;
},
{
smooth = 0;
x = 43;
y = 1336;
},
{
smooth = 0;
x = 44;
y = 1326;
},
{
segmentType = curve;
smooth = 0;
x = 48;
y = 1318;
},
{
segmentType = line;
smooth = 1;
x = 501;
y = 117;
},
{
smooth = 0;
x = 532;
y = 35;
},
{
smooth = 0;
x = 581;
y = "-5";
}
);
}
);
lib = {
};
name = V;
unicodes = (
);
width = 1289;
};
};
components = (
);
contours = (
);
lib = {
};
name = V;
unicodes = (
);
width = 1365;
};
},
{
glyphname = W;
lastChange = "2013-12-30 03:19:54 -0800";
layers = (
{
anchors = (
{
name = top;
position = "{1057, 1438}";
}
);
layerId = "F10CBA7B-FAF3-4DDE-A14D-E99DB7E222CB";
name = Light;
paths = (
{
closed = 1;
nodes = (
"1059 1224 LINE",
"1442 112 LINE SMOOTH",
"1466 41 OFFCURVE",
"1687 35 OFFCURVE",
"1708 112 CURVE SMOOTH",
"2042 1320 LINE SMOOTH",
"2075 1441 OFFCURVE",
"1905 1471 OFFCURVE",
"1878 1368 CURVE SMOOTH",
"1567 186 LINE",
"1189 1299 LINE SMOOTH",
"1166 1367 OFFCURVE",
"1114 1426 OFFCURVE",
"1059 1426 CURVE"
);
},
{
closed = 1;
nodes = (
"1004 1426 OFFCURVE",
"952 1367 OFFCURVE",
"929 1299 CURVE SMOOTH",
"551 186 LINE",
"240 1368 LINE SMOOTH",
"213 1471 OFFCURVE",
"43 1441 OFFCURVE",
"76 1320 CURVE SMOOTH",
"410 112 LINE SMOOTH",
"431 35 OFFCURVE",
"652 41 OFFCURVE",
"676 112 CURVE SMOOTH",
"1059 1224 LINE",
"1059 1426 LINE"
);
}
);
width = 2126;
},
{
anchors = (
{
name = top;
position = "{1105, 1438}";
}
);
layerId = "FB5FCFFA-D9F2-48E1-8F42-8D172ED4E960";
name = Bold;
paths = (
{
closed = 1;
nodes = (
"1881 159 CURVE SMOOTH",
"2136 1255 LINE SMOOTH",
"2185 1467 OFFCURVE",
"1870 1570 OFFCURVE",
"1814 1308 CURVE SMOOTH",
"1612 356 LINE",
"1378 1176 LINE SMOOTH",
"1331 1342 OFFCURVE",
"1274 1452 OFFCURVE",
"1107 1452 CURVE",
"1107 1120 LINE",
"1375 193 LINE SMOOTH",
"1458 -94 OFFCURVE",
"1830 -59 OFFCURVE"
);
},
{
closed = 1;
nodes = (
"333 159 LINE SMOOTH",
"384 -59 OFFCURVE",
"756 -94 OFFCURVE",
"839 193 CURVE SMOOTH",
"1107 1120 LINE",
"1107 1452 LINE",
"940 1452 OFFCURVE",
"883 1342 OFFCURVE",
"836 1176 CURVE SMOOTH",
"602 356 LINE",
"400 1308 LINE SMOOTH",
"344 1570 OFFCURVE",
"29 1467 OFFCURVE",
"78 1255 CURVE SMOOTH"
);
}
);
width = 2179;
}
);
leftKerningGroup = W_Right;
rightKerningGroup = W_Left;
unicode = 0057;
userData = {
anchors = (
);
b = {
};
com.typemytype.robofont.layerData = {
b = {
anchors = (
);
components = (
);
contours = (
);
lib = {
};
name = W;
unicodes = (
);
width = 2126;
};
};
components = (
);
contours = (
);
lib = {
};
name = W;
unicodes = (
);
width = 2070;
};
},
{
glyphname = X;
lastChange = "2013-12-30 03:19:54 -0800";
layers = (
{
layerId = "F10CBA7B-FAF3-4DDE-A14D-E99DB7E222CB";
name = Light;
paths = (
{
closed = 1;
nodes = (
"628 819 LINE",
"552 737 LINE",
"91 123 LINE SMOOTH",
"32 44 OFFCURVE",
"151 -56 OFFCURVE",
"222 41 CURVE SMOOTH",
"648 619 LINE",
"730 706 LINE",
"1175 1310 LINE SMOOTH",
"1234 1390 OFFCURVE",
"1112 1474 OFFCURVE",
"1044 1382 CURVE SMOOTH"
);
},
{
closed = 1;
nodes = (
"195 1479 OFFCURVE",
"65 1372 OFFCURVE",
"117 1303 CURVE SMOOTH",
"1036 40 LINE SMOOTH",
"1096 -46 OFFCURVE",
"1237 40 OFFCURVE",
"1178 125 CURVE SMOOTH",
"264 1384 LINE SMOOTH"
);
}
);
width = 1274;
},
{
layerId = "FB5FCFFA-D9F2-48E1-8F42-8D172ED4E960";
name = Bold;
paths = (
{
closed = 1;
nodes = (
"369 89 CURVE SMOOTH",
"725 553 LINE",
"884 725 LINE",
"1262 1211 LINE SMOOTH",
"1378.32 1356.4 OFFCURVE",
"1149.46 1576.18 OFFCURVE",
"987 1350 CURVE SMOOTH",
"674 920 LINE",
"514 759 LINE",
"131 287 LINE SMOOTH",
"-42 75.0465 OFFCURVE",
"221.721 -103 OFFCURVE"
);
},
{
closed = 1;
nodes = (
"981 80 LINE SMOOTH",
"1145.13 -139 OFFCURVE",
"1400.94 73 OFFCURVE",
"1267 246 CURVE SMOOTH",
"421 1370 LINE SMOOTH",
"269.731 1573.88 OFFCURVE",
"0 1385.82 OFFCURVE",
"149 1185 CURVE SMOOTH"
);
}
);
width = 1374;
}
);
rightKerningGroup = X_Left;
unicode = 0058;
userData = {
anchors = (
);
b = {
};
com.typemytype.robofont.layerData = {
b = {
anchors = (
);
components = (
);
contours = (
{
points = (
{
segmentType = curve;
smooth = 1;
x = 151;
y = 0;
},
{
smooth = 0;
x = 176;
y = 0;
},
{
smooth = 0;
x = 201;
y = 12;
},
{
segmentType = curve;
smooth = 1;
x = 222;
y = 41;
},
{
segmentType = line;
smooth = 0;
x = 641;
y = 616;
},
{
segmentType = line;
smooth = 0;
x = 746;
y = 734;
},
{
segmentType = line;
smooth = 1;
x = 1175;
y = 1310;
},
{
smooth = 0;
x = 1186;
y = 1325;
},
{
smooth = 0;
x = 1190;
y = 1338;
},
{
segmentType = curve;
smooth = 1;
x = 1190;
y = 1353;
},
{
smooth = 0;
x = 1190;
y = 1393;
},
{
smooth = 0;
x = 1153;
y = 1426;
},
{
segmentType = curve;
smooth = 1;
x = 1110;
y = 1426;
},
{
smooth = 0;
x = 1083;
y = 1426;
},
{
smooth = 0;
x = 1058;
y = 1414;
},
{
segmentType = curve;
smooth = 1;
x = 1037;
y = 1385;
},
{
segmentType = line;
smooth = 0;
x = 648;
y = 844;
},
{
segmentType = line;
smooth = 0;
x = 542;
y = 732;
},
{
segmentType = line;
smooth = 1;
x = 84;
y = 121;
},
{
smooth = 0;
x = 73;
y = 106;
},
{
smooth = 0;
x = 68;
y = 91;
},
{
segmentType = curve;
smooth = 1;
x = 68;
y = 76;
},
{
smooth = 0;
x = 68;
y = 35;
},
{
smooth = 0;
x = 108;
y = 0;
}
);
},
{
points = (
{
segmentType = curve;
smooth = 1;
x = 1104;
y = 0;
},
{
smooth = 0;
x = 1151;
y = 0;
},
{
smooth = 0;
x = 1200;
y = 40;
},
{
segmentType = curve;
smooth = 1;
x = 1200;
y = 85;
},
{
smooth = 0;
x = 1200;
y = 98;
},
{
smooth = 0;
x = 1195;
y = 113;
},
{
segmentType = curve;
smooth = 0;
x = 1186;
y = 126;
},
{
segmentType = line;
smooth = 0;
x = 272;
y = 1385;
},
{
smooth = 0;
x = 252;
y = 1414;
},
{
smooth = 0;
x = 225;
y = 1426;
},
{
segmentType = curve;
smooth = 1;
x = 197;
y = 1426;
},
{
smooth = 0;
x = 149;
y = 1426;
},
{
smooth = 0;
x = 100;
y = 1388;
},
{
segmentType = curve;
smooth = 1;
x = 100;
y = 1343;
},
{
smooth = 0;
x = 100;
y = 1328;
},
{
smooth = 0;
x = 105;
y = 1315;
},
{
segmentType = curve;
smooth = 0;
x = 114;
y = 1303;
},
{
segmentType = line;
smooth = 0;
x = 1033;
y = 40;
},
{
smooth = 0;
x = 1052;
y = 13;
},
{
smooth = 0;
x = 1076;
y = 0;
}
);
}
);
lib = {
};
name = X;
unicodes = (
);
width = 1274;
};
};
components = (
);
contours = (
);
lib = {
};
name = X;
unicodes = (
);
width = 1322;
};
},
{
glyphname = Y;
lastChange = "2013-12-30 03:19:54 -0800";
layers = (
{
anchors = (
{
name = top;
position = "{666, 1438}";
}
);
layerId = "F10CBA7B-FAF3-4DDE-A14D-E99DB7E222CB";
name = Light;
paths = (
{
closed = 1;
nodes = (
"179 1476 OFFCURVE",
"31 1392 OFFCURVE",
"91 1301 CURVE SMOOTH",
"552 602 LINE",
"552 85 LINE SMOOTH",
"552 -27 OFFCURVE",
"730 -27 OFFCURVE",
"730 85 CURVE SMOOTH",
"730 607 LINE",
"1192 1311 LINE SMOOTH",
"1247 1395 OFFCURVE",
"1123 1477 OFFCURVE",
"1062 1382 CURVE SMOOTH",
"651 742 LINE",
"239 1383 LINE SMOOTH"
);
}
);
width = 1278;
},
{
anchors = (
{
name = top;
position = "{716, 1438}";
}
);
layerId = "FB5FCFFA-D9F2-48E1-8F42-8D172ED4E960";
name = Bold;
paths = (
{
closed = 1;
nodes = (
"510 184 LINE SMOOTH",
"510 -64 OFFCURVE",
"883 -64 OFFCURVE",
"883 184 CURVE SMOOTH",
"883 562 LINE",
"1266 1199 LINE SMOOTH",
"1383 1393 OFFCURVE",
"1113 1545 OFFCURVE",
"994 1335 CURVE SMOOTH",
"714 840 LINE",
"448 1324 LINE SMOOTH",
"309.008 1576.45 OFFCURVE",
"3.52632 1397.74 OFFCURVE",
"143 1169 CURVE SMOOTH",
"510 556 LINE"
);
}
);
width = 1391;
}
);
leftKerningGroup = Y_Right;
rightKerningGroup = Y_Left;
unicode = 0059;
userData = {
anchors = (
);
b = {
};
com.typemytype.robofont.guides = (
);
com.typemytype.robofont.layerData = {
b = {
anchors = (
);
components = (
);
contours = (
{
points = (
{
segmentType = curve;
smooth = 1;
x = 641;
y = 0;
},
{
smooth = 0;
x = 685;
y = 0;
},
{
smooth = 0;
x = 730;
y = 29;
},
{
segmentType = curve;
smooth = 1;
x = 730;
y = 85;
},
{
segmentType = line;
smooth = 0;
x = 730;
y = 1285;
},
{
segmentType = line;
smooth = 1;
x = 1115;
y = 1285;
},
{
smooth = 0;
x = 1164;
y = 1285;
},
{
smooth = 0;
x = 1190;
y = 1319;
},
{
segmentType = curve;
smooth = 1;
x = 1190;
y = 1355;
},
{
smooth = 0;
x = 1190;
y = 1392;
},
{
smooth = 0;
x = 1166;
y = 1426;
},
{
segmentType = curve;
smooth = 1;
x = 1115;
y = 1426;
},
{
segmentType = line;
smooth = 1;
x = 160;
y = 1426;
},
{
smooth = 0;
x = 111;
y = 1426;
},
{
smooth = 0;
x = 86;
y = 1392;
},
{
segmentType = curve;
smooth = 1;
x = 86;
y = 1355;
},
{
smooth = 0;
x = 86;
y = 1319;
},
{
smooth = 0;
x = 111;
y = 1285;
},
{
segmentType = curve;
smooth = 1;
x = 160;
y = 1285;
},
{
segmentType = line;
smooth = 0;
x = 552;
y = 1285;
},
{
segmentType = line;
smooth = 1;
x = 552;
y = 85;
},
{
smooth = 0;
x = 552;
y = 29;
},
{
smooth = 0;
x = 596;
y = 0;
}
);
}
);
lib = {
};
name = Y;
unicodes = (
);
width = 1278;
};
};
components = (
);
contours = (
);
lib = {
};
name = Y;
unicodes = (
);
width = 1321;
};
},
{
glyphname = Z;
lastChange = "2013-12-30 03:19:54 -0800";
layers = (
{
anchors = (
{
name = top;
position = "{636, 1438}";
}
);
layerId = "F10CBA7B-FAF3-4DDE-A14D-E99DB7E222CB";
name = Light;
paths = (
{
closed = 1;
nodes = (
"181 1426 LINE SMOOTH",
"132 1426 OFFCURVE",
"108 1392 OFFCURVE",
"108 1356 CURVE SMOOTH",
"108 1319 OFFCURVE",
"133 1285 OFFCURVE",
"181 1285 CURVE SMOOTH",
"910 1285 LINE",
"120 153 LINE SMOOTH",
"107 134 OFFCURVE",
"100 113 OFFCURVE",
"100 90 CURVE SMOOTH",
"100 44 OFFCURVE",
"132 0 OFFCURVE",
"208 0 CURVE SMOOTH",
"1029 0 LINE SMOOTH",
"1078 0 OFFCURVE",
"1103 34 OFFCURVE",
"1103 71 CURVE SMOOTH",
"1103 107 OFFCURVE",
"1078 141 OFFCURVE",
"1029 141 CURVE SMOOTH",
"299 141 LINE",
"1088 1273 LINE SMOOTH",
"1105 1297 OFFCURVE",
"1112 1322 OFFCURVE",
"1112 1343 CURVE SMOOTH",
"1112 1391 OFFCURVE",
"1077 1426 OFFCURVE",
"1021 1426 CURVE SMOOTH"
);
}
);
width = 1165;
},
{
anchors = (
{
name = top;
position = "{646, 1438}";
}
);
layerId = "FB5FCFFA-D9F2-48E1-8F42-8D172ED4E960";
name = Bold;
paths = (
{
closed = 1;
nodes = (
"223 0 CURVE SMOOTH",
"1053 0 LINE SMOOTH",
"1125 0 OFFCURVE",
"1183 57 OFFCURVE",
"1183 129 CURVE SMOOTH",
"1183 201 OFFCURVE",
"1125 259 OFFCURVE",
"1053 259 CURVE SMOOTH",
"514 259 LINE",
"1119 1180 LINE SMOOTH",
"1150 1227 OFFCURVE",
"1181 1284 OFFCURVE",
"1181 1329 CURVE SMOOTH",
"1181 1421 OFFCURVE",
"1104 1453 OFFCURVE",
"1012 1453 CURVE SMOOTH",
"219 1453 LINE SMOOTH",
"147 1453 OFFCURVE",
"90 1395 OFFCURVE",
"90 1323 CURVE SMOOTH",
"90 1251 OFFCURVE",
"147 1194 OFFCURVE",
"219 1194 CURVE SMOOTH",
"739 1194 LINE",
"138 276 LINE",
"103 227 OFFCURVE",
"75 166 OFFCURVE",
"75 122 CURVE SMOOTH",
"75 54 OFFCURVE",
"126 0 OFFCURVE"
);
}
);
width = 1233;
}
);
unicode = 005A;
userData = {
anchors = (
);
b = {
};
com.typemytype.robofont.layerData = {
b = {
anchors = (
);
components = (
);
contours = (
{
points = (
{
segmentType = curve;
smooth = 1;
x = 266;
y = 0;
},
{
segmentType = line;
smooth = 1;
x = 1035;
y = 0;
},
{
smooth = 0;
x = 1084;
y = 0;
},
{
smooth = 0;
x = 1108;
y = 34;
},
{
segmentType = curve;
smooth = 1;
x = 1108;
y = 71;
},
{
smooth = 0;
x = 1108;
y = 107;
},
{
smooth = 0;
x = 1084;
y = 141;
},
{
segmentType = curve;
smooth = 1;
x = 1035;
y = 141;
},
{
segmentType = line;
smooth = 0;
x = 356;
y = 141;
},
{
segmentType = line;
smooth = 0;
x = 356;
y = 665;
},
{
segmentType = line;
smooth = 1;
x = 975;
y = 665;
},
{
smooth = 0;
x = 1024;
y = 665;
},
{
smooth = 0;
x = 1049;
y = 698;
},
{
segmentType = curve;
smooth = 1;
x = 1049;
y = 734;
},
{
smooth = 0;
x = 1049;
y = 770;
},
{
smooth = 0;
x = 1026;
y = 803;
},
{
segmentType = curve;
smooth = 1;
x = 975;
y = 803;
},
{
segmentType = line;
smooth = 0;
x = 356;
y = 803;
},
{
segmentType = line;
smooth = 0;
x = 356;
y = 1285;
},
{
segmentType = line;
smooth = 1;
x = 1007;
y = 1285;
},
{
smooth = 0;
x = 1056;
y = 1285;
},
{
smooth = 0;
x = 1080;
y = 1319;
},
{
segmentType = curve;
smooth = 1;
x = 1080;
y = 1356;
},
{
smooth = 0;
x = 1080;
y = 1392;
},
{
smooth = 0;
x = 1056;
y = 1426;
},
{
segmentType = curve;
smooth = 1;
x = 1007;
y = 1426;
},
{
segmentType = line;
smooth = 1;
x = 261;
y = 1426;
},
{
smooth = 0;
x = 213;
y = 1426;
},
{
smooth = 0;
x = 178;
y = 1383;
},
{
segmentType = curve;
smooth = 1;
x = 178;
y = 1340;
},
{
segmentType = line;
smooth = 1;
x = 178;
y = 86;
},
{
smooth = 0;
x = 178;
y = 41;
},
{
smooth = 0;
x = 222;
y = 0;
}
);
}
);
lib = {
};
name = Z;
unicodes = (
);
width = 1165;
};
};
components = (
);
contours = (
);
lib = {
};
name = Z;
unicodes = (
);
width = 1222;
};
},
{
glyphname = bracketleft;
lastChange = "2013-12-30 03:19:54 -0800";
layers = (
{
layerId = "F10CBA7B-FAF3-4DDE-A14D-E99DB7E222CB";
name = Light;
paths = (
{
closed = 1;
nodes = (
"255 1426 LINE SMOOTH",
"208 1426 OFFCURVE",
"173 1390 OFFCURVE",
"173 1346 CURVE SMOOTH",
"173 -120 LINE SMOOTH",
"173 -164 OFFCURVE",
"208 -200 OFFCURVE",
"255 -200 CURVE SMOOTH",
"438 -200 LINE SMOOTH",
"479 -200 OFFCURVE",
"501 -168 OFFCURVE",
"501 -137 CURVE SMOOTH",
"501 -106 OFFCURVE",
"481 -76 OFFCURVE",
"438 -76 CURVE SMOOTH",
"336 -76 LINE",
"336 1303 LINE",
"438 1303 LINE SMOOTH",
"479 1303 OFFCURVE",
"500 1334 OFFCURVE",
"500 1365 CURVE SMOOTH",
"500 1396 OFFCURVE",
"481 1426 OFFCURVE",
"438 1426 CURVE SMOOTH"
);
}
);
width = 611;
},
{
layerId = "FB5FCFFA-D9F2-48E1-8F42-8D172ED4E960";
name = Bold;
paths = (
{
closed = 1;
nodes = (
"337 -245 CURVE SMOOTH",
"563 -245 LINE",
"651 -242 OFFCURVE",
"696 -199 OFFCURVE",
"696 -131 CURVE SMOOTH",
"696 -59 OFFCURVE",
"646 -20 OFFCURVE",
"562 -20 CURVE SMOOTH",
"460 -20 LINE",
"460 1227 LINE",
"562 1227 LINE SMOOTH",
"646 1227 OFFCURVE",
"696 1267 OFFCURVE",
"696 1339 CURVE SMOOTH",
"696 1400 OFFCURVE",
"653 1451 OFFCURVE",
"585 1451 CURVE SMOOTH",
"337 1451 LINE SMOOTH",
"239 1451 OFFCURVE",
"169 1397 OFFCURVE",
"169 1305 CURVE SMOOTH",
"169 -53 LINE SMOOTH",
"169 -198 OFFCURVE",
"229 -245 OFFCURVE"
);
}
);
width = 789;
}
);
unicode = 005B;
},
{
glyphname = backslash;
lastChange = "2013-12-30 03:19:54 -0800";
layers = (
{
layerId = "F10CBA7B-FAF3-4DDE-A14D-E99DB7E222CB";
name = Light;
paths = (
{
closed = 1;
nodes = (
"15 1499 OFFCURVE",
"-20 1475 OFFCURVE",
"-20 1434 CURVE SMOOTH",
"-20 1427 OFFCURVE",
"-18 1418 OFFCURVE",
"-15 1407 CURVE SMOOTH",
"472 -56 LINE SMOOTH",
"483 -91 OFFCURVE",
"510 -106 OFFCURVE",
"539 -106 CURVE SMOOTH",
"574 -106 OFFCURVE",
"607 -82 OFFCURVE",
"607 -41 CURVE SMOOTH",
"607 -32 OFFCURVE",
"606 -23 OFFCURVE",
"603 -14 CURVE SMOOTH",
"120 1449 LINE SMOOTH",
"108 1484 OFFCURVE",
"79 1499 OFFCURVE",
"51 1499 CURVE SMOOTH"
);
}
);
width = 588;
},
{
layerId = "FB5FCFFA-D9F2-48E1-8F42-8D172ED4E960";
name = Bold;
paths = (
{
closed = 1;
nodes = (
"563 -70 CURVE SMOOTH",
"612 -70 OFFCURVE",
"668 -35 OFFCURVE",
"668 25 CURVE SMOOTH",
"668 44 OFFCURVE",
"661 67 OFFCURVE",
"653 90 CURVE SMOOTH",
"220 1379 LINE",
"196 1443 OFFCURVE",
"166 1504 OFFCURVE",
"104 1504 CURVE SMOOTH",
"48 1504 OFFCURVE",
"1 1473 OFFCURVE",
"1 1409 CURVE SMOOTH",
"1 1398 OFFCURVE",
"2 1385 OFFCURVE",
"7 1370 CURVE SMOOTH",
"451 54 LINE SMOOTH",
"473 -11 OFFCURVE",
"503 -70 OFFCURVE"
);
}
);
width = 669;
}
);
unicode = 005C;
},
{
glyphname = bracketright;
lastChange = "2013-12-30 03:19:54 -0800";
layers = (
{
layerId = "F10CBA7B-FAF3-4DDE-A14D-E99DB7E222CB";
name = Light;
paths = (
{
closed = 1;
nodes = (
"171 1426 LINE SMOOTH",
"128 1426 OFFCURVE",
"109 1396 OFFCURVE",
"109 1365 CURVE SMOOTH",
"109 1334 OFFCURVE",
"130 1303 OFFCURVE",
"171 1303 CURVE SMOOTH",
"274 1303 LINE",
"274 -76 LINE",
"171 -76 LINE SMOOTH",
"130 -76 OFFCURVE",
"109 -106 OFFCURVE",
"109 -137 CURVE SMOOTH",
"109 -168 OFFCURVE",
"130 -200 OFFCURVE",
"171 -200 CURVE SMOOTH",
"355 -200 LINE SMOOTH",
"400 -200 OFFCURVE",
"437 -164 OFFCURVE",
"437 -120 CURVE SMOOTH",
"437 1346 LINE SMOOTH",
"437 1390 OFFCURVE",
"400 1426 OFFCURVE",
"355 1426 CURVE SMOOTH"
);
}
);
width = 611;
},
{
layerId = "FB5FCFFA-D9F2-48E1-8F42-8D172ED4E960";
name = Bold;
paths = (
{
closed = 1;
nodes = (
"203 -245 CURVE",
"451 -245 LINE SMOOTH",
"545 -245 OFFCURVE",
"619 -191 OFFCURVE",
"619 -100 CURVE SMOOTH",
"619 1258 LINE SMOOTH",
"619 1405 OFFCURVE",
"555 1451 OFFCURVE",
"451 1451 CURVE SMOOTH",
"225 1451 LINE SMOOTH",
"136 1451 OFFCURVE",
"92 1407 OFFCURVE",
"92 1339 CURVE SMOOTH",
"92 1266 OFFCURVE",
"141 1227 OFFCURVE",
"226 1227 CURVE SMOOTH",
"327 1227 LINE",
"327 -20 LINE",
"226 -20 LINE SMOOTH",
"135 -20 OFFCURVE",
"91 -63 OFFCURVE",
"91 -131 CURVE SMOOTH",
"91 -188 OFFCURVE",
"128 -238 OFFCURVE"
);
}
);
width = 789;
}
);
unicode = 005D;
},
{
glyphname = asciicircum;
lastChange = "2013-12-30 03:19:54 -0800";
layers = (
{
layerId = "F10CBA7B-FAF3-4DDE-A14D-E99DB7E222CB";
name = Light;
paths = (
{
closed = 1;
nodes = (
"635 1395 OFFCURVE",
"603 1376 OFFCURVE",
"584 1340 CURVE SMOOTH",
"193 584 LINE",
"189 574 OFFCURVE",
"187 565 OFFCURVE",
"187 556 CURVE SMOOTH",
"187 517 OFFCURVE",
"222 492 OFFCURVE",
"257 492 CURVE SMOOTH",
"281 492 OFFCURVE",
"306 503 OFFCURVE",
"319 534 CURVE",
"668 1235 LINE",
"1015 534 LINE SMOOTH",
"1029 505 OFFCURVE",
"1052 492 OFFCURVE",
"1077 492 CURVE SMOOTH",
"1113 492 OFFCURVE",
"1148 520 OFFCURVE",
"1148 557 CURVE SMOOTH",
"1148 565 OFFCURVE",
"1146 574 OFFCURVE",
"1142 584 CURVE",
"753 1340 LINE SMOOTH",
"734 1376 OFFCURVE",
"703 1395 OFFCURVE",
"668 1395 CURVE SMOOTH"
);
}
);
width = 1340;
},
{
layerId = "FB5FCFFA-D9F2-48E1-8F42-8D172ED4E960";
name = Bold;
paths = (
{
closed = 1;
nodes = (
"261 536 CURVE SMOOTH",
"314 536 OFFCURVE",
"348 581 OFFCURVE",
"379 643 CURVE SMOOTH",
"660 1216 LINE",
"942 643 LINE",
"974 585 OFFCURVE",
"1007 539 OFFCURVE",
"1060 539 CURVE SMOOTH",
"1117 539 OFFCURVE",
"1163 576 OFFCURVE",
"1163 635 CURVE SMOOTH",
"1163 660 OFFCURVE",
"1145 698 OFFCURVE",
"1131 728 CURVE SMOOTH",
"820 1351 LINE SMOOTH",
"777 1437 OFFCURVE",
"732 1486 OFFCURVE",
"661 1486 CURVE SMOOTH",
"580 1486 OFFCURVE",
"536 1422 OFFCURVE",
"501 1351 CURVE SMOOTH",
"190 728 LINE SMOOTH",
"175 698 OFFCURVE",
"157 661 OFFCURVE",
"157 637 CURVE SMOOTH",
"157 575 OFFCURVE",
"204 536 OFFCURVE"
);
}
);
width = 1287;
}
);
unicode = 005E;
},
{
glyphname = underscore;
lastChange = "2013-12-30 03:19:54 -0800";
layers = (
{
layerId = "F10CBA7B-FAF3-4DDE-A14D-E99DB7E222CB";
name = Light;
paths = (
{
closed = 1;
nodes = (
"55 -135 LINE SMOOTH",
"18 -135 OFFCURVE",
"-1 -164 OFFCURVE",
"-1 -195 CURVE SMOOTH",
"-1 -224 OFFCURVE",
"18 -254 OFFCURVE",
"55 -254 CURVE SMOOTH",
"965 -254 LINE SMOOTH",
"1004 -254 OFFCURVE",
"1023 -224 OFFCURVE",
"1023 -195 CURVE SMOOTH",
"1023 -164 OFFCURVE",
"1004 -135 OFFCURVE",
"965 -135 CURVE SMOOTH"
);
}
);
width = 1024;
},
{
layerId = "FB5FCFFA-D9F2-48E1-8F42-8D172ED4E960";
name = Bold;
paths = (
{
closed = 1;
nodes = (
"66 -255 CURVE SMOOTH",
"928 -255 LINE SMOOTH",
"988 -255 OFFCURVE",
"1023 -236 OFFCURVE",
"1023 -187 CURVE SMOOTH",
"1023 -151 OFFCURVE",
"1000 -118 OFFCURVE",
"956 -118 CURVE SMOOTH",
"94 -118 LINE SMOOTH",
"30 -118 OFFCURVE",
"0 -138 OFFCURVE",
"0 -187 CURVE SMOOTH",
"0 -222 OFFCURVE",
"22 -255 OFFCURVE"
);
}
);
width = 1024;
}
);
unicode = 005F;
},
{
glyphname = grave;
lastChange = "2013-12-30 03:19:54 -0800";
layers = (
{
anchors = (
{
name = _top;
position = "{446, 1040}";
}
);
layerId = "F10CBA7B-FAF3-4DDE-A14D-E99DB7E222CB";
name = Light;
paths = (
{
closed = 1;
nodes = (
"124 1589 OFFCURVE",
"78 1543 OFFCURVE",
"78 1501 CURVE SMOOTH",
"78 1485 OFFCURVE",
"86 1469 OFFCURVE",
"101 1457 CURVE SMOOTH",
"423 1210 LINE SMOOTH",
"437 1199 OFFCURVE",
"451 1193 OFFCURVE",
"464 1193 CURVE SMOOTH",
"487 1193 OFFCURVE",
"501 1210 OFFCURVE",
"501 1231 CURVE SMOOTH",
"501 1242 OFFCURVE",
"498 1252 OFFCURVE",
"489 1263 CURVE SMOOTH",
"220 1564 LINE SMOOTH",
"203 1582 OFFCURVE",
"188 1589 OFFCURVE",
"169 1589 CURVE SMOOTH"
);
}
);
width = 569;
},
{
anchors = (
{
name = _top;
position = "{446, 1040}";
}
);
layerId = "FB5FCFFA-D9F2-48E1-8F42-8D172ED4E960";
name = Bold;
paths = (
{
closed = 1;
nodes = (
"442 1198 CURVE SMOOTH",
"478 1198 OFFCURVE",
"507 1232 OFFCURVE",
"507 1269 CURVE SMOOTH",
"507 1285 OFFCURVE",
"495 1303 OFFCURVE",
"484 1320 CURVE SMOOTH",
"292 1600 LINE SMOOTH",
"259 1648 OFFCURVE",
"221 1681 OFFCURVE",
"178 1681 CURVE SMOOTH",
"111 1681 OFFCURVE",
"39 1621 OFFCURVE",
"39 1554 CURVE SMOOTH",
"39 1527 OFFCURVE",
"49 1504 OFFCURVE",
"73 1484 CURVE SMOOTH",
"367 1232 LINE",
"387 1212 OFFCURVE",
"421 1198 OFFCURVE"
);
}
);
width = 569;
}
);
unicode = 0060;
},
{
glyphname = a;
lastChange = "2013-12-30 03:19:54 -0800";
layers = (
{
anchors = (
{
name = ogonek;
position = "{814, 9}";
},
{
name = top;
position = "{505, 991}";
}
);
layerId = "F10CBA7B-FAF3-4DDE-A14D-E99DB7E222CB";
name = Light;
paths = (
{
closed = 1;
nodes = (
"356 1013 OFFCURVE",
"236 979 OFFCURVE",
"142 922 CURVE SMOOTH",
"87 888 OFFCURVE",
"142 798 OFFCURVE",
"200 827 CURVE SMOOTH",
"284 866 OFFCURVE",
"373 904 OFFCURVE",
"509 904 CURVE SMOOTH",
"645 904 OFFCURVE",
"739 841 OFFCURVE",
"739 688 CURVE SMOOTH",
"739 569 LINE",
"235 569 OFFCURVE",
"67 524 OFFCURVE",
"67 268 CURVE SMOOTH",
"67 78 OFFCURVE",
"216 -20 OFFCURVE",
"420 -20 CURVE SMOOTH",
"592 -20 OFFCURVE",
"684 71 OFFCURVE",
"739 187 CURVE",
"739 68 LINE SMOOTH",
"739 -29 OFFCURVE",
"897 -21 OFFCURVE",
"897 71 CURVE SMOOTH",
"897 673 LINE SMOOTH",
"897 912 OFFCURVE",
"744 1013 OFFCURVE",
"513 1013 CURVE SMOOTH"
);
},
{
closed = 1;
nodes = (
"739 443 LINE SMOOTH",
"739 229 OFFCURVE",
"593 87 OFFCURVE",
"439 87 CURVE",
"310 87 OFFCURVE",
"219 140 OFFCURVE",
"219 274 CURVE SMOOTH",
"219 440 OFFCURVE",
"318 475 OFFCURVE",
"739 475 CURVE"
);
}
);
width = 1040;
},
{
anchors = (
{
name = ogonek;
position = "{849, 31}";
},
{
name = top;
position = "{561, 1001}";
}
);
layerId = "FB5FCFFA-D9F2-48E1-8F42-8D172ED4E960";
name = Bold;
paths = (
{
closed = 1;
nodes = (
"382 -12 CURVE SMOOTH",
"487 -13 OFFCURVE",
"645 20 OFFCURVE",
"705 178 CURVE",
"705 157 LINE SMOOTH",
"705 -54 OFFCURVE",
"987 -55 OFFCURVE",
"987 155 CURVE SMOOTH",
"987 600 LINE SMOOTH",
"987 916 OFFCURVE",
"806 1023 OFFCURVE",
"551 1023 CURVE SMOOTH",
"418 1023 OFFCURVE",
"257 986 OFFCURVE",
"168 944 CURVE SMOOTH",
"54 890 OFFCURVE",
"133 712 OFFCURVE",
"246 753 CURVE SMOOTH",
"313 777 OFFCURVE",
"413 816 OFFCURVE",
"530 816 CURVE SMOOTH",
"630 816 OFFCURVE",
"694 770 OFFCURVE",
"694 658 CURVE SMOOTH",
"694 595 LINE",
"228 595 OFFCURVE",
"56 532 OFFCURVE",
"56 274 CURVE SMOOTH",
"56 102 OFFCURVE",
"194 -10 OFFCURVE"
);
},
{
closed = 1;
nodes = (
"446 163 CURVE SMOOTH",
"364 169 OFFCURVE",
"323 222 OFFCURVE",
"321 297 CURVE SMOOTH",
"317 444 OFFCURVE",
"456 455 OFFCURVE",
"693 455 CURVE",
"693 417 LINE SMOOTH",
"693 261 OFFCURVE",
"558 155 OFFCURVE"
);
}
);
width = 1105;
}
);
leftKerningGroup = a_Right;
unicode = 0061;
userData = {
anchors = (
);
b = {
};
com.typemytype.robofont.layerData = {
b = {
anchors = (
);
components = (
);
contours = (
);
lib = {
};
name = a;
unicodes = (
);
width = 1040;
};
};
components = (
);
contours = (
);
lib = {
};
name = a;
unicodes = (
);
width = 1101;
};
},
{
glyphname = b;
lastChange = "2013-12-30 03:19:54 -0800";
layers = (
{
anchors = (
{
name = top;
position = "{667, 1089}";
}
);
layerId = "F10CBA7B-FAF3-4DDE-A14D-E99DB7E222CB";
name = Light;
paths = (
{
closed = 1;
nodes = (
"198 1425 OFFCURVE",
"158 1400 OFFCURVE",
"158 1351 CURVE SMOOTH",
"158 76 LINE SMOOTH",
"158 27 OFFCURVE",
"197 3 OFFCURVE",
"237 3 CURVE SMOOTH",
"297 3 OFFCURVE",
"318 38 OFFCURVE",
"318 76 CURVE SMOOTH",
"318 183 LINE",
"384 46 OFFCURVE",
"516 -20 OFFCURVE",
"666 -20 CURVE SMOOTH",
"957 -20 OFFCURVE",
"1095 225 OFFCURVE",
"1095 502 CURVE SMOOTH",
"1095 777 OFFCURVE",
"939 1013 OFFCURVE",
"650 1013 CURVE SMOOTH",
"503 1013 OFFCURVE",
"376 942 OFFCURVE",
"318 814 CURVE",
"318 1351 LINE SMOOTH",
"318 1400 OFFCURVE",
"278 1425 OFFCURVE",
"238 1425 CURVE SMOOTH"
);
},
{
closed = 1;
nodes = (
"859 903 OFFCURVE",
"935 685 OFFCURVE",
"935 496 CURVE SMOOTH",
"935 316 OFFCURVE",
"869 93 OFFCURVE",
"645 90 CURVE",
"395 90 OFFCURVE",
"319 279 OFFCURVE",
"319 501 CURVE SMOOTH",
"319 701 OFFCURVE",
"407 903 OFFCURVE",
"632 903 CURVE SMOOTH"
);
}
);
width = 1181;
},
{
anchors = (
{
name = top;
position = "{758, 1149}";
}
);
layerId = "FB5FCFFA-D9F2-48E1-8F42-8D172ED4E960";
name = Bold;
paths = (
{
closed = 1;
nodes = (
"766 -18 CURVE SMOOTH",
"1011 -18 OFFCURVE",
"1200 167 OFFCURVE",
"1200 505 CURVE SMOOTH",
"1200 847 OFFCURVE",
"995 1017 OFFCURVE",
"753 1017 CURVE SMOOTH",
"604 1017 OFFCURVE",
"486 955 OFFCURVE",
"435 848 CURVE",
"435 1257 LINE SMOOTH",
"435 1384 OFFCURVE",
"388 1454 OFFCURVE",
"269 1454 CURVE SMOOTH",
"157 1454 OFFCURVE",
"116 1384 OFFCURVE",
"116 1257 CURVE SMOOTH",
"116 207 LINE SMOOTH",
"116 80 OFFCURVE",
"166 -1 OFFCURVE",
"278 -1 CURVE SMOOTH",
"382 -1 OFFCURVE",
"434 62 OFFCURVE",
"434 149 CURVE SMOOTH",
"434 166 LINE",
"496 35 OFFCURVE",
"621 -18 OFFCURVE"
);
},
{
closed = 1;
nodes = (
"672 172 CURVE SMOOTH",
"502 172 OFFCURVE",
"436 300 OFFCURVE",
"436 499 CURVE SMOOTH",
"436 705 OFFCURVE",
"524 819 OFFCURVE",
"667 819 CURVE SMOOTH",
"822 819 OFFCURVE",
"895 680 OFFCURVE",
"895 496 CURVE SMOOTH",
"895 349 OFFCURVE",
"839 172 OFFCURVE"
);
}
);
width = 1280;
}
);
rightKerningGroup = o_Left;
unicode = 0062;
userData = {
anchors = (
);
b = {
};
com.typemytype.robofont.layerData = {
b = {
anchors = (
);
components = (
);
contours = (
{
points = (
{
segmentType = curve;
smooth = 1;
x = 238;
y = 1425;
},
{
smooth = 0;
x = 198;
y = 1425;
},
{
smooth = 0;
x = 158;
y = 1400;
},
{
segmentType = curve;
smooth = 1;
x = 158;
y = 1351;
},
{
segmentType = line;
smooth = 1;
x = 158;
y = 76;
},
{
smooth = 0;
x = 158;
y = 27;
},
{
smooth = 0;
x = 197;
y = 3;
},
{
segmentType = curve;
smooth = 1;
x = 237;
y = 3;
},
{
smooth = 0;
x = 297;
y = 3;
},
{
smooth = 0;
x = 318;
y = 38;
},
{
segmentType = curve;
smooth = 1;
x = 318;
y = 76;
},
{
segmentType = line;
smooth = 0;
x = 318;
y = 183;
},
{
smooth = 0;
x = 384;
y = 46;
},
{
smooth = 0;
x = 516;
y = "-20";
},
{
segmentType = curve;
smooth = 1;
x = 666;
y = "-20";
},
{
smooth = 0;
x = 957;
y = "-20";
},
{
smooth = 0;
x = 1095;
y = 225;
},
{
segmentType = curve;
smooth = 1;
x = 1095;
y = 502;
},
{
smooth = 0;
x = 1095;
y = 777;
},
{
smooth = 0;
x = 939;
y = 1013;
},
{
segmentType = curve;
smooth = 1;
x = 650;
y = 1013;
},
{
smooth = 0;
x = 503;
y = 1013;
},
{
smooth = 0;
x = 376;
y = 942;
},
{
segmentType = curve;
smooth = 0;
x = 318;
y = 814;
},
{
segmentType = line;
smooth = 1;
x = 318;
y = 1351;
},
{
smooth = 0;
x = 318;
y = 1400;
},
{
smooth = 0;
x = 278;
y = 1425;
}
);
},
{
points = (
{
segmentType = curve;
smooth = 1;
x = 632;
y = 903;
},
{
smooth = 0;
x = 859;
y = 903;
},
{
smooth = 0;
x = 935;
y = 685;
},
{
segmentType = curve;
smooth = 1;
x = 935;
y = 496;
},
{
smooth = 0;
x = 935;
y = 316;
},
{
smooth = 0;
x = 869;
y = 93;
},
{
segmentType = curve;
smooth = 0;
x = 645;
y = 90;
},
{
smooth = 0;
x = 395;
y = 90;
},
{
smooth = 0;
x = 319;
y = 279;
},
{
segmentType = curve;
smooth = 1;
x = 319;
y = 501;
},
{
smooth = 0;
x = 319;
y = 701;
},
{
smooth = 0;
x = 407;
y = 903;
}
);
}
);
lib = {
};
name = b;
unicodes = (
);
width = 1181;
};
};
components = (
);
contours = (
);
lib = {
};
name = b;
unicodes = (
);
width = 1203;
};
},
{
glyphname = c;
lastChange = "2013-12-30 03:19:54 -0800";
layers = (
{
anchors = (
{
name = bot;
position = "{533, 9}";
},
{
name = top;
position = "{558, 1001}";
}
);
layerId = "F10CBA7B-FAF3-4DDE-A14D-E99DB7E222CB";
name = Light;
paths = (
{
closed = 1;
nodes = (
"277 1013 OFFCURVE",
"86 789 OFFCURVE",
"86 496 CURVE SMOOTH",
"86 203 OFFCURVE",
"256 -22 OFFCURVE",
"550 -22 CURVE SMOOTH",
"686 -22 OFFCURVE",
"791 16 OFFCURVE",
"853 65 CURVE SMOOTH",
"928 125 OFFCURVE",
"859 198 OFFCURVE",
"800 158 CURVE SMOOTH",
"730 110 OFFCURVE",
"649 90 OFFCURVE",
"562 90 CURVE SMOOTH",
"330 90 OFFCURVE",
"246 303 OFFCURVE",
"246 491 CURVE SMOOTH",
"246 754 OFFCURVE",
"391 904 OFFCURVE",
"582 904 CURVE SMOOTH",
"653 904 OFFCURVE",
"728 884 OFFCURVE",
"791 840 CURVE SMOOTH",
"854 796 OFFCURVE",
"921 865 OFFCURVE",
"851 925 CURVE SMOOTH",
"796 974 OFFCURVE",
"693 1013 OFFCURVE",
"578 1013 CURVE SMOOTH"
);
}
);
width = 956.141;
},
{
anchors = (
{
name = bot;
position = "{588, 0}";
},
{
name = top;
position = "{603, 1029}";
}
);
layerId = "FB5FCFFA-D9F2-48E1-8F42-8D172ED4E960";
name = Bold;
paths = (
{
closed = 1;
nodes = (
"603 -12 CURVE SMOOTH",
"734 -12 OFFCURVE",
"870 24 OFFCURVE",
"935 76 CURVE SMOOTH",
"1047 165 OFFCURVE",
"957 342 OFFCURVE",
"833 277 CURVE SMOOTH",
"777 248 OFFCURVE",
"703 228 OFFCURVE",
"644 228 CURVE SMOOTH",
"476 228 OFFCURVE",
"409 359 OFFCURVE",
"409 508 CURVE SMOOTH",
"409 694 OFFCURVE",
"507 782 OFFCURVE",
"643 788 CURVE SMOOTH",
"713 791 OFFCURVE",
"790 762 OFFCURVE",
"827 742 CURVE SMOOTH",
"952 677 OFFCURVE",
"1039 847 OFFCURVE",
"931 933 CURVE SMOOTH",
"868 984 OFFCURVE",
"747 1025 OFFCURVE",
"614 1025 CURVE SMOOTH",
"311 1025 OFFCURVE",
"80 808 OFFCURVE",
"80 507 CURVE SMOOTH",
"80 160 OFFCURVE",
"338 -12 OFFCURVE"
);
}
);
width = 1043.97;
}
);
leftKerningGroup = o_Right;
unicode = 0063;
userData = {
anchors = (
);
b = {
};
com.typemytype.robofont.layerData = {
b = {
anchors = (
);
components = (
);
contours = (
);
lib = {
};
name = c;
unicodes = (
);
width = 956.140944973;
};
};
components = (
);
contours = (
);
lib = {
};
name = c;
unicodes = (
);
width = 992;
};
},
{
glyphname = d;
lastChange = "2013-12-30 03:19:54 -0800";
layers = (
{
anchors = (
{
name = caron.alt;
position = "{944, 991}";
},
{
name = mid;
position = "{887, 1195}";
},
{
name = top;
position = "{529, 1077}";
}
);
layerId = "F10CBA7B-FAF3-4DDE-A14D-E99DB7E222CB";
name = Light;
paths = (
{
closed = 1;
nodes = (
"903 1425 OFFCURVE",
"863 1400 OFFCURVE",
"863 1351 CURVE SMOOTH",
"863 814 LINE",
"805 942 OFFCURVE",
"678 1013 OFFCURVE",
"531 1013 CURVE SMOOTH",
"242 1013 OFFCURVE",
"86 777 OFFCURVE",
"86 502 CURVE SMOOTH",
"86 225 OFFCURVE",
"224 -20 OFFCURVE",
"515 -20 CURVE SMOOTH",
"665 -20 OFFCURVE",
"797 46 OFFCURVE",
"863 183 CURVE",
"863 76 LINE SMOOTH",
"863 38 OFFCURVE",
"884 3 OFFCURVE",
"944 3 CURVE SMOOTH",
"984 3 OFFCURVE",
"1023 27 OFFCURVE",
"1023 76 CURVE SMOOTH",
"1023 1351 LINE SMOOTH",
"1023 1400 OFFCURVE",
"983 1425 OFFCURVE",
"943 1425 CURVE SMOOTH"
);
},
{
closed = 1;
nodes = (
"774 903 OFFCURVE",
"862 701 OFFCURVE",
"862 501 CURVE SMOOTH",
"862 279 OFFCURVE",
"786 90 OFFCURVE",
"536 90 CURVE",
"312 93 OFFCURVE",
"246 316 OFFCURVE",
"246 496 CURVE SMOOTH",
"246 685 OFFCURVE",
"322 903 OFFCURVE",
"549 903 CURVE SMOOTH"
);
}
);
width = 1181;
},
{
anchors = (
{
name = caron.alt;
position = "{1015, 991}";
},
{
name = mid;
position = "{991, 1177}";
},
{
name = top;
position = "{528, 1119}";
}
);
layerId = "FB5FCFFA-D9F2-48E1-8F42-8D172ED4E960";
name = Bold;
paths = (
{
closed = 1;
nodes = (
"514 -18 CURVE SMOOTH",
"659 -18 OFFCURVE",
"784 35 OFFCURVE",
"846 166 CURVE",
"846 149 LINE SMOOTH",
"846 62 OFFCURVE",
"898 -1 OFFCURVE",
"1002 -1 CURVE SMOOTH",
"1114 -1 OFFCURVE",
"1164 80 OFFCURVE",
"1164 207 CURVE SMOOTH",
"1164 1257 LINE SMOOTH",
"1164 1384 OFFCURVE",
"1123 1454 OFFCURVE",
"1011 1454 CURVE SMOOTH",
"892 1454 OFFCURVE",
"845 1384 OFFCURVE",
"845 1257 CURVE SMOOTH",
"845 848 LINE",
"794 955 OFFCURVE",
"676 1017 OFFCURVE",
"527 1017 CURVE SMOOTH",
"285 1017 OFFCURVE",
"80 847 OFFCURVE",
"80 505 CURVE SMOOTH",
"80 167 OFFCURVE",
"269 -18 OFFCURVE"
);
},
{
closed = 1;
nodes = (
"608 172 CURVE SMOOTH",
"441 172 OFFCURVE",
"385 349 OFFCURVE",
"385 496 CURVE SMOOTH",
"385 680 OFFCURVE",
"458 819 OFFCURVE",
"613 819 CURVE SMOOTH",
"756 819 OFFCURVE",
"844 705 OFFCURVE",
"844 499 CURVE SMOOTH",
"844 300 OFFCURVE",
"778 172 OFFCURVE"
);
}
);
width = 1280;
}
);
leftKerningGroup = o_Right;
unicode = 0064;
userData = {
anchors = (
);
b = {
};
com.typemytype.robofont.layerData = {
b = {
anchors = (
);
components = (
);
contours = (
);
lib = {
};
name = d;
unicodes = (
);
width = 1181;
};
};
components = (
);
contours = (
);
lib = {
};
name = d;
unicodes = (
);
width = 1207;
};
},
{
glyphname = e;
lastChange = "2013-12-30 03:19:54 -0800";
layers = (
{
anchors = (
{
name = bot;
position = "{583, 0}";
},
{
name = ogonek;
position = "{741, 26}";
},
{
name = top;
position = "{583, 1001}";
}
);
layerId = "F10CBA7B-FAF3-4DDE-A14D-E99DB7E222CB";
name = Light;
paths = (
{
closed = 1;
nodes = (
"268 1013 OFFCURVE",
"94 771 OFFCURVE",
"94 496 CURVE SMOOTH",
"94 174 OFFCURVE",
"310 -20 OFFCURVE",
"580 -20 CURVE SMOOTH",
"779 -20 OFFCURVE",
"892 57 OFFCURVE",
"968 128 CURVE SMOOTH",
"1030 186 OFFCURVE",
"967 268 OFFCURVE",
"905 219 CURVE SMOOTH",
"826 156 OFFCURVE",
"733 95 OFFCURVE",
"589 95 CURVE",
"410 98 OFFCURVE",
"255 216 OFFCURVE",
"255 468 CURVE",
"957 468 LINE SMOOTH",
"1001 468 OFFCURVE",
"1021 495 OFFCURVE",
"1021 526 CURVE",
"1013 785 OFFCURVE",
"897 1013 OFFCURVE",
"572 1013 CURVE SMOOTH"
);
},
{
closed = 1;
nodes = (
"783 903 OFFCURVE",
"869 751 OFFCURVE",
"880 568 CURVE",
"259 568 LINE",
"272 739 OFFCURVE",
"378 903 OFFCURVE",
"583 903 CURVE SMOOTH"
);
}
);
width = 1132;
},
{
anchors = (
{
name = bot;
position = "{622, 0}";
},
{
name = ogonek;
position = "{805, 33}";
},
{
name = top;
position = "{612, 1001}";
}
);
layerId = "FB5FCFFA-D9F2-48E1-8F42-8D172ED4E960";
name = Bold;
paths = (
{
closed = 1;
nodes = (
"621 -12 CURVE SMOOTH",
"844 -12 OFFCURVE",
"959 69 OFFCURVE",
"1030 136 CURVE SMOOTH",
"1112 213 OFFCURVE",
"984 361 OFFCURVE",
"909 297 CURVE SMOOTH",
"849 246 OFFCURVE",
"756 201 OFFCURVE",
"658 201 CURVE SMOOTH",
"482 201 OFFCURVE",
"404 292 OFFCURVE",
"397 453 CURVE",
"975 453 LINE SMOOTH",
"1039 453 OFFCURVE",
"1077 481 OFFCURVE",
"1077 536 CURVE",
"1074 797 OFFCURVE",
"947 1023 OFFCURVE",
"607 1023 CURVE SMOOTH",
"293 1023 OFFCURVE",
"80 797 OFFCURVE",
"80 509 CURVE SMOOTH",
"80 164 OFFCURVE",
"313 -12 OFFCURVE"
);
},
{
closed = 1;
nodes = (
"399 597 LINE",
"407 732 OFFCURVE",
"477 843 OFFCURVE",
"611 843 CURVE SMOOTH",
"758 843 OFFCURVE",
"802 738 OFFCURVE",
"810 597 CURVE"
);
}
);
width = 1153;
}
);
leftKerningGroup = o_Right;
unicode = 0065;
userData = {
anchors = (
);
b = {
};
com.typemytype.robofont.layerData = {
b = {
anchors = (
);
components = (
);
contours = (
);
lib = {
};
name = e;
unicodes = (
);
width = 1132;
};
};
components = (
);
contours = (
);
lib = {
};
name = e;
unicodes = (
);
width = 1132;
};
},
{
glyphname = f;
lastChange = "2013-12-30 03:19:54 -0800";
layers = (
{
anchors = (
{
name = top;
position = "{408, 1369}";
}
);
layerId = "F10CBA7B-FAF3-4DDE-A14D-E99DB7E222CB";
name = Light;
paths = (
{
closed = 1;
nodes = (
"514 1438 LINE SMOOTH",
"361 1438 OFFCURVE",
"242 1371 OFFCURVE",
"242 1112 CURVE SMOOTH",
"242 981 LINE",
"102 981 LINE SMOOTH",
"59 981 OFFCURVE",
"43 957 OFFCURVE",
"43 928 CURVE SMOOTH",
"43 899 OFFCURVE",
"59 876 OFFCURVE",
"102 876 CURVE SMOOTH",
"242 876 LINE",
"242 79 LINE SMOOTH",
"242 26 OFFCURVE",
"282 0 OFFCURVE",
"321 0 CURVE SMOOTH",
"362 0 OFFCURVE",
"402 27 OFFCURVE",
"402 79 CURVE SMOOTH",
"402 876 LINE",
"582 876 LINE SMOOTH",
"625 876 OFFCURVE",
"638 897 OFFCURVE",
"638 928 CURVE SMOOTH",
"638 957 OFFCURVE",
"625 981 OFFCURVE",
"582 981 CURVE SMOOTH",
"402 981 LINE",
"402 1053 LINE SMOOTH",
"402 1285 OFFCURVE",
"436 1318 OFFCURVE",
"548 1318 CURVE SMOOTH",
"633 1318 LINE SMOOTH",
"710 1318 OFFCURVE",
"707 1438 OFFCURVE",
"634 1438 CURVE SMOOTH"
);
}
);
width = 696;
},
{
anchors = (
{
name = top;
position = "{438, 1419}";
}
);
layerId = "FB5FCFFA-D9F2-48E1-8F42-8D172ED4E960";
name = Bold;
paths = (
{
closed = 1;
nodes = (
"360 0 CURVE SMOOTH",
"471 0 OFFCURVE",
"517 70 OFFCURVE",
"517 197 CURVE SMOOTH",
"517 824 LINE",
"615 824 LINE SMOOTH",
"696 824 OFFCURVE",
"729 854 OFFCURVE",
"729 917 CURVE SMOOTH",
"729 983 OFFCURVE",
"686 1010 OFFCURVE",
"627 1010 CURVE SMOOTH",
"517 1010 LINE",
"517 1036 LINE SMOOTH",
"517 1207 OFFCURVE",
"539 1244 OFFCURVE",
"639 1244 CURVE SMOOTH",
"700 1244 LINE SMOOTH",
"836 1244 OFFCURVE",
"821 1468 OFFCURVE",
"700 1468 CURVE SMOOTH",
"590 1468 LINE SMOOTH",
"314 1468 OFFCURVE",
"197 1354 OFFCURVE",
"197 1074 CURVE SMOOTH",
"197 1010 LINE",
"119 1010 LINE SMOOTH",
"39 1010 OFFCURVE",
"16 968 OFFCURVE",
"16 917 CURVE SMOOTH",
"16 846 OFFCURVE",
"60 824 OFFCURVE",
"132 824 CURVE SMOOTH",
"197 824 LINE",
"198 197 LINE SMOOTH",
"198 70 OFFCURVE",
"248 0 OFFCURVE"
);
}
);
width = 754;
}
);
unicode = 0066;
userData = {
anchors = (
);
b = {
};
com.typemytype.robofont.layerData = {
b = {
anchors = (
);
components = (
);
contours = (
);
lib = {
};
name = f;
unicodes = (
);
width = 696;
};
};
components = (
);
contours = (
);
lib = {
};
name = f;
unicodes = (
);
width = 723;
};
},
{
glyphname = g;
lastChange = "2013-12-30 03:19:54 -0800";
layers = (
{
anchors = (
{
name = top;
position = "{540, 1001}";
}
);
layerId = "F10CBA7B-FAF3-4DDE-A14D-E99DB7E222CB";
name = Light;
paths = (
{
closed = 1;
nodes = (
"241 1013 OFFCURVE",
"86 774 OFFCURVE",
"86 491 CURVE SMOOTH",
"86 230 OFFCURVE",
"238 0 OFFCURVE",
"536 0 CURVE SMOOTH",
"703 0 OFFCURVE",
"817 95 OFFCURVE",
"865 215 CURVE",
"865 0 LINE SMOOTH",
"865 -194 OFFCURVE",
"767 -301 OFFCURVE",
"545 -301 CURVE SMOOTH",
"414 -301 OFFCURVE",
"316 -263 OFFCURVE",
"258 -241 CURVE SMOOTH",
"195 -218 OFFCURVE",
"148 -313 OFFCURVE",
"222 -349 CURVE SMOOTH",
"282 -378 OFFCURVE",
"394 -415 OFFCURVE",
"555 -415 CURVE SMOOTH",
"839 -415 OFFCURVE",
"1021 -281 OFFCURVE",
"1021 0 CURVE SMOOTH",
"1021 917 LINE SMOOTH",
"1021 966 OFFCURVE",
"985 991 OFFCURVE",
"946 991 CURVE SMOOTH",
"910 991 OFFCURVE",
"874 968 OFFCURVE",
"871 924 CURVE",
"871 805 LINE",
"813 931 OFFCURVE",
"707 1013 OFFCURVE",
"532 1013 CURVE SMOOTH"
);
},
{
closed = 1;
nodes = (
"796 903 OFFCURVE",
"866 689 OFFCURVE",
"864 493 CURVE SMOOTH",
"861 245 OFFCURVE",
"721 99 OFFCURVE",
"547 108 CURVE SMOOTH",
"385 116 OFFCURVE",
"246 233 OFFCURVE",
"246 497 CURVE SMOOTH",
"246 722 OFFCURVE",
"344 903 OFFCURVE",
"560 903 CURVE SMOOTH"
);
}
);
width = 1167;
},
{
anchors = (
{
name = top;
position = "{597, 991}";
}
);
layerId = "FB5FCFFA-D9F2-48E1-8F42-8D172ED4E960";
name = Bold;
paths = (
{
closed = 1;
nodes = (
"603 -441 CURVE SMOOTH",
"972 -441 OFFCURVE",
"1144 -228 OFFCURVE",
"1144 98 CURVE SMOOTH",
"1144 800 LINE SMOOTH",
"1144 932 OFFCURVE",
"1108 1006 OFFCURVE",
"995 1006 CURVE SMOOTH",
"902 1006 OFFCURVE",
"846 957 OFFCURVE",
"846 861 CURVE SMOOTH",
"846 835 LINE",
"795 950 OFFCURVE",
"695 1028 OFFCURVE",
"498 1018 CURVE SMOOTH",
"231 1004 OFFCURVE",
"72 790 OFFCURVE",
"72 497 CURVE SMOOTH",
"72 186 OFFCURVE",
"264 13 OFFCURVE",
"518 -2 CURVE SMOOTH",
"663 -11 OFFCURVE",
"793 42 OFFCURVE",
"842 173 CURVE",
"842 42 LINE SMOOTH",
"842 -170 OFFCURVE",
"761 -213 OFFCURVE",
"616 -227 CURVE SMOOTH",
"511 -237 OFFCURVE",
"406 -207 OFFCURVE",
"334 -186 CURVE SMOOTH",
"201 -149 OFFCURVE",
"119 -318 OFFCURVE",
"263 -384 CURVE SMOOTH",
"332 -416 OFFCURVE",
"476 -441 OFFCURVE"
);
},
{
closed = 1;
nodes = (
"625 199 CURVE",
"488 199 OFFCURVE",
"414 302 OFFCURVE",
"414 506 CURVE SMOOTH",
"414 686 OFFCURVE",
"459 829 OFFCURVE",
"624 829 CURVE SMOOTH",
"792 829 OFFCURVE",
"842 699 OFFCURVE",
"842 504 CURVE SMOOTH",
"842 289 OFFCURVE",
"752 202 OFFCURVE"
);
}
);
width = 1265;
}
);
unicode = 0067;
userData = {
anchors = (
);
b = {
};
com.typemytype.robofont.layerData = {
b = {
anchors = (
);
components = (
);
contours = (
);
lib = {
};
name = g;
unicodes = (
);
width = 1167;
};
};
components = (
);
contours = (
);
lib = {
};
name = g;
unicodes = (
);
width = 1207;
};
},
{
glyphname = h;
lastChange = "2013-12-30 03:19:54 -0800";
layers = (
{
anchors = (
{
name = top;
position = "{708, 1188}";
}
);
layerId = "F10CBA7B-FAF3-4DDE-A14D-E99DB7E222CB";
name = Light;
paths = (
{
closed = 1;
nodes = (
"199 1425 OFFCURVE",
"158 1400 OFFCURVE",
"158 1352 CURVE SMOOTH",
"158 76 LINE SMOOTH",
"158 25 OFFCURVE",
"197 0 OFFCURVE",
"237 0 CURVE SMOOTH",
"277 0 OFFCURVE",
"318 25 OFFCURVE",
"318 76 CURVE SMOOTH",
"318 575 LINE SMOOTH",
"318 790 OFFCURVE",
"458 889 OFFCURVE",
"622 889 CURVE SMOOTH",
"759 889 OFFCURVE",
"846 814 OFFCURVE",
"846 645 CURVE SMOOTH",
"846 76 LINE SMOOTH",
"846 25 OFFCURVE",
"885 0 OFFCURVE",
"925 0 CURVE SMOOTH",
"965 0 OFFCURVE",
"1006 25 OFFCURVE",
"1006 76 CURVE SMOOTH",
"1006 633 LINE SMOOTH",
"1006 907 OFFCURVE",
"842 1013 OFFCURVE",
"651 1013 CURVE SMOOTH",
"512 1013 OFFCURVE",
"371 948 OFFCURVE",
"318 825 CURVE",
"318 1352 LINE SMOOTH",
"318 1401 OFFCURVE",
"279 1425 OFFCURVE",
"239 1425 CURVE SMOOTH"
);
}
);
width = 1148;
},
{
anchors = (
{
name = top;
position = "{788, 1198}";
}
);
layerId = "FB5FCFFA-D9F2-48E1-8F42-8D172ED4E960";
name = Bold;
paths = (
{
closed = 1;
nodes = (
"277 0 CURVE SMOOTH",
"396 0 OFFCURVE",
"438 70 OFFCURVE",
"438 197 CURVE SMOOTH",
"438 587 LINE SMOOTH",
"438 733 OFFCURVE",
"533 825 OFFCURVE",
"642 825 CURVE SMOOTH",
"734 825 OFFCURVE",
"804 760 OFFCURVE",
"804 635 CURVE SMOOTH",
"804 197 LINE SMOOTH",
"804 70 OFFCURVE",
"850 0 OFFCURVE",
"962 0 CURVE SMOOTH",
"1081 0 OFFCURVE",
"1123 70 OFFCURVE",
"1123 197 CURVE SMOOTH",
"1124 649 LINE SMOOTH",
"1124 899 OFFCURVE",
"969 1019 OFFCURVE",
"797 1027 CURVE SMOOTH",
"625 1035 OFFCURVE",
"505 973 OFFCURVE",
"437 859 CURVE",
"437 1255 LINE SMOOTH",
"437 1382 OFFCURVE",
"390 1452 OFFCURVE",
"271 1452 CURVE SMOOTH",
"159 1452 OFFCURVE",
"118 1382 OFFCURVE",
"118 1255 CURVE SMOOTH",
"119 197 LINE SMOOTH",
"119 70 OFFCURVE",
"165 0 OFFCURVE"
);
}
);
width = 1239;
}
);
rightKerningGroup = n_Left;
unicode = 0068;
userData = {
anchors = (
);
b = {
};
com.typemytype.robofont.layerData = {
b = {
anchors = (
);
components = (
);
contours = (
);
lib = {
};
name = h;
unicodes = (
);
width = 1148;
};
};
components = (
);
contours = {
};
lib = {
};
name = h;
points = {
};
segmentType = curve;
unicodes = (
);
width = 1195;
x = 137;
y = 113;
};
},
{
glyphname = i;
lastChange = "2013-12-30 03:19:54 -0800";
layers = (
{
anchors = (
{
name = ogonek;
position = "{236, 9}";
}
);
layerId = "F10CBA7B-FAF3-4DDE-A14D-E99DB7E222CB";
name = Light;
paths = (
{
closed = 1;
nodes = (
"198 991 OFFCURVE",
"157 964 OFFCURVE",
"157 911 CURVE SMOOTH",
"157 81 LINE SMOOTH",
"157 25 OFFCURVE",
"195 0 OFFCURVE",
"235 0 CURVE SMOOTH",
"275 0 OFFCURVE",
"317 28 OFFCURVE",
"317 81 CURVE SMOOTH",
"317 911 LINE SMOOTH",
"317 964 OFFCURVE",
"277 991 OFFCURVE",
"238 991 CURVE SMOOTH"
);
},
{
closed = 1;
nodes = (
"172 1438 OFFCURVE",
"128 1397 OFFCURVE",
"128 1336 CURVE SMOOTH",
"128 1275 OFFCURVE",
"171 1234 OFFCURVE",
"236 1234 CURVE SMOOTH",
"301 1234 OFFCURVE",
"345 1275 OFFCURVE",
"345 1336 CURVE SMOOTH",
"345 1397 OFFCURVE",
"302 1438 OFFCURVE",
"237 1438 CURVE SMOOTH"
);
}
);
width = 474;
},
{
layerId = "FB5FCFFA-D9F2-48E1-8F42-8D172ED4E960";
name = Bold;
paths = (
{
closed = 1;
nodes = (
"280 0 CURVE SMOOTH",
"399 0 OFFCURVE",
"436 70 OFFCURVE",
"436 197 CURVE SMOOTH",
"436 809 LINE SMOOTH",
"436 936 OFFCURVE",
"389 1006 OFFCURVE",
"270 1006 CURVE SMOOTH",
"158 1006 OFFCURVE",
"117 936 OFFCURVE",
"117 809 CURVE SMOOTH",
"117 197 LINE SMOOTH",
"117 70 OFFCURVE",
"160 0 OFFCURVE"
);
},
{
closed = 1;
nodes = (
"277 1207 CURVE SMOOTH",
"381 1207 OFFCURVE",
"451 1269 OFFCURVE",
"451 1362 CURVE SMOOTH",
"451 1454 OFFCURVE",
"382 1516 OFFCURVE",
"278 1516 CURVE SMOOTH",
"173 1516 OFFCURVE",
"103 1454 OFFCURVE",
"103 1362 CURVE SMOOTH",
"103 1269 OFFCURVE",
"173 1207 OFFCURVE"
);
}
);
width = 554;
}
);
unicode = 0069;
},
{
glyphname = j;
lastChange = "2013-12-30 03:19:54 -0800";
layers = (
{
layerId = "F10CBA7B-FAF3-4DDE-A14D-E99DB7E222CB";
name = Light;
paths = (
{
closed = 1;
nodes = (
"200 991 OFFCURVE",
"159 964 OFFCURVE",
"159 911 CURVE SMOOTH",
"159 -72 LINE SMOOTH",
"159 -236 OFFCURVE",
"141 -251 OFFCURVE",
"1 -251 CURVE SMOOTH",
"-76 -251 OFFCURVE",
"-78 -377 OFFCURVE",
"1 -377 CURVE SMOOTH",
"305 -377 OFFCURVE",
"320 -282 OFFCURVE",
"320 -33 CURVE SMOOTH",
"320 911 LINE SMOOTH",
"320 964 OFFCURVE",
"280 991 OFFCURVE",
"241 991 CURVE SMOOTH"
);
},
{
closed = 1;
nodes = (
"172 1438 OFFCURVE",
"128 1397 OFFCURVE",
"128 1336 CURVE SMOOTH",
"128 1275 OFFCURVE",
"171 1234 OFFCURVE",
"236 1234 CURVE SMOOTH",
"301 1234 OFFCURVE",
"345 1275 OFFCURVE",
"345 1336 CURVE SMOOTH",
"345 1397 OFFCURVE",
"302 1438 OFFCURVE",
"237 1438 CURVE SMOOTH"
);
}
);
width = 476;
},
{
layerId = "FB5FCFFA-D9F2-48E1-8F42-8D172ED4E960";
name = Bold;
paths = (
{
closed = 1;
nodes = (
"-15 -390 CURVE SMOOTH",
"390 -390 OFFCURVE",
"450 -256 OFFCURVE",
"450 3 CURVE SMOOTH",
"450 820 LINE SMOOTH",
"450 947 OFFCURVE",
"411 1006 OFFCURVE",
"292 1006 CURVE SMOOTH",
"180 1006 OFFCURVE",
"131 941 OFFCURVE",
"131 814 CURVE SMOOTH",
"131 26 LINE SMOOTH",
"131 -141 OFFCURVE",
"91 -166 OFFCURVE",
"-21 -169 CURVE",
"-164 -169 OFFCURVE",
"-150 -390 OFFCURVE"
);
},
{
closed = 1;
nodes = (
"277 1207 CURVE SMOOTH",
"381 1207 OFFCURVE",
"451 1269 OFFCURVE",
"451 1362 CURVE SMOOTH",
"451 1454 OFFCURVE",
"382 1516 OFFCURVE",
"278 1516 CURVE SMOOTH",
"173 1516 OFFCURVE",
"103 1454 OFFCURVE",
"103 1362 CURVE SMOOTH",
"103 1269 OFFCURVE",
"173 1207 OFFCURVE"
);
}
);
width = 568;
}
);
unicode = 006A;
},
{
glyphname = k;
lastChange = "2013-12-30 03:19:54 -0800";
layers = (
{
anchors = (
{
name = bot;
position = "{519, 0}";
},
{
name = top;
position = "{648, 1198}";
}
);
layerId = "F10CBA7B-FAF3-4DDE-A14D-E99DB7E222CB";
name = Light;
paths = (
{
closed = 1;
nodes = (
"318 574 LINE",
"318 536 LINE",
"795 26 LINE SMOOTH",
"862 -46 OFFCURVE",
"966 53 OFFCURVE",
"902 120 CURVE SMOOTH",
"492 554 LINE",
"873 889 LINE SMOOTH",
"941 949 OFFCURVE",
"844 1044 OFFCURVE",
"783 991 CURVE SMOOTH"
);
},
{
closed = 1;
nodes = (
"199 1425 OFFCURVE",
"158 1398 OFFCURVE",
"158 1345 CURVE SMOOTH",
"158 81 LINE SMOOTH",
"158 25 OFFCURVE",
"197 0 OFFCURVE",
"236 0 CURVE SMOOTH",
"277 0 OFFCURVE",
"318 28 OFFCURVE",
"318 81 CURVE SMOOTH",
"318 1345 LINE SMOOTH",
"318 1398 OFFCURVE",
"278 1425 OFFCURVE",
"239 1425 CURVE SMOOTH"
);
}
);
width = 984;
},
{
anchors = (
{
name = bot;
position = "{579, 0}";
},
{
name = top;
position = "{738, 1198}";
}
);
layerId = "FB5FCFFA-D9F2-48E1-8F42-8D172ED4E960";
name = Bold;
paths = (
{
closed = 1;
nodes = (
"802 63 LINE SMOOTH",
"927 -92 OFFCURVE",
"1156 78 OFFCURVE",
"1040 218 CURVE SMOOTH",
"760 554 LINE",
"988 790 LINE SMOOTH",
"1107 913 OFFCURVE",
"914 1112 OFFCURVE",
"790 971 CURVE SMOOTH",
"442 576 LINE",
"442 509 LINE"
);
},
{
closed = 1;
nodes = (
"276 0 CURVE SMOOTH",
"395 0 OFFCURVE",
"442 70 OFFCURVE",
"442 197 CURVE SMOOTH",
"442 1255 LINE SMOOTH",
"442 1382 OFFCURVE",
"395 1452 OFFCURVE",
"276 1452 CURVE SMOOTH",
"164 1452 OFFCURVE",
"123 1382 OFFCURVE",
"123 1255 CURVE SMOOTH",
"123 197 LINE SMOOTH",
"123 70 OFFCURVE",
"164 0 OFFCURVE"
);
}
);
width = 1111;
}
);
rightKerningGroup = k_Left;
unicode = 006B;
userData = {
com.typemytype.robofont.layerData = {
b = {
anchors = (
);
components = (
);
contours = (
{
points = (
{
segmentType = line;
smooth = 0;
x = 318;
y = 536;
},
{
segmentType = line;
smooth = 1;
x = 793;
y = 27;
},
{
smooth = 0;
x = 809;
y = 9;
},
{
smooth = 0;
x = 828;
y = 1;
},
{
segmentType = curve;
smooth = 1;
x = 845;
y = 1;
},
{
smooth = 0;
x = 883;
y = 1;
},
{
smooth = 0;
x = 922;
y = 33;
},
{
segmentType = curve;
smooth = 1;
x = 922;
y = 71;
},
{
smooth = 0;
x = 922;
y = 84;
},
{
smooth = 0;
x = 918;
y = 99;
},
{
segmentType = curve;
smooth = 1;
x = 906;
y = 112;
},
{
segmentType = line;
smooth = 0;
x = 492;
y = 554;
},
{
segmentType = line;
smooth = 1;
x = 873;
y = 889;
},
{
smooth = 0;
x = 888;
y = 902;
},
{
smooth = 0;
x = 894;
y = 918;
},
{
segmentType = curve;
smooth = 1;
x = 894;
y = 933;
},
{
smooth = 0;
x = 894;
y = 968;
},
{
smooth = 0;
x = 858;
y = 1002;
},
{
segmentType = curve;
smooth = 1;
x = 821;
y = 1002;
},
{
smooth = 0;
x = 802;
y = 1002;
},
{
smooth = 0;
x = 785;
y = 994;
},
{
segmentType = curve;
smooth = 0;
x = 770;
y = 979;
},
{
segmentType = line;
smooth = 0;
x = 318;
y = 574;
}
);
}
);
lib = {
};
name = k;
unicodes = (
);
width = 984;
};
};
};
},
{
glyphname = l;
lastChange = "2013-12-30 03:19:54 -0800";
layers = (
{
anchors = (
{
name = bot;
position = "{235, 0}";
},
{
name = caron.alt;
position = "{259, 991}";
},
{
name = mid;
position = "{158, 649}";
},
{
name = top;
position = "{288, 1426}";
}
);
layerId = "F10CBA7B-FAF3-4DDE-A14D-E99DB7E222CB";
name = Light;
paths = (
{
closed = 1;
nodes = (
"198 1425 OFFCURVE",
"157 1398 OFFCURVE",
"157 1345 CURVE SMOOTH",
"157 81 LINE SMOOTH",
"157 25 OFFCURVE",
"195 0 OFFCURVE",
"235 0 CURVE SMOOTH",
"275 0 OFFCURVE",
"317 28 OFFCURVE",
"317 81 CURVE SMOOTH",
"317 1345 LINE SMOOTH",
"317 1398 OFFCURVE",
"277 1425 OFFCURVE",
"238 1425 CURVE SMOOTH"
);
}
);
width = 474;
},
{
anchors = (
{
name = bot;
position = "{270, 0}";
},
{
name = caron.alt;
position = "{282, 991}";
},
{
name = mid;
position = "{267, 693}";
},
{
name = top;
position = "{268, 1452}";
}
);
layerId = "FB5FCFFA-D9F2-48E1-8F42-8D172ED4E960";
name = Bold;
paths = (
{
closed = 1;
nodes = (
"270 0 CURVE SMOOTH",
"389 0 OFFCURVE",
"436 70 OFFCURVE",
"436 197 CURVE SMOOTH",
"436 1254 LINE SMOOTH",
"436 1381 OFFCURVE",
"389 1451 OFFCURVE",
"270 1451 CURVE SMOOTH",
"158 1451 OFFCURVE",
"117 1381 OFFCURVE",
"117 1254 CURVE SMOOTH",
"117 197 LINE SMOOTH",
"117 70 OFFCURVE",
"158 0 OFFCURVE"
);
}
);
width = 554;
}
);
unicode = 006C;
},
{
glyphname = m;
lastChange = "2013-12-30 03:19:54 -0800";
layers = (
{
anchors = (
{
name = top;
position = "{958, 991}";
}
);
layerId = "F10CBA7B-FAF3-4DDE-A14D-E99DB7E222CB";
name = Light;
paths = (
{
closed = 1;
nodes = (
"1157 1013 OFFCURVE",
"1027 937 OFFCURVE",
"972 775 CURVE",
"929 938 OFFCURVE",
"802 1013 OFFCURVE",
"644 1013 CURVE SMOOTH",
"495 1013 OFFCURVE",
"372 939 OFFCURVE",
"319 816 CURVE",
"319 921 LINE SMOOTH",
"319 968 OFFCURVE",
"277 991 OFFCURVE",
"239 991 CURVE SMOOTH",
"199 991 OFFCURVE",
"158 966 OFFCURVE",
"158 918 CURVE SMOOTH",
"158 75 LINE SMOOTH",
"158 24 OFFCURVE",
"197 0 OFFCURVE",
"237 0 CURVE SMOOTH",
"278 0 OFFCURVE",
"319 24 OFFCURVE",
"319 75 CURVE SMOOTH",
"319 576 LINE SMOOTH",
"319 789 OFFCURVE",
"440 904 OFFCURVE",
"619 904 CURVE SMOOTH",
"760 904 OFFCURVE",
"845 815 OFFCURVE",
"845 606 CURVE SMOOTH",
"845 76 LINE SMOOTH",
"845 25 OFFCURVE",
"884 0 OFFCURVE",
"924 0 CURVE SMOOTH",
"964 0 OFFCURVE",
"1005 25 OFFCURVE",
"1005 76 CURVE SMOOTH",
"1005 579 LINE SMOOTH",
"1005 809 OFFCURVE",
"1146 904 OFFCURVE",
"1304 904 CURVE SMOOTH",
"1449 904 OFFCURVE",
"1532 816 OFFCURVE",
"1532 642 CURVE SMOOTH",
"1532 75 LINE SMOOTH",
"1532 24 OFFCURVE",
"1571 0 OFFCURVE",
"1611 0 CURVE SMOOTH",
"1651 0 OFFCURVE",
"1692 24 OFFCURVE",
"1692 75 CURVE SMOOTH",
"1692 633 LINE SMOOTH",
"1692 906 OFFCURVE",
"1524 1013 OFFCURVE",
"1335 1013 CURVE SMOOTH"
);
}
);
width = 1838;
},
{
anchors = (
{
name = top;
position = "{948, 991}";
}
);
layerId = "FB5FCFFA-D9F2-48E1-8F42-8D172ED4E960";
name = Bold;
paths = (
{
closed = 1;
nodes = (
"274 0 CURVE SMOOTH",
"393 0 OFFCURVE",
"440 70 OFFCURVE",
"440 197 CURVE SMOOTH",
"440 611 LINE SMOOTH",
"440 750 OFFCURVE",
"527 825 OFFCURVE",
"642 825 CURVE SMOOTH",
"739 825 OFFCURVE",
"800 753 OFFCURVE",
"800 616 CURVE SMOOTH",
"800 197 LINE SMOOTH",
"800 70 OFFCURVE",
"845 0 OFFCURVE",
"957 0 CURVE SMOOTH",
"1076 0 OFFCURVE",
"1119 70 OFFCURVE",
"1119 197 CURVE SMOOTH",
"1119 588 LINE SMOOTH",
"1119 744 OFFCURVE",
"1213 825 OFFCURVE",
"1322 825 CURVE SMOOTH",
"1411 825 OFFCURVE",
"1480 756 OFFCURVE",
"1480 635 CURVE SMOOTH",
"1480 197 LINE SMOOTH",
"1480 70 OFFCURVE",
"1527 0 OFFCURVE",
"1639 0 CURVE SMOOTH",
"1758 0 OFFCURVE",
"1799 70 OFFCURVE",
"1799 197 CURVE SMOOTH",
"1799 649 LINE SMOOTH",
"1799 901 OFFCURVE",
"1657 1023 OFFCURVE",
"1466 1023 CURVE SMOOTH",
"1322 1023 OFFCURVE",
"1178 985 OFFCURVE",
"1092 807 CURVE",
"1038 979 OFFCURVE",
"917 1023 OFFCURVE",
"778 1023 CURVE SMOOTH",
"620 1023 OFFCURVE",
"489 962 OFFCURVE",
"440 825 CURVE",
"440 851 LINE SMOOTH",
"440 952 OFFCURVE",
"383 1006 OFFCURVE",
"278 1006 CURVE SMOOTH",
"166 1006 OFFCURVE",
"121 944 OFFCURVE",
"121 817 CURVE SMOOTH",
"121 197 LINE SMOOTH",
"121 70 OFFCURVE",
"162 0 OFFCURVE"
);
}
);
width = 1919;
}
);
leftKerningGroup = n_Right;
rightKerningGroup = n_Left;
unicode = 006D;
userData = {
anchors = (
);
b = {
};
com.typemytype.robofont.layerData = {
b = {
anchors = (
);
components = (
);
contours = (
);
lib = {
};
name = m;
unicodes = (
);
width = 1838;
};
};
components = (
);
contours = (
);
lib = {
};
name = m;
unicodes = (
);
width = 1877;
};
},
{
glyphname = n;
lastChange = "2013-12-30 03:19:54 -0800";
layers = (
{
anchors = (
{
name = bot;
position = "{580, 0}";
},
{
name = top;
position = "{616, 991}";
},
{
name = top.2;
position = "{219, 1113}";
}
);
layerId = "F10CBA7B-FAF3-4DDE-A14D-E99DB7E222CB";
name = Light;
paths = (
{
closed = 1;
nodes = (
"496 1013 OFFCURVE",
"366 944 OFFCURVE",
"318 814 CURVE",
"318 917 LINE SMOOTH",
"318 966 OFFCURVE",
"278 990 OFFCURVE",
"239 990 CURVE SMOOTH",
"199 990 OFFCURVE",
"158 966 OFFCURVE",
"158 915 CURVE SMOOTH",
"158 75 LINE SMOOTH",
"158 24 OFFCURVE",
"197 0 OFFCURVE",
"237 0 CURVE SMOOTH",
"277 0 OFFCURVE",
"318 26 OFFCURVE",
"318 75 CURVE SMOOTH",
"318 598 LINE",
"331 795 OFFCURVE",
"452 903 OFFCURVE",
"608 903 CURVE SMOOTH",
"765 903 OFFCURVE",
"846 806 OFFCURVE",
"846 626 CURVE SMOOTH",
"846 75 LINE SMOOTH",
"846 24 OFFCURVE",
"886 0 OFFCURVE",
"926 0 CURVE SMOOTH",
"966 0 OFFCURVE",
"1006 24 OFFCURVE",
"1006 75 CURVE SMOOTH",
"1006 624 LINE SMOOTH",
"1006 897 OFFCURVE",
"862 1013 OFFCURVE",
"645 1013 CURVE SMOOTH"
);
}
);
width = 1152;
},
{
anchors = (
{
name = bot;
position = "{627, 0}";
},
{
name = top;
position = "{642, 991}";
},
{
name = top.2;
position = "{238, 991}";
}
);
layerId = "FB5FCFFA-D9F2-48E1-8F42-8D172ED4E960";
name = Bold;
paths = (
{
closed = 1;
nodes = (
"271 0 CURVE SMOOTH",
"390 0 OFFCURVE",
"437 70 OFFCURVE",
"437 197 CURVE SMOOTH",
"437 587 LINE SMOOTH",
"437 728 OFFCURVE",
"528 825 OFFCURVE",
"641 825 CURVE SMOOTH",
"732 825 OFFCURVE",
"803 762 OFFCURVE",
"803 635 CURVE SMOOTH",
"803 197 LINE SMOOTH",
"803 70 OFFCURVE",
"844 0 OFFCURVE",
"956 0 CURVE SMOOTH",
"1075 0 OFFCURVE",
"1122 70 OFFCURVE",
"1122 197 CURVE SMOOTH",
"1122 639 LINE SMOOTH",
"1122 891 OFFCURVE",
"982 1025 OFFCURVE",
"789 1025 CURVE SMOOTH",
"614 1025 OFFCURVE",
"494 960 OFFCURVE",
"436 831 CURVE",
"436 842 LINE SMOOTH",
"436 950 OFFCURVE",
"389 1006 OFFCURVE",
"280 1006 CURVE SMOOTH",
"168 1006 OFFCURVE",
"118 953 OFFCURVE",
"118 843 CURVE SMOOTH",
"118 197 LINE SMOOTH",
"118 70 OFFCURVE",
"159 0 OFFCURVE"
);
}
);
width = 1230;
}
);
leftKerningGroup = n_Right;
rightKerningGroup = n_Left;
unicode = 006E;
userData = {
anchors = (
);
b = {
};
com.typemytype.robofont.layerData = {
b = {
anchors = (
);
components = (
);
contours = (
);
lib = {
};
name = n;
unicodes = (
);
width = 1152;
};
};
components = (
);
contours = {
};
lib = {
};
name = n;
points = {
};
segmentType = curve;
unicodes = (
);
width = 1195;
x = 137;
y = 113;
};
},
{
glyphname = o;
lastChange = "2013-12-30 03:19:54 -0800";
layers = (
{
anchors = (
{
name = ogonek;
position = "{628, 0}";
},
{
name = top;
position = "{572, 1001}";
}
);
layerId = "F10CBA7B-FAF3-4DDE-A14D-E99DB7E222CB";
name = Light;
paths = (
{
closed = 1;
nodes = (
"284 1013 OFFCURVE",
"86 806 OFFCURVE",
"86 496 CURVE SMOOTH",
"86 186 OFFCURVE",
"284 -20 OFFCURVE",
"580 -20 CURVE SMOOTH",
"877 -20 OFFCURVE",
"1075 186 OFFCURVE",
"1075 496 CURVE SMOOTH",
"1075 806 OFFCURVE",
"877 1013 OFFCURVE",
"580 1013 CURVE SMOOTH"
);
},
{
closed = 1;
nodes = (
"791 903 OFFCURVE",
"915 740 OFFCURVE",
"915 496 CURVE SMOOTH",
"915 252 OFFCURVE",
"796 91 OFFCURVE",
"580 90 CURVE SMOOTH",
"370 89 OFFCURVE",
"246 252 OFFCURVE",
"246 496 CURVE SMOOTH",
"246 743 OFFCURVE",
"370 903 OFFCURVE",
"580 903 CURVE SMOOTH"
);
}
);
width = 1144;
},
{
anchors = (
{
name = ogonek;
position = "{648, 0}";
},
{
name = top;
position = "{631, 991}";
}
);
layerId = "FB5FCFFA-D9F2-48E1-8F42-8D172ED4E960";
name = Bold;
paths = (
{
closed = 1;
nodes = (
"631 188 CURVE SMOOTH",
"483 188 OFFCURVE",
"409 312 OFFCURVE",
"409 504 CURVE SMOOTH",
"409 707 OFFCURVE",
"483 825 OFFCURVE",
"631 825 CURVE SMOOTH",
"779 825 OFFCURVE",
"853 707 OFFCURVE",
"853 504 CURVE SMOOTH",
"853 309 OFFCURVE",
"779 188 OFFCURVE"
);
},
{
closed = 1;
nodes = (
"631 -12 CURVE SMOOTH",
"1003 -12 OFFCURVE",
"1183 225 OFFCURVE",
"1183 504 CURVE SMOOTH",
"1183 805 OFFCURVE",
"990 1025 OFFCURVE",
"631 1025 CURVE SMOOTH",
"256 1025 OFFCURVE",
"80 786 OFFCURVE",
"80 504 CURVE SMOOTH",
"80 212 OFFCURVE",
"265 -12 OFFCURVE"
);
}
);
width = 1263;
}
);
leftKerningGroup = o_Right;
rightKerningGroup = o_Left;
unicode = 006F;
userData = {
anchors = (
);
b = {
};
com.typemytype.robofont.guides = (
);
com.typemytype.robofont.layerData = {
b = {
anchors = (
);
components = (
);
contours = (
);
lib = {
};
name = o;
unicodes = (
);
width = 1161;
};
};
components = (
);
contours = (
);
lib = {
};
name = o;
unicodes = (
);
width = 1199;
};
},
{
glyphname = p;
lastChange = "2013-12-30 03:19:54 -0800";
layers = (
{
anchors = (
{
name = top;
position = "{662, 1001}";
}
);
layerId = "F10CBA7B-FAF3-4DDE-A14D-E99DB7E222CB";
name = Light;
paths = (
{
closed = 1;
nodes = (
"516 1013 OFFCURVE",
"384 947 OFFCURVE",
"318 810 CURVE",
"318 917 LINE SMOOTH",
"318 955 OFFCURVE",
"297 990 OFFCURVE",
"237 990 CURVE SMOOTH",
"197 990 OFFCURVE",
"158 966 OFFCURVE",
"158 917 CURVE SMOOTH",
"158 -305 LINE SMOOTH",
"158 -354 OFFCURVE",
"198 -379 OFFCURVE",
"238 -379 CURVE SMOOTH",
"278 -379 OFFCURVE",
"318 -354 OFFCURVE",
"318 -305 CURVE SMOOTH",
"318 179 LINE",
"376 51 OFFCURVE",
"503 -20 OFFCURVE",
"650 -20 CURVE SMOOTH",
"939 -20 OFFCURVE",
"1095 216 OFFCURVE",
"1095 491 CURVE SMOOTH",
"1095 768 OFFCURVE",
"957 1013 OFFCURVE",
"666 1013 CURVE SMOOTH"
);
},
{
closed = 1;
nodes = (
"869 900 OFFCURVE",
"935 677 OFFCURVE",
"935 497 CURVE SMOOTH",
"935 308 OFFCURVE",
"859 90 OFFCURVE",
"632 90 CURVE SMOOTH",
"407 90 OFFCURVE",
"319 292 OFFCURVE",
"319 492 CURVE SMOOTH",
"319 714 OFFCURVE",
"395 903 OFFCURVE",
"645 903 CURVE"
);
}
);
width = 1181;
},
{
layerId = "FB5FCFFA-D9F2-48E1-8F42-8D172ED4E960";
name = Bold;
paths = (
{
closed = 1;
nodes = (
"269 -371 CURVE SMOOTH",
"388 -371 OFFCURVE",
"435 -301 OFFCURVE",
"435 -174 CURVE SMOOTH",
"435 157 LINE",
"486 50 OFFCURVE",
"604 -12 OFFCURVE",
"753 -12 CURVE SMOOTH",
"995 -12 OFFCURVE",
"1200 158 OFFCURVE",
"1200 500 CURVE SMOOTH",
"1200 838 OFFCURVE",
"1011 1025 OFFCURVE",
"766 1025 CURVE SMOOTH",
"621 1025 OFFCURVE",
"496 970 OFFCURVE",
"434 839 CURVE",
"434 856 LINE SMOOTH",
"434 943 OFFCURVE",
"382 1006 OFFCURVE",
"278 1006 CURVE SMOOTH",
"166 1006 OFFCURVE",
"116 925 OFFCURVE",
"116 798 CURVE SMOOTH",
"116 -174 LINE SMOOTH",
"116 -301 OFFCURVE",
"157 -371 OFFCURVE"
);
},
{
closed = 1;
nodes = (
"667 188 CURVE SMOOTH",
"524 188 OFFCURVE",
"436 300 OFFCURVE",
"436 506 CURVE SMOOTH",
"436 705 OFFCURVE",
"502 825 OFFCURVE",
"672 825 CURVE SMOOTH",
"839 825 OFFCURVE",
"895 656 OFFCURVE",
"895 509 CURVE SMOOTH",
"895 325 OFFCURVE",
"822 188 OFFCURVE"
);
}
);
width = 1280;
}
);
rightKerningGroup = o_Left;
unicode = 0070;
userData = {
anchors = (
);
b = {
};
com.typemytype.robofont.layerData = {
b = {
anchors = (
);
components = (
);
contours = (
);
lib = {
};
name = p;
unicodes = (
);
width = 1181;
};
};
components = (
);
contours = (
);
lib = {
};
name = p;
unicodes = (
);
width = 1207;
};
},
{
glyphname = q;
lastChange = "2013-12-30 03:19:54 -0800";
layers = (
{
anchors = (
{
name = top;
position = "{519, 1001}";
}
);
layerId = "F10CBA7B-FAF3-4DDE-A14D-E99DB7E222CB";
name = Light;
paths = (
{
closed = 1;
nodes = (
"224 1013 OFFCURVE",
"86 768 OFFCURVE",
"86 491 CURVE SMOOTH",
"86 216 OFFCURVE",
"242 -20 OFFCURVE",
"531 -20 CURVE SMOOTH",
"678 -20 OFFCURVE",
"805 51 OFFCURVE",
"863 179 CURVE",
"863 -305 LINE SMOOTH",
"863 -354 OFFCURVE",
"903 -379 OFFCURVE",
"943 -379 CURVE SMOOTH",
"983 -379 OFFCURVE",
"1023 -354 OFFCURVE",
"1023 -305 CURVE SMOOTH",
"1023 917 LINE SMOOTH",
"1023 966 OFFCURVE",
"984 990 OFFCURVE",
"944 990 CURVE SMOOTH",
"884 990 OFFCURVE",
"863 955 OFFCURVE",
"863 917 CURVE SMOOTH",
"863 810 LINE",
"797 947 OFFCURVE",
"665 1013 OFFCURVE",
"515 1013 CURVE SMOOTH"
);
},
{
closed = 1;
nodes = (
"786 903 OFFCURVE",
"862 714 OFFCURVE",
"862 492 CURVE SMOOTH",
"862 292 OFFCURVE",
"774 90 OFFCURVE",
"549 90 CURVE SMOOTH",
"322 90 OFFCURVE",
"246 308 OFFCURVE",
"246 497 CURVE SMOOTH",
"246 677 OFFCURVE",
"312 900 OFFCURVE",
"536 903 CURVE"
);
}
);
width = 1181;
},
{
layerId = "FB5FCFFA-D9F2-48E1-8F42-8D172ED4E960";
name = Bold;
paths = (
{
closed = 1;
nodes = (
"1011 -371 CURVE SMOOTH",
"1123 -371 OFFCURVE",
"1164 -301 OFFCURVE",
"1164 -174 CURVE SMOOTH",
"1164 798 LINE SMOOTH",
"1164 925 OFFCURVE",
"1114 1006 OFFCURVE",
"1002 1006 CURVE SMOOTH",
"898 1006 OFFCURVE",
"846 943 OFFCURVE",
"846 856 CURVE SMOOTH",
"846 839 LINE",
"784 970 OFFCURVE",
"659 1025 OFFCURVE",
"514 1025 CURVE SMOOTH",
"269 1025 OFFCURVE",
"80 838 OFFCURVE",
"80 500 CURVE SMOOTH",
"80 158 OFFCURVE",
"285 -12 OFFCURVE",
"527 -12 CURVE SMOOTH",
"676 -12 OFFCURVE",
"794 50 OFFCURVE",
"845 157 CURVE",
"845 -174 LINE SMOOTH",
"845 -301 OFFCURVE",
"892 -371 OFFCURVE"
);
},
{
closed = 1;
nodes = (
"613 186 CURVE SMOOTH",
"458 186 OFFCURVE",
"385 325 OFFCURVE",
"385 509 CURVE SMOOTH",
"385 656 OFFCURVE",
"441 833 OFFCURVE",
"608 833 CURVE SMOOTH",
"778 833 OFFCURVE",
"844 705 OFFCURVE",
"844 506 CURVE SMOOTH",
"844 300 OFFCURVE",
"756 186 OFFCURVE"
);
}
);
width = 1280;
}
);
leftKerningGroup = o_Right;
unicode = 0071;
userData = {
anchors = (
);
b = {
};
com.typemytype.robofont.layerData = {
b = {
anchors = (
);
components = (
);
contours = (
);
lib = {
};
name = p;
unicodes = (
);
width = 1181;
};
};
components = (
);
contours = (
);
lib = {
};
name = p;
unicodes = (
);
width = 1207;
};
},
{
glyphname = r;
lastChange = "2013-12-30 03:19:54 -0800";
layers = (
{
anchors = (
{
name = bot;
position = "{239, 0}";
},
{
name = top;
position = "{378, 1001}";
}
);
layerId = "F10CBA7B-FAF3-4DDE-A14D-E99DB7E222CB";
name = Light;
paths = (
{
closed = 1;
nodes = (
"450 1013 OFFCURVE",
"351 912 OFFCURVE",
"321 796 CURVE",
"321 915 LINE SMOOTH",
"321 1013 OFFCURVE",
"161 1013 OFFCURVE",
"161 915 CURVE SMOOTH",
"161 74 LINE SMOOTH",
"161 23 OFFCURVE",
"199 0 OFFCURVE",
"239 0 CURVE SMOOTH",
"280 0 OFFCURVE",
"321 25 OFFCURVE",
"321 74 CURVE SMOOTH",
"321 615 LINE SMOOTH",
"321 741 OFFCURVE",
"406 877 OFFCURVE",
"603 877 CURVE SMOOTH",
"695 877 OFFCURVE",
"679 1013 OFFCURVE",
"605 1013 CURVE SMOOTH"
);
}
);
width = 715;
},
{
anchors = (
{
name = bot;
position = "{276, 0}";
},
{
name = top;
position = "{378, 1001}";
}
);
layerId = "FB5FCFFA-D9F2-48E1-8F42-8D172ED4E960";
name = Bold;
paths = (
{
closed = 1;
nodes = (
"276 0 CURVE SMOOTH",
"395 0 OFFCURVE",
"436 63 OFFCURVE",
"436 190 CURVE SMOOTH",
"436 553 LINE SMOOTH",
"436 708 OFFCURVE",
"565 772 OFFCURVE",
"691 772 CURVE",
"848 772 OFFCURVE",
"871 1023 OFFCURVE",
"688 1023 CURVE SMOOTH",
"552 1023 OFFCURVE",
"470 902 OFFCURVE",
"436 807 CURVE",
"436 857 LINE SMOOTH",
"436 1049 OFFCURVE",
"117 1060 OFFCURVE",
"117 857 CURVE SMOOTH",
"117 197 LINE SMOOTH",
"117 70 OFFCURVE",
"164 0 OFFCURVE"
);
}
);
width = 824;
}
);
rightKerningGroup = r_Left;
unicode = 0072;
userData = {
anchors = (
);
b = {
};
com.typemytype.robofont.layerData = {
b = {
anchors = (
);
components = (
);
contours = (
);
lib = {
};
name = r;
unicodes = (
);
width = 715;
};
};
components = (
);
contours = (
);
lib = {
};
name = r;
unicodes = (
);
width = 763;
};
},
{
glyphname = s;
lastChange = "2013-12-30 03:19:54 -0800";
layers = (
{
anchors = (
{
name = bot;
position = "{511, 0}";
},
{
name = top;
position = "{484, 1001}";
}
);
layerId = "F10CBA7B-FAF3-4DDE-A14D-E99DB7E222CB";
name = Light;
paths = (
{
closed = 1;
nodes = (
"310 1013 OFFCURVE",
"116 943 OFFCURVE",
"118 740 CURVE SMOOTH",
"120 564 OFFCURVE",
"234 524 OFFCURVE",
"413 480 CURVE SMOOTH",
"596 435 LINE SMOOTH",
"716 406 OFFCURVE",
"763 359 OFFCURVE",
"767 283 CURVE SMOOTH",
"774 155 OFFCURVE",
"670 90 OFFCURVE",
"516 90 CURVE SMOOTH",
"397 90 OFFCURVE",
"294 129 OFFCURVE",
"218 176 CURVE SMOOTH",
"140 224 OFFCURVE",
"84 134 OFFCURVE",
"148 87 CURVE SMOOTH",
"217 36 OFFCURVE",
"363 -20 OFFCURVE",
"511 -20 CURVE SMOOTH",
"738 -20 OFFCURVE",
"913 79 OFFCURVE",
"903 302 CURVE SMOOTH",
"898 414 OFFCURVE",
"833 513 OFFCURVE",
"632 562 CURVE SMOOTH",
"453 606 LINE SMOOTH",
"301 643 OFFCURVE",
"268 662 OFFCURVE",
"268 749 CURVE SMOOTH",
"268 858 OFFCURVE",
"369 903 OFFCURVE",
"518 903 CURVE SMOOTH",
"640 903 OFFCURVE",
"738 856 OFFCURVE",
"785 839 CURVE SMOOTH",
"864 811 OFFCURVE",
"894 903 OFFCURVE",
"831 937 CURVE SMOOTH",
"777 966 OFFCURVE",
"653 1013 OFFCURVE",
"510 1013 CURVE SMOOTH"
);
}
);
width = 1007;
},
{
anchors = (
{
name = bot;
position = "{502, 0}";
},
{
name = top;
position = "{525, 1006}";
}
);
layerId = "FB5FCFFA-D9F2-48E1-8F42-8D172ED4E960";
name = Bold;
paths = (
{
closed = 1;
nodes = (
"504 -12 CURVE SMOOTH",
"758 -22 OFFCURVE",
"954 90 OFFCURVE",
"949 318 CURVE SMOOTH",
"945 499 OFFCURVE",
"820 568 OFFCURVE",
"613 621 CURVE SMOOTH",
"476 656 LINE SMOOTH",
"396 676 OFFCURVE",
"363 699 OFFCURVE",
"363 751 CURVE SMOOTH",
"363 820 OFFCURVE",
"480 833 OFFCURVE",
"545 826 CURVE SMOOTH",
"639 816 OFFCURVE",
"707 791 OFFCURVE",
"748 776 CURVE SMOOTH",
"883 727 OFFCURVE",
"939 898 OFFCURVE",
"817 953 CURVE SMOOTH",
"749 984 OFFCURVE",
"675 1018 OFFCURVE",
"544 1025 CURVE SMOOTH",
"262 1040 OFFCURVE",
"81 929 OFFCURVE",
"81 734 CURVE SMOOTH",
"81 534 OFFCURVE",
"202 486 OFFCURVE",
"430 423 CURVE SMOOTH",
"568 385 LINE SMOOTH",
"646 364 OFFCURVE",
"686 327 OFFCURVE",
"686 290 CURVE SMOOTH",
"686 195 OFFCURVE",
"561 182 OFFCURVE",
"480 186 CURVE SMOOTH",
"350 193 OFFCURVE",
"283 244 OFFCURVE",
"238 268 CURVE SMOOTH",
"114 334 OFFCURVE",
"29 174 OFFCURVE",
"124 108 CURVE SMOOTH",
"210 49 OFFCURVE",
"320 -5 OFFCURVE"
);
}
);
width = 997.004;
}
);
unicode = 0073;
userData = {
anchors = (
);
b = {
};
com.typemytype.robofont.layerData = {
b = {
anchors = (
);
components = (
);
contours = (
);
lib = {
};
name = s;
unicodes = (
);
width = 1007;
};
};
components = (
);
contours = (
);
lib = {
};
name = s;
unicodes = (
);
width = 1006.75897735;
};
},
{
glyphname = t;
lastChange = "2013-12-30 03:19:54 -0800";
layers = (
{
anchors = (
{
name = bot;
position = "{439, 9}";
},
{
name = caron.alt;
position = "{338, 991}";
},
{
name = mid;
position = "{340, 562}";
},
{
name = top;
position = "{325, 1283}";
}
);
layerId = "F10CBA7B-FAF3-4DDE-A14D-E99DB7E222CB";
name = Light;
paths = (
{
closed = 1;
nodes = (
"292 1341 OFFCURVE",
"250 1308 OFFCURVE",
"248 1272 CURVE SMOOTH",
"228 981 LINE",
"100 981 LINE SMOOTH",
"57 981 OFFCURVE",
"38 959 OFFCURVE",
"38 928 CURVE SMOOTH",
"38 897 OFFCURVE",
"57 876 OFFCURVE",
"100 876 CURVE SMOOTH",
"228 876 LINE",
"228 289 LINE SMOOTH",
"228 60 OFFCURVE",
"334 -17 OFFCURVE",
"467 -17 CURVE SMOOTH",
"528 -17 OFFCURVE",
"584 -15 OFFCURVE",
"612 -10 CURVE SMOOTH",
"686 3 OFFCURVE",
"677 116 OFFCURVE",
"592 112 CURVE SMOOTH",
"527 109 LINE SMOOTH",
"435 105 OFFCURVE",
"388 151 OFFCURVE",
"388 308 CURVE SMOOTH",
"388 876 LINE",
"577 876 LINE SMOOTH",
"620 876 OFFCURVE",
"637 896 OFFCURVE",
"637 927 CURVE SMOOTH",
"637 958 OFFCURVE",
"620 981 OFFCURVE",
"577 981 CURVE SMOOTH",
"388 981 LINE",
"388 1275 LINE SMOOTH",
"388 1320 OFFCURVE",
"357 1341 OFFCURVE",
"324 1341 CURVE SMOOTH"
);
}
);
width = 706;
},
{
anchors = (
{
name = bot;
position = "{488, -1}";
},
{
name = caron.alt;
position = "{331, 1291}";
},
{
name = mid;
position = "{389, 569}";
},
{
name = top;
position = "{367, 1343}";
}
);
layerId = "FB5FCFFA-D9F2-48E1-8F42-8D172ED4E960";
name = Bold;
paths = (
{
closed = 1;
nodes = (
"504 -12 CURVE",
"617 -12 OFFCURVE",
"690 -4 OFFCURVE",
"736 12 CURVE SMOOTH",
"826 44 OFFCURVE",
"808 217 OFFCURVE",
"709 212 CURVE SMOOTH",
"652 209 LINE SMOOTH",
"544 203 OFFCURVE",
"511 263 OFFCURVE",
"511 424 CURVE SMOOTH",
"511 802 LINE",
"626 802 LINE SMOOTH",
"703 802 OFFCURVE",
"738 836 OFFCURVE",
"738 904 CURVE SMOOTH",
"738 977 OFFCURVE",
"700 1010 OFFCURVE",
"632 1010 CURVE SMOOTH",
"511 1010 LINE",
"511 1205 LINE SMOOTH",
"511 1326 OFFCURVE",
"474 1388 OFFCURVE",
"386 1388 CURVE SMOOTH",
"267 1388 OFFCURVE",
"242 1296 OFFCURVE",
"234 1217 CURVE SMOOTH",
"212 1010 LINE",
"126 1010 LINE SMOOTH",
"49 1010 OFFCURVE",
"19 970 OFFCURVE",
"19 910 CURVE SMOOTH",
"19 834 OFFCURVE",
"58 802 OFFCURVE",
"130 802 CURVE SMOOTH",
"191 802 LINE",
"191 356 LINE SMOOTH",
"191 88 OFFCURVE",
"317 -9 OFFCURVE"
);
}
);
width = 824.994;
}
);
rightKerningGroup = t_Left;
unicode = 0074;
userData = {
anchors = (
);
b = {
};
com.typemytype.robofont.layerData = {
b = {
anchors = (
);
components = (
);
contours = (
{
points = (
{
segmentType = curve;
smooth = 1;
x = 317;
y = 0;
},
{
smooth = 0;
x = 358;
y = 0;
},
{
smooth = 0;
x = 398;
y = 27;
},
{
segmentType = curve;
smooth = 1;
x = 398;
y = 79;
},
{
segmentType = line;
smooth = 0;
x = 398;
y = 876;
},
{
segmentType = line;
smooth = 1;
x = 578;
y = 876;
},
{
smooth = 0;
x = 621;
y = 876;
},
{
smooth = 0;
x = 634;
y = 897;
},
{
segmentType = curve;
smooth = 1;
x = 634;
y = 928;
},
{
smooth = 0;
x = 634;
y = 957;
},
{
smooth = 0;
x = 621;
y = 981;
},
{
segmentType = curve;
smooth = 1;
x = 578;
y = 981;
},
{
segmentType = line;
smooth = 0;
x = 398;
y = 981;
},
{
segmentType = line;
smooth = 1;
x = 398;
y = 1053;
},
{
smooth = 0;
x = 398;
y = 1285;
},
{
smooth = 0;
x = 432;
y = 1318;
},
{
segmentType = curve;
smooth = 1;
x = 544;
y = 1318;
},
{
segmentType = line;
smooth = 1;
x = 629;
y = 1318;
},
{
smooth = 0;
x = 706;
y = 1318;
},
{
smooth = 0;
x = 703;
y = 1438;
},
{
segmentType = curve;
smooth = 1;
x = 630;
y = 1438;
},
{
segmentType = line;
smooth = 1;
x = 510;
y = 1438;
},
{
smooth = 0;
x = 357;
y = 1438;
},
{
smooth = 0;
x = 238;
y = 1371;
},
{
segmentType = curve;
smooth = 1;
x = 238;
y = 1112;
},
{
segmentType = line;
smooth = 0;
x = 238;
y = 981;
},
{
segmentType = line;
smooth = 1;
x = 98;
y = 981;
},
{
smooth = 0;
x = 55;
y = 981;
},
{
smooth = 0;
x = 39;
y = 957;
},
{
segmentType = curve;
smooth = 1;
x = 39;
y = 928;
},
{
smooth = 0;
x = 39;
y = 899;
},
{
smooth = 0;
x = 55;
y = 876;
},
{
segmentType = curve;
smooth = 1;
x = 98;
y = 876;
},
{
segmentType = line;
smooth = 0;
x = 238;
y = 876;
},
{
segmentType = line;
smooth = 1;
x = 238;
y = 79;
},
{
smooth = 0;
x = 238;
y = 26;
},
{
smooth = 0;
x = 278;
y = 0;
}
);
}
);
lib = {
};
name = t;
unicodes = (
);
width = 706;
};
};
components = (
);
contours = (
);
lib = {
};
name = t;
unicodes = (
);
width = 768;
};
},
{
glyphname = u;
lastChange = "2013-12-30 03:19:54 -0800";
layers = (
{
anchors = (
{
name = ogonek;
position = "{910, 19}";
},
{
name = top;
position = "{568, 1001}";
}
);
layerId = "F10CBA7B-FAF3-4DDE-A14D-E99DB7E222CB";
name = Light;
paths = (
{
closed = 1;
nodes = (
"875 991 OFFCURVE",
"834 965 OFFCURVE",
"834 916 CURVE SMOOTH",
"834 395 LINE",
"821 198 OFFCURVE",
"698 90 OFFCURVE",
"542 90 CURVE SMOOTH",
"385 90 OFFCURVE",
"306 187 OFFCURVE",
"306 367 CURVE SMOOTH",
"306 916 LINE SMOOTH",
"306 967 OFFCURVE",
"266 991 OFFCURVE",
"226 991 CURVE SMOOTH",
"186 991 OFFCURVE",
"146 967 OFFCURVE",
"146 916 CURVE SMOOTH",
"146 369 LINE SMOOTH",
"146 96 OFFCURVE",
"294 -20 OFFCURVE",
"507 -20 CURVE SMOOTH",
"656 -20 OFFCURVE",
"786 49 OFFCURVE",
"834 179 CURVE",
"834 73 LINE SMOOTH",
"834 24 OFFCURVE",
"874 0 OFFCURVE",
"913 0 CURVE SMOOTH",
"953 0 OFFCURVE",
"994 24 OFFCURVE",
"994 75 CURVE SMOOTH",
"994 916 LINE SMOOTH",
"994 967 OFFCURVE",
"955 991 OFFCURVE",
"915 991 CURVE SMOOTH"
);
}
);
width = 1152;
},
{
anchors = (
{
name = ogonek;
position = "{961, 22}";
},
{
name = top;
position = "{608, 991}";
}
);
layerId = "FB5FCFFA-D9F2-48E1-8F42-8D172ED4E960";
name = Bold;
paths = (
{
closed = 1;
nodes = (
"463 -12 CURVE SMOOTH",
"638 -12 OFFCURVE",
"736 53 OFFCURVE",
"794 182 CURVE",
"794 164 LINE SMOOTH",
"794 56 OFFCURVE",
"841 0 OFFCURVE",
"950 0 CURVE SMOOTH",
"1062 0 OFFCURVE",
"1112 53 OFFCURVE",
"1112 163 CURVE SMOOTH",
"1112 809 LINE SMOOTH",
"1112 936 OFFCURVE",
"1071 1006 OFFCURVE",
"959 1006 CURVE SMOOTH",
"840 1006 OFFCURVE",
"793 936 OFFCURVE",
"793 809 CURVE SMOOTH",
"793 426 LINE SMOOTH",
"793 285 OFFCURVE",
"702 188 OFFCURVE",
"589 188 CURVE SMOOTH",
"498 188 OFFCURVE",
"427 251 OFFCURVE",
"427 378 CURVE SMOOTH",
"427 809 LINE SMOOTH",
"427 936 OFFCURVE",
"386 1006 OFFCURVE",
"274 1006 CURVE SMOOTH",
"155 1006 OFFCURVE",
"108 936 OFFCURVE",
"108 809 CURVE SMOOTH",
"108 374 LINE SMOOTH",
"108 122 OFFCURVE",
"270 -12 OFFCURVE"
);
}
);
width = 1230;
}
);
leftKerningGroup = u_Left;
unicode = 0075;
userData = {
anchors = (
);
b = {
};
com.typemytype.robofont.layerData = {
b = {
anchors = (
);
components = (
);
contours = (
{
points = (
{
segmentType = curve;
smooth = 1;
x = 915;
y = 991;
},
{
smooth = 0;
x = 875;
y = 991;
},
{
smooth = 0;
x = 834;
y = 965;
},
{
segmentType = curve;
smooth = 1;
x = 834;
y = 916;
},
{
segmentType = line;
smooth = 0;
x = 834;
y = 395;
},
{
smooth = 0;
x = 821;
y = 198;
},
{
smooth = 0;
x = 698;
y = 90;
},
{
segmentType = curve;
smooth = 1;
x = 542;
y = 90;
},
{
smooth = 0;
x = 385;
y = 90;
},
{
smooth = 0;
x = 306;
y = 187;
},
{
segmentType = curve;
smooth = 1;
x = 306;
y = 367;
},
{
segmentType = line;
smooth = 1;
x = 306;
y = 916;
},
{
smooth = 0;
x = 306;
y = 967;
},
{
smooth = 0;
x = 266;
y = 991;
},
{
segmentType = curve;
smooth = 1;
x = 226;
y = 991;
},
{
smooth = 0;
x = 186;
y = 991;
},
{
smooth = 0;
x = 146;
y = 967;
},
{
segmentType = curve;
smooth = 1;
x = 146;
y = 916;
},
{
segmentType = line;
smooth = 1;
x = 146;
y = 369;
},
{
smooth = 0;
x = 146;
y = 96;
},
{
smooth = 0;
x = 294;
y = "-20";
},
{
segmentType = curve;
smooth = 1;
x = 507;
y = "-20";
},
{
smooth = 0;
x = 656;
y = "-20";
},
{
smooth = 0;
x = 786;
y = 49;
},
{
segmentType = curve;
smooth = 0;
x = 834;
y = 179;
},
{
segmentType = line;
smooth = 1;
x = 834;
y = 73;
},
{
smooth = 0;
x = 834;
y = 24;
},
{
smooth = 0;
x = 874;
y = 0;
},
{
segmentType = curve;
smooth = 1;
x = 913;
y = 0;
},
{
smooth = 0;
x = 953;
y = 0;
},
{
smooth = 0;
x = 994;
y = 24;
},
{
segmentType = curve;
smooth = 1;
x = 994;
y = 75;
},
{
segmentType = line;
smooth = 1;
x = 994;
y = 916;
},
{
smooth = 0;
x = 994;
y = 967;
},
{
smooth = 0;
x = 955;
y = 991;
}
);
}
);
lib = {
};
name = u;
unicodes = (
);
width = 1152;
};
};
components = (
);
contours = (
);
lib = {
};
name = u;
unicodes = (
);
width = 1195;
};
},
{
glyphname = v;
lastChange = "2013-12-30 03:19:54 -0800";
layers = (
{
layerId = "F10CBA7B-FAF3-4DDE-A14D-E99DB7E222CB";
name = Light;
paths = (
{
closed = 1;
nodes = (
"156.552 1048.62 OFFCURVE",
"26.0164 963.771 OFFCURVE",
"57 890 CURVE SMOOTH",
"382 121 LINE SMOOTH",
"418 36 OFFCURVE",
"447 0 OFFCURVE",
"518 0 CURVE",
"518 166 LINE",
"200 940 LINE SMOOTH"
);
},
{
closed = 1;
nodes = (
"518 166 LINE",
"518 0 LINE",
"589 0 OFFCURVE",
"618 36 OFFCURVE",
"654 121 CURVE SMOOTH",
"979 890 LINE SMOOTH",
"1009.98 963.771 OFFCURVE",
"879.448 1048.62 OFFCURVE",
"836 940 CURVE SMOOTH"
);
}
);
width = 1027;
},
{
layerId = "FB5FCFFA-D9F2-48E1-8F42-8D172ED4E960";
name = Bold;
paths = (
{
closed = 1;
nodes = (
"542 -12 LINE",
"690 -12 OFFCURVE",
"720 39 OFFCURVE",
"809 255 CURVE SMOOTH",
"1034 803 LINE SMOOTH",
"1118 1007 OFFCURVE",
"838 1109 OFFCURVE",
"760 899 CURVE SMOOTH",
"542 310 LINE"
);
},
{
closed = 1;
nodes = (
"542 -12 CURVE",
"542 310 LINE",
"323 899 LINE SMOOTH",
"245 1109 OFFCURVE",
"-33 1007 OFFCURVE",
"50 803 CURVE SMOOTH",
"274 255 LINE SMOOTH",
"363 38 OFFCURVE",
"394 -12 OFFCURVE"
);
}
);
width = 1083;
}
);
leftKerningGroup = v_Left;
rightKerningGroup = v_Left;
unicode = 0076;
userData = {
com.typemytype.robofont.layerData = {
b = {
anchors = (
);
components = (
);
contours = (
{
points = (
{
segmentType = line;
smooth = 0;
x = 518;
y = 0;
},
{
smooth = 0;
x = 589;
y = 0;
},
{
smooth = 0;
x = 618;
y = 36;
},
{
segmentType = curve;
smooth = 1;
x = 654;
y = 121;
},
{
segmentType = line;
smooth = 1;
x = 979;
y = 890;
},
{
smooth = 0;
x = 1000;
y = 940;
},
{
smooth = 0;
x = 968;
y = 991;
},
{
segmentType = curve;
smooth = 1;
x = 907;
y = 991;
},
{
smooth = 0;
x = 878;
y = 991;
},
{
smooth = 0;
x = 850;
y = 975;
},
{
segmentType = curve;
smooth = 1;
x = 836;
y = 940;
},
{
segmentType = line;
smooth = 0;
x = 518;
y = 166;
}
);
},
{
points = (
{
segmentType = curve;
smooth = 0;
x = 518;
y = 0;
},
{
segmentType = line;
smooth = 0;
x = 518;
y = 166;
},
{
segmentType = line;
smooth = 1;
x = 200;
y = 940;
},
{
smooth = 0;
x = 186;
y = 975;
},
{
smooth = 0;
x = 158;
y = 991;
},
{
segmentType = curve;
smooth = 1;
x = 129;
y = 991;
},
{
smooth = 0;
x = 68;
y = 991;
},
{
smooth = 0;
x = 36;
y = 940;
},
{
segmentType = curve;
smooth = 1;
x = 57;
y = 890;
},
{
segmentType = line;
smooth = 1;
x = 382;
y = 121;
},
{
smooth = 0;
x = 418;
y = 36;
},
{
smooth = 0;
x = 447;
y = 0;
}
);
}
);
lib = {
};
name = v;
unicodes = (
);
width = 1027;
};
};
};
},
